<svg xmlns="http://www.w3.org/2000/svg" xmlns:xlink="http://www.w3.org/1999/xlink" xmlns:lucid="lucid" width="1513.14" height="556.67"><g transform="translate(-100 -106.66666666666667)" lucid:page-tab-id="0_0"><path d="M120 246a6 6 0 0 1 6-6h186a6 6 0 0 1 6 6v45c-33.07-8.52-53.66-8.52-66.13-8.52-19.8 0-46.14 8.52-65.94 8.52-12.27 0-33.06 0-65.93-8.52z" stroke="#3a414a" fill="#f2f3f5"/><path d="M131 250.5a6 6 0 0 1 6-6h186a6 6 0 0 1 6 6v45c-33.07-8.52-53.66-8.52-66.13-8.52-19.8 0-46.14 8.52-65.94 8.52-12.27 0-33.06 0-65.93-8.52z" stroke="#3a414a" fill="#f2f3f5"/><path d="M142 255a6 6 0 0 1 6-6h186a6 6 0 0 1 6 6v45c-33.07-8.52-53.66-8.52-66.13-8.52-19.8 0-46.14 8.52-65.94 8.52-12.27 0-33.06 0-65.93-8.52z" stroke="#3a414a" fill="#f2f3f5"/><use xlink:href="#a" transform="matrix(1,0,0,1,147,254) translate(6.580246913580254 17.77777777777778)"/><path d="M640 246a6 6 0 0 1 6-6h222a6 6 0 0 1 6 6v45c-39.08-8.52-63.4-8.52-78.16-8.52-23.4 0-54.52 8.52-77.92 8.52-14.5 0-39.08 0-77.92-8.52z" stroke="#3a414a" fill="#f2f3f5"/><path d="M653 250.5a6 6 0 0 1 6-6h222a6 6 0 0 1 6 6v45c-39.08-8.52-63.4-8.52-78.16-8.52-23.4 0-54.52 8.52-77.92 8.52-14.5 0-39.08 0-77.92-8.52z" stroke="#3a414a" fill="#f2f3f5"/><path d="M666 255a6 6 0 0 1 6-6h222a6 6 0 0 1 6 6v45c-39.08-8.52-63.4-8.52-78.16-8.52-23.4 0-54.52 8.52-77.92 8.52-14.5 0-39.08 0-77.92-8.52z" stroke="#3a414a" fill="#f2f3f5"/><use xlink:href="#b" transform="matrix(1,0,0,1,671,254) translate(0.4197530864197603 17.77777777777778)"/><path d="M1240 246a6 6 0 0 1 6-6h222a6 6 0 0 1 6 6v45c-39.08-8.52-63.4-8.52-78.16-8.52-23.4 0-54.52 8.52-77.92 8.52-14.5 0-39.08 0-77.92-8.52z" stroke="#3a414a" fill="#f2f3f5"/><path d="M1253 250.5a6 6 0 0 1 6-6h222a6 6 0 0 1 6 6v45c-39.08-8.52-63.4-8.52-78.16-8.52-23.4 0-54.52 8.52-77.92 8.52-14.5 0-39.08 0-77.92-8.52z" stroke="#3a414a" fill="#f2f3f5"/><path d="M1266 255a6 6 0 0 1 6-6h222a6 6 0 0 1 6 6v45c-39.08-8.52-63.4-8.52-78.16-8.52-23.4 0-54.52 8.52-77.92 8.52-14.5 0-39.08 0-77.92-8.52z" stroke="#3a414a" fill="#f2f3f5"/><use xlink:href="#c" transform="matrix(1,0,0,1,1271,254) translate(23.78395061728395 17.77777777777778)"/><path d="M140 429.33a6 6 0 0 1 6-6h204a6 6 0 0 1 6 6v45c-36.07-8.5-58.54-8.5-72.14-8.5-21.6 0-50.33 8.5-71.93 8.5-13.4 0-36.07 0-71.93-8.5z" stroke="#3a414a" fill="#f2f3f5"/><path d="M152 433.83a6 6 0 0 1 6-6h204a6 6 0 0 1 6 6v45c-36.07-8.5-58.54-8.5-72.14-8.5-21.6 0-50.33 8.5-71.93 8.5-13.4 0-36.07 0-71.93-8.5z" stroke="#3a414a" fill="#f2f3f5"/><path d="M164 438.33a6 6 0 0 1 6-6h204a6 6 0 0 1 6 6v45c-36.07-8.5-58.54-8.5-72.14-8.5-21.6 0-50.33 8.5-71.93 8.5-13.4 0-36.07 0-71.93-8.5z" stroke="#3a414a" fill="#f2f3f5"/><use xlink:href="#d" transform="matrix(1,0,0,1,169,437.3333333333334) translate(6.179012345679027 20.944444444444443)"/><path d="M340 637.33c0 3.32-40.3 6-90 6s-90-2.68-90-6v-48c0-3.3 40.3-6 90-6s90 2.7 90 6z" stroke="#3a414a" fill="#fff"/><path d="M340 589.33c0 3.32-40.3 6-90 6s-90-2.68-90-6" stroke="#3a414a" fill="none"/><use xlink:href="#e" transform="matrix(1,0,0,1,165,600.3333333333335) translate(9.753086419753089 22.52777777777778)"/><use xlink:href="#f" transform="matrix(1,0,0,1,165,600.3333333333335) translate(68.88888888888889 22.52777777777778)"/><path d="M145 525.97a6.2 6.2 0 0 1 6-6.2l198-6.25a5.8 5.8 0 0 1 6 5.8v28a6 6 0 0 1-6 6H151a6 6 0 0 1-6-6z" stroke="#3a414a" fill="#ffdda6"/><use xlink:href="#g" transform="matrix(1,0,0,1,150,525.0000000000001) translate(13.055555555555543 19.27777777777778)"/><use xlink:href="#h" transform="matrix(1,0,0,1,150,525.0000000000001) translate(99.41358024691357 19.27777777777778)"/><path d="M250 581.33v-6.9" stroke="#3a414a" stroke-width="3" fill="none"/><path d="M251.5 582.87l-1.5-.04h-1.5v-1.54h3z" stroke="#3a414a" stroke-width=".05" fill="#3a414a"/><path d="M250 558.65l4.64 14.27h-9.28z" stroke="#3a414a" stroke-width="3" fill="#3a414a"/><path d="M250 515.83v-12.66M250 515.8v4.53" stroke="#3a414a" stroke-width="3" fill="none"/><path d="M250 487.4l4.64 14.27h-9.28z" stroke="#3a414a" stroke-width="3" fill="#3a414a"/><path d="M568 433.33c17.67 0 32 8.96 32 20 0 11.05-14.33 20-32 20h-96c-17.67 0-32-8.95-32-20 0-11.04 14.33-20 32-20z" stroke="#3a414a" fill="#6db1ff"/><use xlink:href="#i" transform="matrix(1,0,0,1,445,438.3333333333334) translate(36.764259259259255 19.65277777777778)"/><path d="M400 276a6 6 0 0 1 6-6h168a6 6 0 0 1 6 6v51.33a6 6 0 0 1-6 6H406a6 6 0 0 1-6-6z" stroke="#3a414a" fill="#fc9432"/><path d="M418 270v63.33M562 270v63.33" stroke="#3a414a" fill="none"/><use xlink:href="#j" transform="matrix(1,0,0,1,427.5,275.00000000000006) translate(11.913580246913575 18.111111111111114)"/><use xlink:href="#k" transform="matrix(1,0,0,1,427.5,275.00000000000006) translate(29.783950617283956 44.777777777777786)"/><path d="M341.95 270.02H364a6 6 0 0 1 6 6v19.65a6 6 0 0 0 6 6h2.92" stroke="#3a414a" stroke-width="3" fill="none"/><path d="M342 271.52h-1.55v-3H342z" stroke="#3a414a" stroke-width=".05" fill="#3a414a"/><path d="M394.68 301.67l-14.26 4.63v-9.27z" stroke="#3a414a" stroke-width="3" fill="#3a414a"/><path d="M400 194.33a6 6 0 0 1 6-6h168a6 6 0 0 1 6 6v51.34a6 6 0 0 1-6 6H406a6 6 0 0 1-6-6z" stroke="#3a414a" fill="#54c45e"/><path d="M418 188.33v63.34m144-63.34v63.34" stroke="#3a414a" fill="none"/><use xlink:href="#l" transform="matrix(1,0,0,1,427.5,193.33333333333334) translate(24.87654320987655 18.111111111111114)"/><use xlink:href="#m" transform="matrix(1,0,0,1,427.5,193.33333333333334) translate(38.425925925925924 44.777777777777786)"/><path d="M341.95 270.02H364a6 6 0 0 0 6-6v-27.1a6 6 0 0 1 6-6h2.93" stroke="#3a414a" stroke-width="3" fill="none"/><path d="M342 271.52h-1.55v-3H342z" stroke="#3a414a" stroke-width=".05" fill="#3a414a"/><path d="M394.7 230.92l-14.27 4.64v-9.27z" stroke="#3a414a" stroke-width="3" fill="#3a414a"/><path d="M581.96 220h22.02a6 6 0 0 1 6 6v21.2a6 6 0 0 0 6 6h2.9" stroke="#3a414a" stroke-width="3" fill="none"/><path d="M582 221.5h-1.53v-3H582z" stroke="#3a414a" stroke-width=".05" fill="#3a414a"/><path d="M634.65 253.2l-14.27 4.63v-9.27z" stroke="#3a414a" stroke-width="3" fill="#3a414a"/><path d="M581.96 301.67h22.02a6 6 0 0 0 6-6V276a6 6 0 0 1 6-6h2.9" stroke="#3a414a" stroke-width="3" fill="none"/><path d="M582 303.17h-1.53v-3H582z" stroke="#3a414a" stroke-width=".05" fill="#3a414a"/><path d="M634.65 270l-14.27 4.64v-9.28z" stroke="#3a414a" stroke-width="3" fill="#3a414a"/><path d="M770 299.25v56.42a6 6 0 0 0 6 6h2.92" stroke="#3a414a" stroke-width="3" fill="none"/><path d="M771.5 299.3h-3v-1.34l3-.4z" stroke="#3a414a" stroke-width=".05" fill="#3a414a"/><path d="M794.68 361.67l-14.26 4.63v-9.27z" stroke="#3a414a" stroke-width="3" fill="#3a414a"/><path d="M800 336a6 6 0 0 1 6-6h170a6 6 0 0 1 6 6v51.33a6 6 0 0 1-6 6H806a6 6 0 0 1-6-6z" stroke="#3a414a" fill="#6db1ff"/><path d="M818.2 330v63.33M963.8 330v63.33" stroke="#3a414a" fill="none"/><use xlink:href="#n" transform="matrix(1,0,0,1,827.7486762732792,335.00000000000006) translate(7.358024691358025 18.111111111111114)"/><use xlink:href="#o" transform="matrix(1,0,0,1,827.7486762732792,335.00000000000006) translate(82.60493827160494 18.111111111111114)"/><use xlink:href="#p" transform="matrix(1,0,0,1,827.7486762732792,335.00000000000006) translate(23.499999999999993 44.777777777777786)"/><path d="M800 146a6 6 0 0 1 6-6h170a6 6 0 0 1 6 6v51.33a6 6 0 0 1-6 6H806a6 6 0 0 1-6-6z" stroke="#3a414a" fill="#6db1ff"/><path d="M818.2 140v63.33M963.8 140v63.33" stroke="#3a414a" fill="none"/><use xlink:href="#n" transform="matrix(1,0,0,1,827.7486762732792,145) translate(7.358024691358025 18.111111111111114)"/><use xlink:href="#o" transform="matrix(1,0,0,1,827.7486762732792,145) translate(82.60493827160494 18.111111111111114)"/><use xlink:href="#p" transform="matrix(1,0,0,1,827.7486762732792,145) translate(23.499999999999993 44.777777777777786)"/><path d="M1000 202.67a6 6 0 0 1 6-6h168a6 6 0 0 1 6 6V254a6 6 0 0 1-6 6h-168a6 6 0 0 1-6-6z" stroke="#3a414a" fill="#54c45e"/><path d="M1018 196.67V260m144-63.33V260" stroke="#3a414a" fill="none"/><use xlink:href="#l" transform="matrix(1,0,0,1,1027.5,201.66666666666669) translate(24.87654320987655 18.111111111111114)"/><use xlink:href="#m" transform="matrix(1,0,0,1,1027.5,201.66666666666669) translate(38.425925925925924 44.777777777777786)"/><path d="M1000 272.67a6 6 0 0 1 6-6h168a6 6 0 0 1 6 6V324a6 6 0 0 1-6 6h-168a6 6 0 0 1-6-6z" stroke="#3a414a" fill="#fc9432"/><path d="M1018 266.67V330m144-63.33V330" stroke="#3a414a" fill="none"/><use xlink:href="#q" transform="matrix(1,0,0,1,1027.5,271.66666666666674) translate(21.265432098765437 31.444444444444443)"/><path d="M983.95 171.67h102.13a3.92 3.92 0 0 1 3.92 3.9" stroke="#3a414a" stroke-width="3" fill="none"/><path d="M984 173.17h-1.54v-3h1.53z" stroke="#3a414a" stroke-width=".05" fill="#3a414a"/><path d="M1090 191.35l-4.64-14.27h9.28z" stroke="#3a414a" stroke-width="3" fill="#3a414a"/><path d="M983.95 361.67H1084a6 6 0 0 0 6-6v-4.6" stroke="#3a414a" stroke-width="3" fill="none"/><path d="M984 363.17h-1.54v-3h1.53z" stroke="#3a414a" stroke-width=".05" fill="#3a414a"/><path d="M1090 335.32l4.64 14.26h-9.28z" stroke="#3a414a" stroke-width="3" fill="#3a414a"/><path d="M770 238.03v-60.36a6 6 0 0 1 6-6h2.92" stroke="#3a414a" stroke-width="3" fill="none"/><path d="M771.5 239.53h-3V238h3z" stroke="#3a414a" stroke-width=".05" fill="#3a414a"/><path d="M794.68 171.67l-14.26 4.63v-9.27z" stroke="#3a414a" stroke-width="3" fill="#3a414a"/><path d="M901.95 270H944a6 6 0 0 0 6-6v-29.67a6 6 0 0 1 6-6h22.92" stroke="#3a414a" stroke-width="3" fill="none"/><path d="M902 271.5h-1.55v-3H902z" stroke="#3a414a" stroke-width=".05" fill="#3a414a"/><path d="M994.68 228.33l-14.26 4.64v-9.27z" stroke="#3a414a" stroke-width="3" fill="#3a414a"/><path d="M901.95 270.02H944a6 6 0 0 1 6 6v16.3a6 6 0 0 0 6 6h22.92" stroke="#3a414a" stroke-width="3" fill="none"/><path d="M902 271.52h-1.55v-3H902z" stroke="#3a414a" stroke-width=".05" fill="#3a414a"/><path d="M994.68 298.33l-14.26 4.64v-9.27z" stroke="#3a414a" stroke-width="3" fill="#3a414a"/><path d="M1181.96 228.33h22.02a6 6 0 0 1 6 6v15.74a6 6 0 0 0 6 6h2.9" stroke="#3a414a" stroke-width="3" fill="none"/><path d="M1182 229.83h-1.53v-3h1.53z" stroke="#3a414a" stroke-width=".05" fill="#3a414a"/><path d="M1234.65 256.07l-14.27 4.64v-9.26z" stroke="#3a414a" stroke-width="3" fill="#3a414a"/><path d="M1181.96 298.33h22.02a6 6 0 0 0 6-6V276a6 6 0 0 1 6-6h2.9" stroke="#3a414a" stroke-width="3" fill="none"/><path d="M1182 299.83h-1.53v-3h1.53z" stroke="#3a414a" stroke-width=".05" fill="#3a414a"/><path d="M1234.65 270l-14.27 4.64v-9.28z" stroke="#3a414a" stroke-width="3" fill="#3a414a"/><path d="M381.95 453.35h36.93" stroke="#3a414a" stroke-width="3" fill="none"/><path d="M382 454.85h-1.55v-3H382z" stroke="#3a414a" stroke-width=".05" fill="#3a414a"/><path d="M434.65 453.35L420.38 458v-9.28z" stroke="#3a414a" stroke-width="3" fill="#3a414a"/><path d="M680 442.66a6 6 0 0 1 6-6h294a6 6 0 0 1 6 6v36.5c-51.1-7.1-82.93-7.1-102.2-7.1-30.6 0-71.3 7.1-101.9 7.1-18.97 0-51.1 0-101.9-7.1z" stroke="#3a414a" fill="#f2f3f5"/><path d="M697 446.4a6 6 0 0 1 6-6h294a6 6 0 0 1 6 6v36.5c-51.1-7.1-82.93-7.1-102.2-7.1-30.6 0-71.3 7.1-101.9 7.1-18.97 0-51.1 0-101.9-7.1z" stroke="#3a414a" fill="#f2f3f5"/><path d="M714 450.16a6 6 0 0 1 6-6h294a6 6 0 0 1 6 6v36.5c-51.1-7.1-82.93-7.1-102.2-7.1-30.6 0-71.3 7.1-101.9 7.1-18.97 0-51.1 0-101.9-7.1z" stroke="#3a414a" fill="#f2f3f5"/><use xlink:href="#r" transform="matrix(1,0,0,1,719,449.15649662354576) translate(27.783950617283992 17.77777777777778)"/><path d="M457.8 519.13a7.8 7.8 0 0 1 7.53-5.8h92a4.6 4.6 0 0 1 4.46 5.8l-12.92 48.4a7.8 7.8 0 0 1-7.55 5.8h-92a4.6 4.6 0 0 1-4.45-5.8z" stroke="#3a414a" fill="#fff"/><use xlink:href="#s" transform="matrix(1,0,0,1,448.33316441675447,518.3333333333335) translate(19.264259259259255 17.77777777777778)"/><use xlink:href="#t" transform="matrix(1,0,0,1,448.33316441675447,518.3333333333335) translate(21.554382716049382 44.44444444444444)"/><path d="M520 475.33v16.9" stroke="#3a414a" stroke-width="3" fill="none"/><path d="M521.5 475.37h-3v-1.54h3z" stroke="#3a414a" stroke-width=".05" fill="#3a414a"/><path d="M520 508l-4.64-14.26h9.28z" stroke="#3a414a" stroke-width="3" fill="#3a414a"/><path d="M557.3 543.33H844a6 6 0 0 0 6-6V505.6" stroke="#3a414a" stroke-width="3" fill="none"/><path d="M557.35 544.83h-1.94l.8-3h1.15z" stroke="#3a414a" stroke-width=".05" fill="#3a414a"/><path d="M850 489.83l4.64 14.26h-9.28z" stroke="#3a414a" stroke-width="3" fill="#3a414a"/><path d="M140 132.67a6 6 0 0 1 6-6h311.33a6 6 0 0 1 6 6v78a6 6 0 0 1-6 6H146a6 6 0 0 1-6-6z" stroke="#000" stroke-opacity="0" fill="#fff" fill-opacity="0"/><g><use xlink:href="#u" transform="matrix(1,0,0,1,145,131.66666666666669) translate(0 26.666666666666657)"/><use xlink:href="#v" transform="matrix(1,0,0,1,145,131.66666666666669) translate(37.037037037037024 26.666666666666657)"/><use xlink:href="#w" transform="matrix(1,0,0,1,145,131.66666666666669) translate(118.33333333333329 26.666666666666657)"/><use xlink:href="#x" transform="matrix(1,0,0,1,145,131.66666666666669) translate(0 66.66666666666664)"/></g><path d="M1220 342a12 12 0 0 1 12-12h349.14a12 12 0 0 1 12 12v181.33a12 12 0 0 1-12 12H1232a12 12 0 0 1-12-12z" stroke="#dfe3e8" stroke-width="2" fill="#fff"/><path d="M1276 416.93c0 6.63-5.37 12-12 12s-12-5.37-12-12c0-6.62 5.37-12 12-12s12 5.38 12 12z" stroke="#000" stroke-opacity=".25" fill="#54c45e"/><path d="M1276 455.07c0 6.62-5.37 12-12 12s-12-5.38-12-12c0-6.63 5.37-12 12-12s12 5.37 12 12z" stroke="#000" stroke-opacity=".25" fill="#fc9432"/><path d="M1276 493.2c0 6.63-5.37 12-12 12s-12-5.37-12-12 5.37-12 12-12 12 5.37 12 12z" stroke="#000" stroke-opacity=".25" fill="#6db1ff"/><g><use xlink:href="#y" transform="matrix(1,0,0,1,1252,354.00000000000006) translate(0 23.322222222222223)"/></g><g><use xlink:href="#z" transform="matrix(1,0,0,1,1284,404.9333333333334) translate(0 20.522222222222222)"/></g><g><use xlink:href="#A" transform="matrix(1,0,0,1,1284,443.0666666666667) translate(0 20.522222222222222)"/></g><g><use xlink:href="#B" transform="matrix(1,0,0,1,1284,481.20000000000005) translate(0 20.522222222222222)"/></g><defs><path fill="#3a414a" d="M114-163C36-179 61-72 57 0H25l-1-190h30c1 12-1 29 2 39 6-27 23-49 58-41v29" id="C"/><path fill="#3a414a" d="M141-36C126-15 110 5 73 4 37 3 15-17 15-53c-1-64 63-63 125-63 3-35-9-54-41-54-24 1-41 7-42 31l-33-3c5-37 33-52 76-52 45 0 72 20 72 64v82c-1 20 7 32 28 27v20c-31 9-61-2-59-35zM48-53c0 20 12 33 32 33 41-3 63-29 60-74-43 2-92-5-92 41" id="D"/><path fill="#3a414a" d="M206 0h-36l-40-164L89 0H53L-1-190h32L70-26l43-164h34l41 164 42-164h31" id="E"/><path fill="#3a414a" d="M-5 72V49h209v23H-5" id="F"/><path fill="#3a414a" d="M100-194c63 0 86 42 84 106H49c0 40 14 67 53 68 26 1 43-12 49-29l28 8c-11 28-37 45-77 45C44 4 14-33 15-96c1-61 26-98 85-98zm52 81c6-60-76-77-97-28-3 7-6 17-6 28h103" id="G"/><path fill="#3a414a" d="M85-194c31 0 48 13 60 33l-1-100h32l1 261h-30c-2-10 0-23-3-31C134-8 116 4 85 4 32 4 16-35 15-94c0-66 23-100 70-100zm9 24c-40 0-46 34-46 75 0 40 6 74 45 74 42 0 51-32 51-76 0-42-9-74-50-73" id="H"/><path fill="#3a414a" d="M135-143c-3-34-86-38-87 0 15 53 115 12 119 90S17 21 10-45l28-5c4 36 97 45 98 0-10-56-113-15-118-90-4-57 82-63 122-42 12 7 21 19 24 35" id="I"/><path fill="#3a414a" d="M33 0v-38h34V0H33" id="J"/><path fill="#3a414a" d="M101-234c-31-9-42 10-38 44h38v23H63V0H32v-167H5v-23h27c-7-52 17-82 69-68v24" id="K"/><path fill="#3a414a" d="M145-31C134-9 116 4 85 4 32 4 16-35 15-94c0-59 17-99 70-100 32-1 48 14 60 33 0-11-1-24 2-32h30l-1 268h-32zM93-21c41 0 51-33 51-76s-8-73-50-73c-40 0-46 35-46 75s5 74 45 74" id="L"/><path fill="#3a414a" d="M177-190C167-65 218 103 67 71c-23-6-38-20-44-43l32-5c15 47 100 32 89-28v-30C133-14 115 1 83 1 29 1 15-40 15-95c0-56 16-97 71-98 29-1 48 16 59 35 1-10 0-23 2-32h30zM94-22c36 0 50-32 50-73 0-42-14-75-50-75-39 0-46 34-46 75s6 73 46 73" id="M"/><path fill="#3a414a" d="M9 0v-24l116-142H16v-24h144v24L44-24h123V0H9" id="N"/><g id="a"><use transform="matrix(0.06172839506172839,0,0,0.06172839506172839,0,0)" xlink:href="#C"/><use transform="matrix(0.06172839506172839,0,0,0.06172839506172839,7.345679012345679,0)" xlink:href="#D"/><use transform="matrix(0.06172839506172839,0,0,0.06172839506172839,19.691358024691358,0)" xlink:href="#E"/><use transform="matrix(0.06172839506172839,0,0,0.06172839506172839,35.67901234567901,0)" xlink:href="#F"/><use transform="matrix(0.06172839506172839,0,0,0.06172839506172839,48.02469135802469,0)" xlink:href="#C"/><use transform="matrix(0.06172839506172839,0,0,0.06172839506172839,55.37037037037037,0)" xlink:href="#G"/><use transform="matrix(0.06172839506172839,0,0,0.06172839506172839,67.71604938271605,0)" xlink:href="#D"/><use transform="matrix(0.06172839506172839,0,0,0.06172839506172839,80.06172839506173,0)" xlink:href="#H"/><use transform="matrix(0.06172839506172839,0,0,0.06172839506172839,92.40740740740742,0)" xlink:href="#I"/><use transform="matrix(0.06172839506172839,0,0,0.06172839506172839,103.51851851851853,0)" xlink:href="#J"/><use transform="matrix(0.06172839506172839,0,0,0.06172839506172839,109.69135802469137,0)" xlink:href="#K"/><use transform="matrix(0.06172839506172839,0,0,0.06172839506172839,115.8641975308642,0)" xlink:href="#L"/><use transform="matrix(0.06172839506172839,0,0,0.06172839506172839,128.20987654320987,0)" xlink:href="#J"/><use transform="matrix(0.06172839506172839,0,0,0.06172839506172839,134.3827160493827,0)" xlink:href="#M"/><use transform="matrix(0.06172839506172839,0,0,0.06172839506172839,146.72839506172838,0)" xlink:href="#N"/></g><path fill="#3a414a" d="M59-47c-2 24 18 29 38 22v24C64 9 27 4 27-40v-127H5v-23h24l9-43h21v43h35v23H59v120" id="O"/><path fill="#3a414a" d="M24-231v-30h32v30H24zM24 0v-190h32V0H24" id="P"/><path fill="#3a414a" d="M210-169c-67 3-38 105-44 169h-31v-121c0-29-5-50-35-48C34-165 62-65 56 0H25l-1-190h30c1 10-1 24 2 32 10-44 99-50 107 0 11-21 27-35 58-36 85-2 47 119 55 194h-31v-121c0-29-5-49-35-48" id="Q"/><g id="b"><use transform="matrix(0.06172839506172839,0,0,0.06172839506172839,0,0)" xlink:href="#O"/><use transform="matrix(0.06172839506172839,0,0,0.06172839506172839,6.172839506172839,0)" xlink:href="#C"/><use transform="matrix(0.06172839506172839,0,0,0.06172839506172839,13.518518518518519,0)" xlink:href="#P"/><use transform="matrix(0.06172839506172839,0,0,0.06172839506172839,18.395061728395063,0)" xlink:href="#Q"/><use transform="matrix(0.06172839506172839,0,0,0.06172839506172839,36.85185185185185,0)" xlink:href="#Q"/><use transform="matrix(0.06172839506172839,0,0,0.06172839506172839,55.30864197530863,0)" xlink:href="#G"/><use transform="matrix(0.06172839506172839,0,0,0.06172839506172839,67.65432098765432,0)" xlink:href="#H"/><use transform="matrix(0.06172839506172839,0,0,0.06172839506172839,80,0)" xlink:href="#F"/><use transform="matrix(0.06172839506172839,0,0,0.06172839506172839,92.34567901234568,0)" xlink:href="#C"/><use transform="matrix(0.06172839506172839,0,0,0.06172839506172839,99.69135802469137,0)" xlink:href="#G"/><use transform="matrix(0.06172839506172839,0,0,0.06172839506172839,112.03703703703705,0)" xlink:href="#D"/><use transform="matrix(0.06172839506172839,0,0,0.06172839506172839,124.38271604938274,0)" xlink:href="#H"/><use transform="matrix(0.06172839506172839,0,0,0.06172839506172839,136.7283950617284,0)" xlink:href="#I"/><use transform="matrix(0.06172839506172839,0,0,0.06172839506172839,147.83950617283952,0)" xlink:href="#J"/><use transform="matrix(0.06172839506172839,0,0,0.06172839506172839,154.01234567901236,0)" xlink:href="#K"/><use transform="matrix(0.06172839506172839,0,0,0.06172839506172839,160.1851851851852,0)" xlink:href="#L"/><use transform="matrix(0.06172839506172839,0,0,0.06172839506172839,172.53086419753086,0)" xlink:href="#J"/><use transform="matrix(0.06172839506172839,0,0,0.06172839506172839,178.7037037037037,0)" xlink:href="#M"/><use transform="matrix(0.06172839506172839,0,0,0.06172839506172839,191.04938271604937,0)" xlink:href="#N"/></g><path fill="#3a414a" d="M140-251c81 0 123 46 123 126C263-53 228-8 163 1c7 30 30 48 69 40v23c-55 16-95-15-103-61C56-3 17-48 17-125c0-80 42-126 123-126zm0 227c63 0 89-41 89-101s-29-99-89-99c-61 0-89 39-89 99S79-25 140-24" id="R"/><path fill="#3a414a" d="M212-179c-10-28-35-45-73-45-59 0-87 40-87 99 0 60 29 101 89 101 43 0 62-24 78-52l27 14C228-24 195 4 139 4 59 4 22-46 18-125c-6-104 99-153 187-111 19 9 31 26 39 46" id="S"/><g id="c"><use transform="matrix(0.06172839506172839,0,0,0.06172839506172839,0,0)" xlink:href="#R"/><use transform="matrix(0.06172839506172839,0,0,0.06172839506172839,17.28395061728395,0)" xlink:href="#S"/><use transform="matrix(0.06172839506172839,0,0,0.06172839506172839,33.2716049382716,0)" xlink:href="#F"/><use transform="matrix(0.06172839506172839,0,0,0.06172839506172839,45.61728395061728,0)" xlink:href="#C"/><use transform="matrix(0.06172839506172839,0,0,0.06172839506172839,52.962962962962955,0)" xlink:href="#G"/><use transform="matrix(0.06172839506172839,0,0,0.06172839506172839,65.30864197530863,0)" xlink:href="#D"/><use transform="matrix(0.06172839506172839,0,0,0.06172839506172839,77.65432098765432,0)" xlink:href="#H"/><use transform="matrix(0.06172839506172839,0,0,0.06172839506172839,90,0)" xlink:href="#I"/><use transform="matrix(0.06172839506172839,0,0,0.06172839506172839,101.11111111111111,0)" xlink:href="#J"/><use transform="matrix(0.06172839506172839,0,0,0.06172839506172839,107.28395061728395,0)" xlink:href="#K"/><use transform="matrix(0.06172839506172839,0,0,0.06172839506172839,113.45679012345678,0)" xlink:href="#L"/><use transform="matrix(0.06172839506172839,0,0,0.06172839506172839,125.80246913580247,0)" xlink:href="#J"/><use transform="matrix(0.06172839506172839,0,0,0.06172839506172839,131.97530864197532,0)" xlink:href="#M"/><use transform="matrix(0.06172839506172839,0,0,0.06172839506172839,144.320987654321,0)" xlink:href="#N"/></g><path fill="#3a414a" d="M190 0L58-211 59 0H30v-248h39L202-35l-2-213h31V0h-41" id="T"/><path fill="#3a414a" d="M160-131c35 5 61 23 61 61C221 17 115-2 30 0v-248c76 3 177-17 177 60 0 33-19 50-47 57zm-97-11c50-1 110 9 110-42 0-47-63-36-110-37v79zm0 115c55-2 124 14 124-45 0-56-70-42-124-44v89" id="U"/><path fill="#3a414a" d="M33 0v-248h34V0H33" id="V"/><path fill="#3a414a" d="M117-194c89-4 53 116 60 194h-32v-121c0-31-8-49-39-48C34-167 62-67 57 0H25l-1-190h30c1 10-1 24 2 32 11-22 29-35 61-36" id="W"/><path fill="#3a414a" d="M100-194c62-1 85 37 85 99 1 63-27 99-86 99S16-35 15-95c0-66 28-99 85-99zM99-20c44 1 53-31 53-75 0-43-8-75-51-75s-53 32-53 75 10 74 51 75" id="X"/><g id="d"><use transform="matrix(0.06172839506172839,0,0,0.06172839506172839,0,0)" xlink:href="#T"/><use transform="matrix(0.06172839506172839,0,0,0.06172839506172839,15.987654320987653,0)" xlink:href="#S"/><use transform="matrix(0.06172839506172839,0,0,0.06172839506172839,31.975308641975307,0)" xlink:href="#U"/><use transform="matrix(0.06172839506172839,0,0,0.06172839506172839,46.79012345679012,0)" xlink:href="#V"/><use transform="matrix(0.06172839506172839,0,0,0.06172839506172839,52.96296296296296,0)" xlink:href="#J"/><use transform="matrix(0.06172839506172839,0,0,0.06172839506172839,59.135802469135804,0)" xlink:href="#M"/><use transform="matrix(0.06172839506172839,0,0,0.06172839506172839,71.48148148148148,0)" xlink:href="#G"/><use transform="matrix(0.06172839506172839,0,0,0.06172839506172839,83.82716049382717,0)" xlink:href="#W"/><use transform="matrix(0.06172839506172839,0,0,0.06172839506172839,96.17283950617285,0)" xlink:href="#X"/><use transform="matrix(0.06172839506172839,0,0,0.06172839506172839,108.51851851851853,0)" xlink:href="#Q"/><use transform="matrix(0.06172839506172839,0,0,0.06172839506172839,126.97530864197533,0)" xlink:href="#G"/><use transform="matrix(0.06172839506172839,0,0,0.06172839506172839,139.320987654321,0)" xlink:href="#J"/><use transform="matrix(0.06172839506172839,0,0,0.06172839506172839,145.49382716049382,0)" xlink:href="#K"/><use transform="matrix(0.06172839506172839,0,0,0.06172839506172839,151.66666666666666,0)" xlink:href="#D"/><use transform="matrix(0.06172839506172839,0,0,0.06172839506172839,164.01234567901233,0)" xlink:href="#I"/><use transform="matrix(0.06172839506172839,0,0,0.06172839506172839,175.12345679012344,0)" xlink:href="#O"/><use transform="matrix(0.06172839506172839,0,0,0.06172839506172839,181.29629629629628,0)" xlink:href="#D"/></g><g id="e"><use transform="matrix(0.06172839506172839,0,0,0.06172839506172839,0,0)" xlink:href="#T"/><use transform="matrix(0.06172839506172839,0,0,0.06172839506172839,15.987654320987653,0)" xlink:href="#S"/><use transform="matrix(0.06172839506172839,0,0,0.06172839506172839,31.975308641975307,0)" xlink:href="#U"/><use transform="matrix(0.06172839506172839,0,0,0.06172839506172839,46.79012345679012,0)" xlink:href="#V"/></g><path fill="#3a414a" d="M115-194c53 0 69 39 70 98 0 66-23 100-70 100C84 3 66-7 56-30L54 0H23l1-261h32v101c10-23 28-34 59-34zm-8 174c40 0 45-34 45-75 0-40-5-75-45-74-42 0-51 32-51 76 0 43 10 73 51 73" id="Y"/><g id="f"><use transform="matrix(0.06172839506172839,0,0,0.06172839506172839,0,0)" xlink:href="#H"/><use transform="matrix(0.06172839506172839,0,0,0.06172839506172839,12.345679012345679,0)" xlink:href="#D"/><use transform="matrix(0.06172839506172839,0,0,0.06172839506172839,24.691358024691358,0)" xlink:href="#O"/><use transform="matrix(0.06172839506172839,0,0,0.06172839506172839,30.864197530864196,0)" xlink:href="#D"/><use transform="matrix(0.06172839506172839,0,0,0.06172839506172839,43.20987654320987,0)" xlink:href="#Y"/><use transform="matrix(0.06172839506172839,0,0,0.06172839506172839,55.55555555555555,0)" xlink:href="#D"/><use transform="matrix(0.06172839506172839,0,0,0.06172839506172839,67.90123456790123,0)" xlink:href="#I"/><use transform="matrix(0.06172839506172839,0,0,0.06172839506172839,79.01234567901234,0)" xlink:href="#G"/></g><g id="g"><use transform="matrix(0.06172839506172839,0,0,0.06172839506172839,0,0)" xlink:href="#M"/><use transform="matrix(0.06172839506172839,0,0,0.06172839506172839,12.345679012345679,0)" xlink:href="#G"/><use transform="matrix(0.06172839506172839,0,0,0.06172839506172839,24.691358024691358,0)" xlink:href="#W"/><use transform="matrix(0.06172839506172839,0,0,0.06172839506172839,37.03703703703704,0)" xlink:href="#X"/><use transform="matrix(0.06172839506172839,0,0,0.06172839506172839,49.382716049382715,0)" xlink:href="#Q"/><use transform="matrix(0.06172839506172839,0,0,0.06172839506172839,67.8395061728395,0)" xlink:href="#G"/></g><path fill="#3a414a" d="M24 0v-261h32V0H24" id="Z"/><path fill="#3a414a" d="M96-169c-40 0-48 33-48 73s9 75 48 75c24 0 41-14 43-38l32 2c-6 37-31 61-74 61-59 0-76-41-82-99-10-93 101-131 147-64 4 7 5 14 7 22l-32 3c-4-21-16-35-41-35" id="aa"/><g id="h"><use transform="matrix(0.06172839506172839,0,0,0.06172839506172839,0,0)" xlink:href="#I"/><use transform="matrix(0.06172839506172839,0,0,0.06172839506172839,11.11111111111111,0)" xlink:href="#G"/><use transform="matrix(0.06172839506172839,0,0,0.06172839506172839,23.45679012345679,0)" xlink:href="#Z"/><use transform="matrix(0.06172839506172839,0,0,0.06172839506172839,28.333333333333336,0)" xlink:href="#G"/><use transform="matrix(0.06172839506172839,0,0,0.06172839506172839,40.67901234567901,0)" xlink:href="#aa"/><use transform="matrix(0.06172839506172839,0,0,0.06172839506172839,51.79012345679013,0)" xlink:href="#O"/><use transform="matrix(0.06172839506172839,0,0,0.06172839506172839,57.96296296296297,0)" xlink:href="#P"/><use transform="matrix(0.06172839506172839,0,0,0.06172839506172839,62.83950617283951,0)" xlink:href="#X"/><use transform="matrix(0.06172839506172839,0,0,0.06172839506172839,75.18518518518519,0)" xlink:href="#W"/></g><path fill="#3a414a" d="M106-169C34-169 62-67 57 0H25v-261h32l-1 103c12-21 28-36 61-36 89 0 53 116 60 194h-32v-121c2-32-8-49-39-48" id="ab"/><path fill="#3a414a" d="M143 0L79-87 56-68V0H24v-261h32v163l83-92h37l-77 82L181 0h-38" id="ac"/><path fill="#3a414a" d="M240 0l2-218c-23 76-54 145-80 218h-23L58-218 59 0H30v-248h44l77 211c21-75 51-140 76-211h43V0h-30" id="ad"/><g id="i"><use transform="matrix(0.06172839506172839,0,0,0.06172839506172839,0,0)" xlink:href="#aa"/><use transform="matrix(0.06172839506172839,0,0,0.06172839506172839,11.11111111111111,0)" xlink:href="#ab"/><use transform="matrix(0.06172839506172839,0,0,0.06172839506172839,23.45679012345679,0)" xlink:href="#G"/><use transform="matrix(0.06172839506172839,0,0,0.06172839506172839,35.80246913580247,0)" xlink:href="#aa"/><use transform="matrix(0.06172839506172839,0,0,0.06172839506172839,46.91358024691358,0)" xlink:href="#ac"/><use transform="matrix(0.06172839506172839,0,0,0.06172839506172839,58.0246913580247,0)" xlink:href="#ad"/></g><path fill="#3a414a" d="M30-248c87 1 191-15 191 75 0 78-77 80-158 76V0H30v-248zm33 125c57 0 124 11 124-50 0-59-68-47-124-48v98" id="ae"/><path fill="#3a414a" d="M115-194c55 1 70 41 70 98S169 2 115 4C84 4 66-9 55-30l1 105H24l-1-265h31l2 30c10-21 28-34 59-34zm-8 174c40 0 45-34 45-75s-6-73-45-74c-42 0-51 32-51 76 0 43 10 73 51 73" id="af"/><path fill="#3a414a" d="M0 4l72-265h28L28 4H0" id="ag"/><g id="j"><use transform="matrix(0.06172839506172839,0,0,0.06172839506172839,0,0)" xlink:href="#ae"/><use transform="matrix(0.06172839506172839,0,0,0.06172839506172839,14.814814814814813,0)" xlink:href="#X"/><use transform="matrix(0.06172839506172839,0,0,0.06172839506172839,27.160493827160494,0)" xlink:href="#C"/><use transform="matrix(0.06172839506172839,0,0,0.06172839506172839,34.50617283950617,0)" xlink:href="#G"/><use transform="matrix(0.06172839506172839,0,0,0.06172839506172839,46.85185185185185,0)" xlink:href="#aa"/><use transform="matrix(0.06172839506172839,0,0,0.06172839506172839,57.96296296296296,0)" xlink:href="#ab"/><use transform="matrix(0.06172839506172839,0,0,0.06172839506172839,70.30864197530865,0)" xlink:href="#X"/><use transform="matrix(0.06172839506172839,0,0,0.06172839506172839,82.65432098765433,0)" xlink:href="#af"/><use transform="matrix(0.06172839506172839,0,0,0.06172839506172839,95.00000000000001,0)" xlink:href="#ag"/></g><path fill="#3a414a" d="M143 4C61 4 22-44 18-125c-5-107 100-154 193-111 17 8 29 25 37 43l-32 9c-13-25-37-40-76-40-61 0-88 39-88 99 0 61 29 100 91 101 35 0 62-11 79-27v-45h-74v-28h105v86C228-13 192 4 143 4" id="ah"/><path fill="#3a414a" d="M84 4C-5 8 30-112 23-190h32v120c0 31 7 50 39 49 72-2 45-101 50-169h31l1 190h-30c-1-10 1-25-2-33-11 22-28 36-60 37" id="ai"/><path fill="#3a414a" d="M179-190L93 31C79 59 56 82 12 73V49c39 6 53-20 64-50L1-190h34L92-34l54-156h33" id="aj"/><g id="k"><use transform="matrix(0.06172839506172839,0,0,0.06172839506172839,0,0)" xlink:href="#ah"/><use transform="matrix(0.06172839506172839,0,0,0.06172839506172839,17.28395061728395,0)" xlink:href="#ai"/><use transform="matrix(0.06172839506172839,0,0,0.06172839506172839,29.629629629629626,0)" xlink:href="#af"/><use transform="matrix(0.06172839506172839,0,0,0.06172839506172839,41.9753086419753,0)" xlink:href="#af"/><use transform="matrix(0.06172839506172839,0,0,0.06172839506172839,54.32098765432098,0)" xlink:href="#aj"/></g><path fill="#3a414a" d="M30-248c118-7 216 8 213 122C240-48 200 0 122 0H30v-248zM63-27c89 8 146-16 146-99s-60-101-146-95v194" id="ak"/><g id="l"><use transform="matrix(0.06172839506172839,0,0,0.06172839506172839,0,0)" xlink:href="#U"/><use transform="matrix(0.06172839506172839,0,0,0.06172839506172839,14.814814814814813,0)" xlink:href="#U"/><use transform="matrix(0.06172839506172839,0,0,0.06172839506172839,29.629629629629626,0)" xlink:href="#ak"/><use transform="matrix(0.06172839506172839,0,0,0.06172839506172839,45.61728395061728,0)" xlink:href="#ai"/><use transform="matrix(0.06172839506172839,0,0,0.06172839506172839,57.962962962962955,0)" xlink:href="#ac"/><use transform="matrix(0.06172839506172839,0,0,0.06172839506172839,69.07407407407406,0)" xlink:href="#ag"/></g><g id="m"><use transform="matrix(0.06172839506172839,0,0,0.06172839506172839,0,0)" xlink:href="#K"/><use transform="matrix(0.06172839506172839,0,0,0.06172839506172839,6.172839506172839,0)" xlink:href="#D"/><use transform="matrix(0.06172839506172839,0,0,0.06172839506172839,18.51851851851852,0)" xlink:href="#I"/><use transform="matrix(0.06172839506172839,0,0,0.06172839506172839,29.62962962962963,0)" xlink:href="#O"/><use transform="matrix(0.06172839506172839,0,0,0.06172839506172839,35.80246913580247,0)" xlink:href="#af"/></g><g id="n"><use transform="matrix(0.06172839506172839,0,0,0.06172839506172839,0,0)" xlink:href="#K"/><use transform="matrix(0.06172839506172839,0,0,0.06172839506172839,6.172839506172839,0)" xlink:href="#D"/><use transform="matrix(0.06172839506172839,0,0,0.06172839506172839,18.51851851851852,0)" xlink:href="#I"/><use transform="matrix(0.06172839506172839,0,0,0.06172839506172839,29.62962962962963,0)" xlink:href="#O"/><use transform="matrix(0.06172839506172839,0,0,0.06172839506172839,35.80246913580247,0)" xlink:href="#R"/><use transform="matrix(0.06172839506172839,0,0,0.06172839506172839,53.08641975308642,0)" xlink:href="#S"/></g><g id="o"><use transform="matrix(0.06172839506172839,0,0,0.06172839506172839,0,0)" xlink:href="#D"/><use transform="matrix(0.06172839506172839,0,0,0.06172839506172839,12.345679012345679,0)" xlink:href="#W"/><use transform="matrix(0.06172839506172839,0,0,0.06172839506172839,24.691358024691358,0)" xlink:href="#H"/></g><g id="p"><use transform="matrix(0.06172839506172839,0,0,0.06172839506172839,0,0)" xlink:href="#ad"/><use transform="matrix(0.06172839506172839,0,0,0.06172839506172839,18.456790123456788,0)" xlink:href="#ai"/><use transform="matrix(0.06172839506172839,0,0,0.06172839506172839,30.80246913580247,0)" xlink:href="#Z"/><use transform="matrix(0.06172839506172839,0,0,0.06172839506172839,35.67901234567901,0)" xlink:href="#O"/><use transform="matrix(0.06172839506172839,0,0,0.06172839506172839,41.851851851851855,0)" xlink:href="#P"/><use transform="matrix(0.06172839506172839,0,0,0.06172839506172839,46.7283950617284,0)" xlink:href="#R"/><use transform="matrix(0.06172839506172839,0,0,0.06172839506172839,64.01234567901236,0)" xlink:href="#S"/></g><path fill="#3a414a" d="M63-220v92h138v28H63V0H30v-248h175v28H63" id="al"/><g id="q"><use transform="matrix(0.06172839506172839,0,0,0.06172839506172839,0,0)" xlink:href="#T"/><use transform="matrix(0.06172839506172839,0,0,0.06172839506172839,15.987654320987653,0)" xlink:href="#D"/><use transform="matrix(0.06172839506172839,0,0,0.06172839506172839,28.333333333333332,0)" xlink:href="#W"/><use transform="matrix(0.06172839506172839,0,0,0.06172839506172839,40.67901234567901,0)" xlink:href="#X"/><use transform="matrix(0.06172839506172839,0,0,0.06172839506172839,53.02469135802469,0)" xlink:href="#al"/><use transform="matrix(0.06172839506172839,0,0,0.06172839506172839,66.5432098765432,0)" xlink:href="#P"/><use transform="matrix(0.06172839506172839,0,0,0.06172839506172839,71.41975308641975,0)" xlink:href="#Z"/><use transform="matrix(0.06172839506172839,0,0,0.06172839506172839,76.29629629629629,0)" xlink:href="#O"/></g><g id="r"><use transform="matrix(0.06172839506172839,0,0,0.06172839506172839,0,0)" xlink:href="#K"/><use transform="matrix(0.06172839506172839,0,0,0.06172839506172839,6.172839506172839,0)" xlink:href="#P"/><use transform="matrix(0.06172839506172839,0,0,0.06172839506172839,11.049382716049383,0)" xlink:href="#W"/><use transform="matrix(0.06172839506172839,0,0,0.06172839506172839,23.395061728395063,0)" xlink:href="#D"/><use transform="matrix(0.06172839506172839,0,0,0.06172839506172839,35.74074074074074,0)" xlink:href="#Z"/><use transform="matrix(0.06172839506172839,0,0,0.06172839506172839,40.617283950617285,0)" xlink:href="#J"/><use transform="matrix(0.06172839506172839,0,0,0.06172839506172839,46.79012345679013,0)" xlink:href="#T"/><use transform="matrix(0.06172839506172839,0,0,0.06172839506172839,62.77777777777778,0)" xlink:href="#S"/><use transform="matrix(0.06172839506172839,0,0,0.06172839506172839,78.76543209876543,0)" xlink:href="#U"/><use transform="matrix(0.06172839506172839,0,0,0.06172839506172839,93.58024691358024,0)" xlink:href="#V"/><use transform="matrix(0.06172839506172839,0,0,0.06172839506172839,99.75308641975307,0)" xlink:href="#J"/><use transform="matrix(0.06172839506172839,0,0,0.06172839506172839,105.92592592592591,0)" xlink:href="#M"/><use transform="matrix(0.06172839506172839,0,0,0.06172839506172839,118.2716049382716,0)" xlink:href="#G"/><use transform="matrix(0.06172839506172839,0,0,0.06172839506172839,130.61728395061726,0)" xlink:href="#W"/><use transform="matrix(0.06172839506172839,0,0,0.06172839506172839,142.96296296296293,0)" xlink:href="#X"/><use transform="matrix(0.06172839506172839,0,0,0.06172839506172839,155.3086419753086,0)" xlink:href="#Q"/><use transform="matrix(0.06172839506172839,0,0,0.06172839506172839,173.7654320987654,0)" xlink:href="#G"/><use transform="matrix(0.06172839506172839,0,0,0.06172839506172839,186.11111111111106,0)" xlink:href="#J"/><use transform="matrix(0.06172839506172839,0,0,0.06172839506172839,192.2839506172839,0)" xlink:href="#K"/><use transform="matrix(0.06172839506172839,0,0,0.06172839506172839,198.45679012345673,0)" xlink:href="#D"/><use transform="matrix(0.06172839506172839,0,0,0.06172839506172839,210.8024691358024,0)" xlink:href="#I"/><use transform="matrix(0.06172839506172839,0,0,0.06172839506172839,221.9135802469135,0)" xlink:href="#O"/><use transform="matrix(0.06172839506172839,0,0,0.06172839506172839,228.08641975308635,0)" xlink:href="#D"/></g><g id="s"><use transform="matrix(0.06172839506172839,0,0,0.06172839506172839,0,0)" xlink:href="#aa"/><use transform="matrix(0.06172839506172839,0,0,0.06172839506172839,11.11111111111111,0)" xlink:href="#ab"/><use transform="matrix(0.06172839506172839,0,0,0.06172839506172839,23.45679012345679,0)" xlink:href="#G"/><use transform="matrix(0.06172839506172839,0,0,0.06172839506172839,35.80246913580247,0)" xlink:href="#aa"/><use transform="matrix(0.06172839506172839,0,0,0.06172839506172839,46.91358024691358,0)" xlink:href="#ac"/><use transform="matrix(0.06172839506172839,0,0,0.06172839506172839,58.0246913580247,0)" xlink:href="#ad"/></g><g id="t"><use transform="matrix(0.06172839506172839,0,0,0.06172839506172839,0,0)" xlink:href="#C"/><use transform="matrix(0.06172839506172839,0,0,0.06172839506172839,7.345679012345679,0)" xlink:href="#G"/><use transform="matrix(0.06172839506172839,0,0,0.06172839506172839,19.691358024691358,0)" xlink:href="#af"/><use transform="matrix(0.06172839506172839,0,0,0.06172839506172839,32.03703703703704,0)" xlink:href="#X"/><use transform="matrix(0.06172839506172839,0,0,0.06172839506172839,44.382716049382715,0)" xlink:href="#C"/><use transform="matrix(0.06172839506172839,0,0,0.06172839506172839,51.72839506172839,0)" xlink:href="#O"/></g><path fill="#3a414a" d="M23 0v-37h61v-169l-59 37v-38l62-41h46v211h57V0H23" id="am"/><path fill="#3a414a" d="M24 0v-54h51V0H24" id="an"/><g id="u"><use transform="matrix(0.09259259259259256,0,0,0.09259259259259256,0,0)" xlink:href="#am"/><use transform="matrix(0.09259259259259256,0,0,0.09259259259259256,18.518518518518512,0)" xlink:href="#an"/></g><path fill="#3a414a" d="M24-248c120-7 223 5 221 122C244-46 201 0 124 0H24v-248zM76-40c74 7 117-18 117-86 0-67-45-88-117-82v168" id="ao"/><path fill="#3a414a" d="M133-34C117-15 103 5 69 4 32 3 11-16 11-54c-1-60 55-63 116-61 1-26-3-47-28-47-18 1-26 9-28 27l-52-2c7-38 36-58 82-57s74 22 75 68l1 82c-1 14 12 18 25 15v27c-30 8-71 5-69-32zm-48 3c29 0 43-24 42-57-32 0-66-3-65 30 0 17 8 27 23 27" id="ap"/><path fill="#3a414a" d="M115-3C79 11 28 4 28-45v-112H4v-33h27l15-45h31v45h36v33H77v99c-1 23 16 31 38 25v30" id="aq"/><g id="v"><use transform="matrix(0.09259259259259256,0,0,0.09259259259259256,0,0)" xlink:href="#ao"/><use transform="matrix(0.09259259259259256,0,0,0.09259259259259256,23.981481481481474,0)" xlink:href="#ap"/><use transform="matrix(0.09259259259259256,0,0,0.09259259259259256,42.499999999999986,0)" xlink:href="#aq"/><use transform="matrix(0.09259259259259256,0,0,0.09259259259259256,53.51851851851851,0)" xlink:href="#ap"/></g><path fill="#3a414a" d="M140-251c80 0 125 45 125 126 0 70-33 111-92 124 6 28 34 38 68 31l-1 36C177 83 129 55 120 2 51-6 15-50 15-125c0-81 44-126 125-126zm-1 214c52 0 73-35 73-88 0-50-21-86-72-86-52 0-73 35-73 86s22 88 72 88" id="ar"/><path fill="#3a414a" d="M85 4C-2 5 27-109 22-190h50c7 57-23 150 33 157 60-5 35-97 40-157h50l1 190h-47c-2-12 1-28-3-38-12 25-28 42-61 42" id="as"/><path fill="#3a414a" d="M25 0v-261h50V0H25" id="at"/><path fill="#3a414a" d="M25-224v-37h50v37H25zM25 0v-190h50V0H25" id="au"/><path fill="#3a414a" d="M123 10C108 53 80 86 19 72V37c35 8 53-11 59-39L3-190h52l48 148c12-52 28-100 44-148h51" id="av"/><g id="w"><use transform="matrix(0.09259259259259256,0,0,0.09259259259259256,0,0)" xlink:href="#ar"/><use transform="matrix(0.09259259259259256,0,0,0.09259259259259256,25.925925925925917,0)" xlink:href="#as"/><use transform="matrix(0.09259259259259256,0,0,0.09259259259259256,46.20370370370369,0)" xlink:href="#ap"/><use transform="matrix(0.09259259259259256,0,0,0.09259259259259256,64.7222222222222,0)" xlink:href="#at"/><use transform="matrix(0.09259259259259256,0,0,0.09259259259259256,73.98148148148145,0)" xlink:href="#au"/><use transform="matrix(0.09259259259259256,0,0,0.09259259259259256,83.2407407407407,0)" xlink:href="#aq"/><use transform="matrix(0.09259259259259256,0,0,0.09259259259259256,94.25925925925922,0)" xlink:href="#av"/></g><path fill="#3a414a" d="M67-125c0 53 21 87 73 88 37 1 54-22 65-47l45 17C233-25 199 4 140 4 58 4 20-42 15-125 8-235 124-281 211-232c18 10 29 29 36 50l-46 12c-8-25-30-41-62-41-52 0-71 34-72 86" id="aw"/><path fill="#3a414a" d="M110-194c64 0 96 36 96 99 0 64-35 99-97 99-61 0-95-36-95-99 0-62 34-99 96-99zm-1 164c35 0 45-28 45-65 0-40-10-65-43-65-34 0-45 26-45 65 0 36 10 65 43 65" id="ax"/><path fill="#3a414a" d="M135-194c87-1 58 113 63 194h-50c-7-57 23-157-34-157-59 0-34 97-39 157H25l-1-190h47c2 12-1 28 3 38 12-26 28-41 61-42" id="ay"/><path fill="#3a414a" d="M135-150c-39-12-60 13-60 57V0H25l-1-190h47c2 13-1 29 3 40 6-28 27-53 61-41v41" id="az"/><g id="x"><use transform="matrix(0.09259259259259256,0,0,0.09259259259259256,0,0)" xlink:href="#aw"/><use transform="matrix(0.09259259259259256,0,0,0.09259259259259256,23.981481481481474,0)" xlink:href="#ax"/><use transform="matrix(0.09259259259259256,0,0,0.09259259259259256,44.259259259259245,0)" xlink:href="#ay"/><use transform="matrix(0.09259259259259256,0,0,0.09259259259259256,64.53703703703701,0)" xlink:href="#aq"/><use transform="matrix(0.09259259259259256,0,0,0.09259259259259256,75.55555555555553,0)" xlink:href="#az"/><use transform="matrix(0.09259259259259256,0,0,0.09259259259259256,88.51851851851849,0)" xlink:href="#ax"/><use transform="matrix(0.09259259259259256,0,0,0.09259259259259256,108.79629629629626,0)" xlink:href="#at"/></g><path d="M169-182c-1-43-94-46-97-3 18 66 151 10 154 114 3 95-165 93-204 36-6-8-10-19-12-30l50-8c3 46 112 56 116 5-17-69-150-10-154-114-4-87 153-88 188-35 5 8 8 18 10 28" id="aA"/><path d="M110-194c64 0 96 36 96 99 0 64-35 99-97 99-61 0-95-36-95-99 0-62 34-99 96-99zm-1 164c35 0 45-28 45-65 0-40-10-65-43-65-34 0-45 26-45 65 0 36 10 65 43 65" id="aB"/><path d="M121-226c-27-7-43 5-38 36h38v33H83V0H34v-157H6v-33h28c-9-59 32-81 87-68v32" id="aC"/><path d="M115-3C79 11 28 4 28-45v-112H4v-33h27l15-45h31v45h36v33H77v99c-1 23 16 31 38 25v30" id="aD"/><path d="M231 0h-52l-39-155L100 0H48L-1-190h46L77-45c9-52 24-97 36-145h53l37 145 32-145h46" id="aE"/><path d="M133-34C117-15 103 5 69 4 32 3 11-16 11-54c-1-60 55-63 116-61 1-26-3-47-28-47-18 1-26 9-28 27l-52-2c7-38 36-58 82-57s74 22 75 68l1 82c-1 14 12 18 25 15v27c-30 8-71 5-69-32zm-48 3c29 0 43-24 42-57-32 0-66-3-65 30 0 17 8 27 23 27" id="aF"/><path d="M135-150c-39-12-60 13-60 57V0H25l-1-190h47c2 13-1 29 3 40 6-28 27-53 61-41v41" id="aG"/><path d="M185-48c-13 30-37 53-82 52C43 2 14-33 14-96s30-98 90-98c62 0 83 45 84 108H66c0 31 8 55 39 56 18 0 30-7 34-22zm-45-69c5-46-57-63-70-21-2 6-4 13-4 21h74" id="aH"/><g id="y"><use transform="matrix(0.08086419753086417,0,0,0.08086419753086417,0,0)" xlink:href="#aA"/><use transform="matrix(0.08086419753086417,0,0,0.08086419753086417,19.4074074074074,0)" xlink:href="#aB"/><use transform="matrix(0.08086419753086417,0,0,0.08086419753086417,37.11666666666665,0)" xlink:href="#aC"/><use transform="matrix(0.08086419753086417,0,0,0.08086419753086417,46.73950617283949,0)" xlink:href="#aD"/><use transform="matrix(0.08086419753086417,0,0,0.08086419753086417,56.36234567901233,0)" xlink:href="#aE"/><use transform="matrix(0.08086419753086417,0,0,0.08086419753086417,79.0043209876543,0)" xlink:href="#aF"/><use transform="matrix(0.08086419753086417,0,0,0.08086419753086417,95.17716049382713,0)" xlink:href="#aG"/><use transform="matrix(0.08086419753086417,0,0,0.08086419753086417,106.49814814814812,0)" xlink:href="#aH"/></g><path d="M33 0v-248h34V0H33" id="aI"/><path d="M24 0v-261h32V0H24" id="aJ"/><path d="M84 4C-5 8 30-112 23-190h32v120c0 31 7 50 39 49 72-2 45-101 50-169h31l1 190h-30c-1-10 1-25-2-33-11 22-28 36-60 37" id="aK"/><path d="M210-169c-67 3-38 105-44 169h-31v-121c0-29-5-50-35-48C34-165 62-65 56 0H25l-1-190h30c1 10-1 24 2 32 10-44 99-50 107 0 11-21 27-35 58-36 85-2 47 119 55 194h-31v-121c0-29-5-49-35-48" id="aL"/><path d="M24-231v-30h32v30H24zM24 0v-190h32V0H24" id="aM"/><path d="M117-194c89-4 53 116 60 194h-32v-121c0-31-8-49-39-48C34-167 62-67 57 0H25l-1-190h30c1 10-1 24 2 32 11-22 29-35 61-36" id="aN"/><path d="M141-36C126-15 110 5 73 4 37 3 15-17 15-53c-1-64 63-63 125-63 3-35-9-54-41-54-24 1-41 7-42 31l-33-3c5-37 33-52 76-52 45 0 72 20 72 64v82c-1 20 7 32 28 27v20c-31 9-61-2-59-35zM48-53c0 20 12 33 32 33 41-3 63-29 60-74-43 2-92-5-92 41" id="aO"/><path d="M16-82v-28h88v28H16" id="aP"/><path d="M100-194c62-1 85 37 85 99 1 63-27 99-86 99S16-35 15-95c0-66 28-99 85-99zM99-20c44 1 53-31 53-75 0-43-8-75-51-75s-53 32-53 75 10 74 51 75" id="aQ"/><path d="M179-190L93 31C79 59 56 82 12 73V49c39 6 53-20 64-50L1-190h34L92-34l54-156h33" id="aR"/><g id="z"><use transform="matrix(0.06975308641975307,0,0,0.06975308641975307,0,0)" xlink:href="#aI"/><use transform="matrix(0.06975308641975307,0,0,0.06975308641975307,6.975308641975307,0)" xlink:href="#aJ"/><use transform="matrix(0.06975308641975307,0,0,0.06975308641975307,12.485802469135798,0)" xlink:href="#aJ"/><use transform="matrix(0.06975308641975307,0,0,0.06975308641975307,17.99629629629629,0)" xlink:href="#aK"/><use transform="matrix(0.06975308641975307,0,0,0.06975308641975307,31.946913580246903,0)" xlink:href="#aL"/><use transform="matrix(0.06975308641975307,0,0,0.06975308641975307,52.80308641975307,0)" xlink:href="#aM"/><use transform="matrix(0.06975308641975307,0,0,0.06975308641975307,58.31358024691357,0)" xlink:href="#aN"/><use transform="matrix(0.06975308641975307,0,0,0.06975308641975307,72.26419753086418,0)" xlink:href="#aO"/><use transform="matrix(0.06975308641975307,0,0,0.06975308641975307,86.21481481481479,0)" xlink:href="#aP"/><use transform="matrix(0.06975308641975307,0,0,0.06975308641975307,94.5154320987654,0)" xlink:href="#aQ"/><use transform="matrix(0.06975308641975307,0,0,0.06975308641975307,108.46604938271602,0)" xlink:href="#aN"/><use transform="matrix(0.06975308641975307,0,0,0.06975308641975307,122.41666666666663,0)" xlink:href="#aJ"/><use transform="matrix(0.06975308641975307,0,0,0.06975308641975307,127.92716049382712,0)" xlink:href="#aR"/></g><path d="M190 0L58-211 59 0H30v-248h39L202-35l-2-213h31V0h-41" id="aS"/><path d="M115-194c55 1 70 41 70 98S169 2 115 4C84 4 66-9 55-30l1 105H24l-1-265h31l2 30c10-21 28-34 59-34zm-8 174c40 0 45-34 45-75s-6-73-45-74c-42 0-51 32-51 76 0 43 10 73 51 73" id="aT"/><path d="M114-163C36-179 61-72 57 0H25l-1-190h30c1 12-1 29 2 39 6-27 23-49 58-41v29" id="aU"/><path d="M100-194c63 0 86 42 84 106H49c0 40 14 67 53 68 26 1 43-12 49-29l28 8c-11 28-37 45-77 45C44 4 14-33 15-96c1-61 26-98 85-98zm52 81c6-60-76-77-97-28-3 7-6 17-6 28h103" id="aV"/><path d="M0 4l72-265h28L28 4H0" id="aW"/><path d="M177-190C167-65 218 103 67 71c-23-6-38-20-44-43l32-5c15 47 100 32 89-28v-30C133-14 115 1 83 1 29 1 15-40 15-95c0-56 16-97 71-98 29-1 48 16 59 35 1-10 0-23 2-32h30zM94-22c36 0 50-32 50-73 0-42-14-75-50-75-39 0-46 34-46 75s6 73 46 73" id="aX"/><path d="M85-194c31 0 48 13 60 33l-1-100h32l1 261h-30c-2-10 0-23-3-31C134-8 116 4 85 4 32 4 16-35 15-94c0-66 23-100 70-100zm9 24c-40 0-46 34-46 75 0 40 6 74 45 74 42 0 51-32 51-76 0-42-9-74-50-73" id="aY"/><g id="A"><use transform="matrix(0.06975308641975307,0,0,0.06975308641975307,0,0)" xlink:href="#aS"/><use transform="matrix(0.06975308641975307,0,0,0.06975308641975307,18.066049382716045,0)" xlink:href="#aO"/><use transform="matrix(0.06975308641975307,0,0,0.06975308641975307,32.01666666666666,0)" xlink:href="#aN"/><use transform="matrix(0.06975308641975307,0,0,0.06975308641975307,45.96728395061727,0)" xlink:href="#aQ"/><use transform="matrix(0.06975308641975307,0,0,0.06975308641975307,59.917901234567886,0)" xlink:href="#aT"/><use transform="matrix(0.06975308641975307,0,0,0.06975308641975307,73.8685185185185,0)" xlink:href="#aQ"/><use transform="matrix(0.06975308641975307,0,0,0.06975308641975307,87.8191358024691,0)" xlink:href="#aU"/><use transform="matrix(0.06975308641975307,0,0,0.06975308641975307,96.11975308641972,0)" xlink:href="#aV"/><use transform="matrix(0.06975308641975307,0,0,0.06975308641975307,110.07037037037034,0)" xlink:href="#aW"/><use transform="matrix(0.06975308641975307,0,0,0.06975308641975307,117.04567901234564,0)" xlink:href="#aJ"/><use transform="matrix(0.06975308641975307,0,0,0.06975308641975307,122.55617283950613,0)" xlink:href="#aQ"/><use transform="matrix(0.06975308641975307,0,0,0.06975308641975307,136.50679012345674,0)" xlink:href="#aN"/><use transform="matrix(0.06975308641975307,0,0,0.06975308641975307,150.45740740740735,0)" xlink:href="#aX"/><use transform="matrix(0.06975308641975307,0,0,0.06975308641975307,164.40802469135795,0)" xlink:href="#aP"/><use transform="matrix(0.06975308641975307,0,0,0.06975308641975307,172.70864197530858,0)" xlink:href="#aU"/><use transform="matrix(0.06975308641975307,0,0,0.06975308641975307,181.00925925925918,0)" xlink:href="#aV"/><use transform="matrix(0.06975308641975307,0,0,0.06975308641975307,194.95987654320982,0)" xlink:href="#aO"/><use transform="matrix(0.06975308641975307,0,0,0.06975308641975307,208.9104938271604,0)" xlink:href="#aY"/><use transform="matrix(0.06975308641975307,0,0,0.06975308641975307,222.861111111111,0)" xlink:href="#aP"/><use transform="matrix(0.06975308641975307,0,0,0.06975308641975307,231.1617283950616,0)" xlink:href="#aQ"/><use transform="matrix(0.06975308641975307,0,0,0.06975308641975307,245.11234567901224,0)" xlink:href="#aN"/><use transform="matrix(0.06975308641975307,0,0,0.06975308641975307,259.06296296296284,0)" xlink:href="#aJ"/><use transform="matrix(0.06975308641975307,0,0,0.06975308641975307,264.5734567901233,0)" xlink:href="#aR"/></g><path d="M212-179c-10-28-35-45-73-45-59 0-87 40-87 99 0 60 29 101 89 101 43 0 62-24 78-52l27 14C228-24 195 4 139 4 59 4 22-46 18-125c-6-104 99-153 187-111 19 9 31 26 39 46" id="aZ"/><path d="M135-143c-3-34-86-38-87 0 15 53 115 12 119 90S17 21 10-45l28-5c4 36 97 45 98 0-10-56-113-15-118-90-4-57 82-63 122-42 12 7 21 19 24 35" id="ba"/><path d="M59-47c-2 24 18 29 38 22v24C64 9 27 4 27-40v-127H5v-23h24l9-43h21v43h35v23H59v120" id="bb"/><path d="M101-234c-31-9-42 10-38 44h38v23H63V0H32v-167H5v-23h27c-7-52 17-82 69-68v24" id="bc"/><g id="B"><use transform="matrix(0.06975308641975307,0,0,0.06975308641975307,0,0)" xlink:href="#aZ"/><use transform="matrix(0.06975308641975307,0,0,0.06975308641975307,18.066049382716045,0)" xlink:href="#aU"/><use transform="matrix(0.06975308641975307,0,0,0.06975308641975307,26.36666666666666,0)" xlink:href="#aQ"/><use transform="matrix(0.06975308641975307,0,0,0.06975308641975307,40.31728395061727,0)" xlink:href="#ba"/><use transform="matrix(0.06975308641975307,0,0,0.06975308641975307,52.872839506172824,0)" xlink:href="#ba"/><use transform="matrix(0.06975308641975307,0,0,0.06975308641975307,65.42839506172838,0)" xlink:href="#aP"/><use transform="matrix(0.06975308641975307,0,0,0.06975308641975307,73.729012345679,0)" xlink:href="#aT"/><use transform="matrix(0.06975308641975307,0,0,0.06975308641975307,87.6796296296296,0)" xlink:href="#aJ"/><use transform="matrix(0.06975308641975307,0,0,0.06975308641975307,93.19012345679009,0)" xlink:href="#aO"/><use transform="matrix(0.06975308641975307,0,0,0.06975308641975307,107.14074074074071,0)" xlink:href="#bb"/><use transform="matrix(0.06975308641975307,0,0,0.06975308641975307,114.11604938271601,0)" xlink:href="#bc"/><use transform="matrix(0.06975308641975307,0,0,0.06975308641975307,121.09135802469132,0)" xlink:href="#aQ"/><use transform="matrix(0.06975308641975307,0,0,0.06975308641975307,135.04197530864192,0)" xlink:href="#aU"/><use transform="matrix(0.06975308641975307,0,0,0.06975308641975307,143.34259259259255,0)" xlink:href="#aL"/></g></defs></g></svg>