<svg xmlns="http://www.w3.org/2000/svg" xmlns:xlink="http://www.w3.org/1999/xlink" xmlns:lucid="lucid" width="1380" height="483.67"><g transform="translate(-60 -61.66666666666674)" lucid:page-tab-id="0_0"><path d="M0 0h1760v1360H0z" fill="#fff"/><path d="M100 246a6 6 0 0 1 6-6h186a6 6 0 0 1 6 6v45c-33.07-8.52-53.66-8.52-66.13-8.52-19.8 0-46.14 8.52-65.94 8.52-12.27 0-33.06 0-65.93-8.52z" stroke="#3a414a" fill="#f2f3f5"/><path d="M111 250.5a6 6 0 0 1 6-6h186a6 6 0 0 1 6 6v45c-33.07-8.52-53.66-8.52-66.13-8.52-19.8 0-46.14 8.52-65.94 8.52-12.27 0-33.06 0-65.93-8.52z" stroke="#3a414a" fill="#f2f3f5"/><path d="M122 255a6 6 0 0 1 6-6h186a6 6 0 0 1 6 6v45c-33.07-8.52-53.66-8.52-66.13-8.52-19.8 0-46.14 8.52-65.94 8.52-12.27 0-33.06 0-65.93-8.52z" stroke="#3a414a" fill="#f2f3f5"/><use xlink:href="#a" transform="matrix(1,0,0,1,127,254) translate(7.783950617283949 17.77777777777778)"/><path d="M640 246a6 6 0 0 1 6-6h222a6 6 0 0 1 6 6v45c-39.08-8.52-63.4-8.52-78.16-8.52-23.4 0-54.52 8.52-77.92 8.52-14.5 0-39.08 0-77.92-8.52z" stroke="#3a414a" fill="#f2f3f5"/><path d="M653 250.5a6 6 0 0 1 6-6h222a6 6 0 0 1 6 6v45c-39.08-8.52-63.4-8.52-78.16-8.52-23.4 0-54.52 8.52-77.92 8.52-14.5 0-39.08 0-77.92-8.52z" stroke="#3a414a" fill="#f2f3f5"/><path d="M666 255a6 6 0 0 1 6-6h222a6 6 0 0 1 6 6v45c-39.08-8.52-63.4-8.52-78.16-8.52-23.4 0-54.52 8.52-77.92 8.52-14.5 0-39.08 0-77.92-8.52z" stroke="#3a414a" fill="#f2f3f5"/><use xlink:href="#b" transform="matrix(1,0,0,1,671,254) translate(28.320987654320987 17.77777777777778)"/><path d="M1160 247.67a6 6 0 0 1 6-6h222a6 6 0 0 1 6 6v45c-39.08-8.52-63.4-8.52-78.16-8.52-23.4 0-54.52 8.52-77.92 8.52-14.5 0-39.08 0-77.92-8.52z" stroke="#3a414a" fill="#f2f3f5"/><path d="M1173 252.17a6 6 0 0 1 6-6h222a6 6 0 0 1 6 6v45c-39.08-8.52-63.4-8.52-78.16-8.52-23.4 0-54.52 8.52-77.92 8.52-14.5 0-39.08 0-77.92-8.52z" stroke="#3a414a" fill="#f2f3f5"/><path d="M1186 256.67a6 6 0 0 1 6-6h222a6 6 0 0 1 6 6v45c-39.08-8.52-63.4-8.52-78.16-8.52-23.4 0-54.52 8.52-77.92 8.52-14.5 0-39.08 0-77.92-8.52z" stroke="#3a414a" fill="#f2f3f5"/><use xlink:href="#c" transform="matrix(1,0,0,1,1191,255.66666666666669) translate(15.790123456790127 17.77777777777778)"/><path d="M400 274.33a6 6 0 0 1 6-6h168a6 6 0 0 1 6 6v51.34a6 6 0 0 1-6 6H406a6 6 0 0 1-6-6z" stroke="#3a414a" fill="#fc9432"/><path d="M418 268.33v63.34m144-63.34v63.34" stroke="#3a414a" fill="none"/><use xlink:href="#d" transform="matrix(1,0,0,1,427.5,273.3333333333333) translate(11.975308641975303 31.444444444444443)"/><path d="M321.95 270.02H354a6 6 0 0 1 6 6V294a6 6 0 0 0 6 6h12.92" stroke="#3a414a" stroke-width="3" fill="none"/><path d="M322 271.52h-1.55v-3H322z" stroke="#3a414a" stroke-width=".05" fill="#3a414a"/><path d="M394.68 300l-14.26 4.64v-9.28z" stroke="#3a414a" stroke-width="3" fill="#3a414a"/><path d="M400 194.33a6 6 0 0 1 6-6h168a6 6 0 0 1 6 6v51.34a6 6 0 0 1-6 6H406a6 6 0 0 1-6-6z" stroke="#3a414a" fill="#54c45e"/><path d="M418 188.33v63.34m144-63.34v63.34" stroke="#3a414a" fill="none"/><use xlink:href="#e" transform="matrix(1,0,0,1,427.5,193.33333333333334) translate(20.123456790123463 18.111111111111114)"/><use xlink:href="#f" transform="matrix(1,0,0,1,427.5,193.33333333333334) translate(11.97530864197531 44.777777777777786)"/><path d="M321.95 270.02H354a6 6 0 0 0 6-6v-27.1a6 6 0 0 1 6-6h12.93" stroke="#3a414a" stroke-width="3" fill="none"/><path d="M322 271.52h-1.55v-3H322z" stroke="#3a414a" stroke-width=".05" fill="#3a414a"/><path d="M394.7 230.92l-14.27 4.64v-9.27z" stroke="#3a414a" stroke-width="3" fill="#3a414a"/><path d="M581.96 220h22.02a6 6 0 0 1 6 6v21.2a6 6 0 0 0 6 6h2.9" stroke="#3a414a" stroke-width="3" fill="none"/><path d="M582 221.5h-1.53v-3H582z" stroke="#3a414a" stroke-width=".05" fill="#3a414a"/><path d="M634.65 253.2l-14.27 4.63v-9.27z" stroke="#3a414a" stroke-width="3" fill="#3a414a"/><path d="M581.96 300h22.02a6 6 0 0 0 6-6v-18a6 6 0 0 1 6-6h2.9" stroke="#3a414a" stroke-width="3" fill="none"/><path d="M582 301.5h-1.53v-3H582z" stroke="#3a414a" stroke-width=".05" fill="#3a414a"/><path d="M634.65 270l-14.27 4.64v-9.28z" stroke="#3a414a" stroke-width="3" fill="#3a414a"/><path d="M540 346a6 6 0 0 1 6-6h170a6 6 0 0 1 6 6v51.33a6 6 0 0 1-6 6H546a6 6 0 0 1-6-6z" stroke="#3a414a" fill="#6db1ff"/><path d="M558.2 340v63.33M703.8 340v63.33" stroke="#3a414a" fill="none"/><use xlink:href="#g" transform="matrix(1,0,0,1,567.7486762732792,345) translate(22.20370370370371 18.111111111111114)"/><use xlink:href="#h" transform="matrix(1,0,0,1,567.7486762732792,345) translate(0.6296296296296333 44.777777777777786)"/><path d="M901.95 270h17.75a.3.3 0 0 1 .3.3v.3" stroke="#3a414a" stroke-width="3" fill="none"/><path d="M902 271.5h-1.55v-3H902z" stroke="#3a414a" stroke-width=".05" fill="#3a414a"/><path d="M934.7 271.4l-14.5 3.84.5-9.25z" stroke="#3a414a" stroke-width="3" fill="#3a414a"/><path d="M1123.95 271.67h14.93" stroke="#3a414a" stroke-width="3" fill="none"/><path d="M1124 273.17h-1.54v-3h1.53z" stroke="#3a414a" stroke-width=".05" fill="#3a414a"/><path d="M1154.64 271.67l-14.26 4.63v-9.27z" stroke="#3a414a" stroke-width="3" fill="#3a414a"/><path d="M80 87.67a6 6 0 0 1 6-6h311.33a6 6 0 0 1 6 6v78a6 6 0 0 1-6 6H86a6 6 0 0 1-6-6z" stroke="#000" stroke-opacity="0" fill="#fff" fill-opacity="0"/><use xlink:href="#i" transform="matrix(1,0,0,1,85,86.66666666666674) translate(0 46.66666666666666)"/><use xlink:href="#j" transform="matrix(1,0,0,1,85,86.66666666666674) translate(37.037037037037024 46.66666666666666)"/><path d="M880 332a12 12 0 0 1 12-12h349.14a12 12 0 0 1 12 12v181.33a12 12 0 0 1-12 12H892a12 12 0 0 1-12-12z" stroke="#dfe3e8" stroke-width="2" fill="#fff"/><path d="M936 406.93c0 6.63-5.37 12-12 12s-12-5.37-12-12c0-6.62 5.37-12 12-12s12 5.38 12 12z" stroke="#000" stroke-opacity=".25" fill="#54c45e"/><path d="M936 445.07c0 6.62-5.37 12-12 12s-12-5.38-12-12c0-6.63 5.37-12 12-12s12 5.37 12 12z" stroke="#000" stroke-opacity=".25" fill="#fc9432"/><path d="M936 483.2c0 6.63-5.37 12-12 12s-12-5.37-12-12 5.37-12 12-12 12 5.37 12 12z" stroke="#000" stroke-opacity=".25" fill="#6db1ff"/><use xlink:href="#k" transform="matrix(1,0,0,1,912,344) translate(0 23.322222222222223)"/><use xlink:href="#l" transform="matrix(1,0,0,1,944,394.93333333333334) translate(0 20.522222222222222)"/><use xlink:href="#m" transform="matrix(1,0,0,1,944,433.06666666666666) translate(0 20.522222222222222)"/><use xlink:href="#n" transform="matrix(1,0,0,1,944,471.2) translate(0 20.522222222222222)"/><path d="M538.04 371.67H496a6 6 0 0 1-6-6v-12.92" stroke="#3a414a" stroke-width="3" fill="none"/><path d="M539.54 373.17H538v-3h1.53z" stroke="#3a414a" stroke-width=".05" fill="#3a414a"/><path d="M490 336.98l4.64 14.27h-9.28z" stroke="#3a414a" stroke-width="3" fill="#3a414a"/><path d="M770 299.25v66.42a6 6 0 0 1-6 6h-20.93" stroke="#3a414a" stroke-width="3" fill="none"/><path d="M771.5 299.3h-3v-1.34l3-.4z" stroke="#3a414a" stroke-width=".05" fill="#3a414a"/><path d="M727.3 371.67l14.27-4.64v9.27z" stroke="#3a414a" stroke-width="3" fill="#3a414a"/><path d="M538.04 148.33H496a6 6 0 0 0-6 6v12.92" stroke="#3a414a" stroke-width="3" fill="none"/><path d="M539.54 149.83H538v-3h1.53z" stroke="#3a414a" stroke-width=".05" fill="#3a414a"/><path d="M490 183.02l-4.64-14.27h9.28z" stroke="#3a414a" stroke-width="3" fill="#3a414a"/><path d="M770 238.03v-83.7a6 6 0 0 0-6-6h-20.93" stroke="#3a414a" stroke-width="3" fill="none"/><path d="M771.5 239.53h-3V238h3z" stroke="#3a414a" stroke-width=".05" fill="#3a414a"/><path d="M727.3 148.33l14.27-4.63v9.27z" stroke="#3a414a" stroke-width="3" fill="#3a414a"/><path d="M540 122.67a6 6 0 0 1 6-6h170a6 6 0 0 1 6 6V174a6 6 0 0 1-6 6H546a6 6 0 0 1-6-6z" stroke="#3a414a" fill="#6db1ff"/><path d="M558.2 116.67V180m145.6-63.33V180" stroke="#3a414a" fill="none"/><use xlink:href="#g" transform="matrix(1,0,0,1,567.7486762732792,121.66666666666671) translate(22.20370370370371 18.111111111111114)"/><use xlink:href="#h" transform="matrix(1,0,0,1,567.7486762732792,121.66666666666671) translate(0.6296296296296333 44.777777777777786)"/><path d="M940 246a6 6 0 0 1 6-6h170a6 6 0 0 1 6 6v51.33a6 6 0 0 1-6 6H946a6 6 0 0 1-6-6z" stroke="#3a414a" fill="#6db1ff"/><path d="M958.2 240v63.33M1103.8 240v63.33" stroke="#3a414a" fill="none"/><g><use xlink:href="#o" transform="matrix(1,0,0,1,967.7486762732792,245) translate(31.432098765432094 18.111111111111114)"/><use xlink:href="#p" transform="matrix(1,0,0,1,967.7486762732792,245) translate(-3.598765432098773 44.777777777777786)"/></g><defs><path fill="#3a414a" d="M140-251c81 0 123 46 123 126C263-53 228-8 163 1c7 30 30 48 69 40v23c-55 16-95-15-103-61C56-3 17-48 17-125c0-80 42-126 123-126zm0 227c63 0 89-41 89-101s-29-99-89-99c-61 0-89 39-89 99S79-25 140-24" id="q"/><path fill="#3a414a" d="M212-179c-10-28-35-45-73-45-59 0-87 40-87 99 0 60 29 101 89 101 43 0 62-24 78-52l27 14C228-24 195 4 139 4 59 4 22-46 18-125c-6-104 99-153 187-111 19 9 31 26 39 46" id="r"/><path fill="#3a414a" d="M-5 72V49h209v23H-5" id="s"/><path fill="#3a414a" d="M114-163C36-179 61-72 57 0H25l-1-190h30c1 12-1 29 2 39 6-27 23-49 58-41v29" id="t"/><path fill="#3a414a" d="M100-194c63 0 86 42 84 106H49c0 40 14 67 53 68 26 1 43-12 49-29l28 8c-11 28-37 45-77 45C44 4 14-33 15-96c1-61 26-98 85-98zm52 81c6-60-76-77-97-28-3 7-6 17-6 28h103" id="u"/><path fill="#3a414a" d="M141-36C126-15 110 5 73 4 37 3 15-17 15-53c-1-64 63-63 125-63 3-35-9-54-41-54-24 1-41 7-42 31l-33-3c5-37 33-52 76-52 45 0 72 20 72 64v82c-1 20 7 32 28 27v20c-31 9-61-2-59-35zM48-53c0 20 12 33 32 33 41-3 63-29 60-74-43 2-92-5-92 41" id="v"/><path fill="#3a414a" d="M85-194c31 0 48 13 60 33l-1-100h32l1 261h-30c-2-10 0-23-3-31C134-8 116 4 85 4 32 4 16-35 15-94c0-66 23-100 70-100zm9 24c-40 0-46 34-46 75 0 40 6 74 45 74 42 0 51-32 51-76 0-42-9-74-50-73" id="w"/><path fill="#3a414a" d="M135-143c-3-34-86-38-87 0 15 53 115 12 119 90S17 21 10-45l28-5c4 36 97 45 98 0-10-56-113-15-118-90-4-57 82-63 122-42 12 7 21 19 24 35" id="x"/><path fill="#3a414a" d="M33 0v-38h34V0H33" id="y"/><path fill="#3a414a" d="M101-234c-31-9-42 10-38 44h38v23H63V0H32v-167H5v-23h27c-7-52 17-82 69-68v24" id="z"/><path fill="#3a414a" d="M145-31C134-9 116 4 85 4 32 4 16-35 15-94c0-59 17-99 70-100 32-1 48 14 60 33 0-11-1-24 2-32h30l-1 268h-32zM93-21c41 0 51-33 51-76s-8-73-50-73c-40 0-46 35-46 75s5 74 45 74" id="A"/><path fill="#3a414a" d="M177-190C167-65 218 103 67 71c-23-6-38-20-44-43l32-5c15 47 100 32 89-28v-30C133-14 115 1 83 1 29 1 15-40 15-95c0-56 16-97 71-98 29-1 48 16 59 35 1-10 0-23 2-32h30zM94-22c36 0 50-32 50-73 0-42-14-75-50-75-39 0-46 34-46 75s6 73 46 73" id="B"/><path fill="#3a414a" d="M9 0v-24l116-142H16v-24h144v24L44-24h123V0H9" id="C"/><g id="a"><use transform="matrix(0.06172839506172839,0,0,0.06172839506172839,0,0)" xlink:href="#q"/><use transform="matrix(0.06172839506172839,0,0,0.06172839506172839,17.28395061728395,0)" xlink:href="#r"/><use transform="matrix(0.06172839506172839,0,0,0.06172839506172839,33.2716049382716,0)" xlink:href="#s"/><use transform="matrix(0.06172839506172839,0,0,0.06172839506172839,45.61728395061728,0)" xlink:href="#t"/><use transform="matrix(0.06172839506172839,0,0,0.06172839506172839,52.962962962962955,0)" xlink:href="#u"/><use transform="matrix(0.06172839506172839,0,0,0.06172839506172839,65.30864197530863,0)" xlink:href="#v"/><use transform="matrix(0.06172839506172839,0,0,0.06172839506172839,77.65432098765432,0)" xlink:href="#w"/><use transform="matrix(0.06172839506172839,0,0,0.06172839506172839,90,0)" xlink:href="#x"/><use transform="matrix(0.06172839506172839,0,0,0.06172839506172839,101.11111111111111,0)" xlink:href="#y"/><use transform="matrix(0.06172839506172839,0,0,0.06172839506172839,107.28395061728395,0)" xlink:href="#z"/><use transform="matrix(0.06172839506172839,0,0,0.06172839506172839,113.45679012345678,0)" xlink:href="#A"/><use transform="matrix(0.06172839506172839,0,0,0.06172839506172839,125.80246913580247,0)" xlink:href="#y"/><use transform="matrix(0.06172839506172839,0,0,0.06172839506172839,131.97530864197532,0)" xlink:href="#B"/><use transform="matrix(0.06172839506172839,0,0,0.06172839506172839,144.320987654321,0)" xlink:href="#C"/></g><path fill="#3a414a" d="M210-169c-67 3-38 105-44 169h-31v-121c0-29-5-50-35-48C34-165 62-65 56 0H25l-1-190h30c1 10-1 24 2 32 10-44 99-50 107 0 11-21 27-35 58-36 85-2 47 119 55 194h-31v-121c0-29-5-49-35-48" id="D"/><path fill="#3a414a" d="M115-194c53 0 69 39 70 98 0 66-23 100-70 100C84 3 66-7 56-30L54 0H23l1-261h32v101c10-23 28-34 59-34zm-8 174c40 0 45-34 45-75 0-40-5-75-45-74-42 0-51 32-51 76 0 43 10 73 51 73" id="E"/><path fill="#3a414a" d="M24 0v-261h32V0H24" id="F"/><path fill="#3a414a" d="M179-190L93 31C79 59 56 82 12 73V49c39 6 53-20 64-50L1-190h34L92-34l54-156h33" id="G"/><path fill="#3a414a" d="M59-47c-2 24 18 29 38 22v24C64 9 27 4 27-40v-127H5v-23h24l9-43h21v43h35v23H59v120" id="H"/><g id="b"><use transform="matrix(0.06172839506172839,0,0,0.06172839506172839,0,0)" xlink:href="#v"/><use transform="matrix(0.06172839506172839,0,0,0.06172839506172839,12.345679012345679,0)" xlink:href="#x"/><use transform="matrix(0.06172839506172839,0,0,0.06172839506172839,23.45679012345679,0)" xlink:href="#x"/><use transform="matrix(0.06172839506172839,0,0,0.06172839506172839,34.5679012345679,0)" xlink:href="#u"/><use transform="matrix(0.06172839506172839,0,0,0.06172839506172839,46.913580246913575,0)" xlink:href="#D"/><use transform="matrix(0.06172839506172839,0,0,0.06172839506172839,65.37037037037037,0)" xlink:href="#E"/><use transform="matrix(0.06172839506172839,0,0,0.06172839506172839,77.71604938271605,0)" xlink:href="#F"/><use transform="matrix(0.06172839506172839,0,0,0.06172839506172839,82.5925925925926,0)" xlink:href="#G"/><use transform="matrix(0.06172839506172839,0,0,0.06172839506172839,92.03703703703704,0)" xlink:href="#y"/><use transform="matrix(0.06172839506172839,0,0,0.06172839506172839,98.20987654320987,0)" xlink:href="#z"/><use transform="matrix(0.06172839506172839,0,0,0.06172839506172839,104.38271604938271,0)" xlink:href="#v"/><use transform="matrix(0.06172839506172839,0,0,0.06172839506172839,116.72839506172839,0)" xlink:href="#x"/><use transform="matrix(0.06172839506172839,0,0,0.06172839506172839,127.83950617283949,0)" xlink:href="#H"/><use transform="matrix(0.06172839506172839,0,0,0.06172839506172839,134.01234567901236,0)" xlink:href="#v"/></g><path fill="#3a414a" d="M24-231v-30h32v30H24zM24 0v-190h32V0H24" id="I"/><path fill="#3a414a" d="M117-194c89-4 53 116 60 194h-32v-121c0-31-8-49-39-48C34-167 62-67 57 0H25l-1-190h30c1 10-1 24 2 32 11-22 29-35 61-36" id="J"/><path fill="#3a414a" d="M96-169c-40 0-48 33-48 73s9 75 48 75c24 0 41-14 43-38l32 2c-6 37-31 61-74 61-59 0-76-41-82-99-10-93 101-131 147-64 4 7 5 14 7 22l-32 3c-4-21-16-35-41-35" id="K"/><path fill="#3a414a" d="M100-194c62-1 85 37 85 99 1 63-27 99-86 99S16-35 15-95c0-66 28-99 85-99zM99-20c44 1 53-31 53-75 0-43-8-75-51-75s-53 32-53 75 10 74 51 75" id="L"/><g id="c"><use transform="matrix(0.06172839506172839,0,0,0.06172839506172839,0,0)" xlink:href="#z"/><use transform="matrix(0.06172839506172839,0,0,0.06172839506172839,6.172839506172839,0)" xlink:href="#I"/><use transform="matrix(0.06172839506172839,0,0,0.06172839506172839,11.049382716049383,0)" xlink:href="#J"/><use transform="matrix(0.06172839506172839,0,0,0.06172839506172839,23.395061728395063,0)" xlink:href="#v"/><use transform="matrix(0.06172839506172839,0,0,0.06172839506172839,35.74074074074074,0)" xlink:href="#F"/><use transform="matrix(0.06172839506172839,0,0,0.06172839506172839,40.617283950617285,0)" xlink:href="#y"/><use transform="matrix(0.06172839506172839,0,0,0.06172839506172839,46.79012345679013,0)" xlink:href="#K"/><use transform="matrix(0.06172839506172839,0,0,0.06172839506172839,57.90123456790124,0)" xlink:href="#L"/><use transform="matrix(0.06172839506172839,0,0,0.06172839506172839,70.24691358024693,0)" xlink:href="#J"/><use transform="matrix(0.06172839506172839,0,0,0.06172839506172839,82.59259259259261,0)" xlink:href="#H"/><use transform="matrix(0.06172839506172839,0,0,0.06172839506172839,88.76543209876544,0)" xlink:href="#I"/><use transform="matrix(0.06172839506172839,0,0,0.06172839506172839,93.64197530864199,0)" xlink:href="#B"/><use transform="matrix(0.06172839506172839,0,0,0.06172839506172839,105.98765432098767,0)" xlink:href="#x"/><use transform="matrix(0.06172839506172839,0,0,0.06172839506172839,117.09876543209879,0)" xlink:href="#y"/><use transform="matrix(0.06172839506172839,0,0,0.06172839506172839,123.27160493827162,0)" xlink:href="#z"/><use transform="matrix(0.06172839506172839,0,0,0.06172839506172839,129.44444444444446,0)" xlink:href="#v"/><use transform="matrix(0.06172839506172839,0,0,0.06172839506172839,141.79012345679013,0)" xlink:href="#x"/><use transform="matrix(0.06172839506172839,0,0,0.06172839506172839,152.90123456790124,0)" xlink:href="#H"/><use transform="matrix(0.06172839506172839,0,0,0.06172839506172839,159.07407407407408,0)" xlink:href="#v"/></g><path fill="#3a414a" d="M63-220v92h138v28H63V0H30v-248h175v28H63" id="M"/><path fill="#3a414a" d="M0 4l72-265h28L28 4H0" id="N"/><path fill="#3a414a" d="M84 4C-5 8 30-112 23-190h32v120c0 31 7 50 39 49 72-2 45-101 50-169h31l1 190h-30c-1-10 1-25-2-33-11 22-28 36-60 37" id="O"/><g id="d"><use transform="matrix(0.06172839506172839,0,0,0.06172839506172839,0,0)" xlink:href="#M"/><use transform="matrix(0.06172839506172839,0,0,0.06172839506172839,13.518518518518517,0)" xlink:href="#F"/><use transform="matrix(0.06172839506172839,0,0,0.06172839506172839,18.39506172839506,0)" xlink:href="#G"/><use transform="matrix(0.06172839506172839,0,0,0.06172839506172839,29.50617283950617,0)" xlink:href="#u"/><use transform="matrix(0.06172839506172839,0,0,0.06172839506172839,41.85185185185185,0)" xlink:href="#N"/><use transform="matrix(0.06172839506172839,0,0,0.06172839506172839,48.02469135802469,0)" xlink:href="#r"/><use transform="matrix(0.06172839506172839,0,0,0.06172839506172839,64.01234567901234,0)" xlink:href="#v"/><use transform="matrix(0.06172839506172839,0,0,0.06172839506172839,76.35802469135803,0)" xlink:href="#J"/><use transform="matrix(0.06172839506172839,0,0,0.06172839506172839,88.70370370370371,0)" xlink:href="#O"/></g><path fill="#3a414a" d="M185-189c-5-48-123-54-124 2 14 75 158 14 163 119 3 78-121 87-175 55-17-10-28-26-33-46l33-7c5 56 141 63 141-1 0-78-155-14-162-118-5-82 145-84 179-34 5 7 8 16 11 25" id="P"/><path fill="#3a414a" d="M30-248c87 1 191-15 191 75 0 78-77 80-158 76V0H30v-248zm33 125c57 0 124 11 124-50 0-59-68-47-124-48v98" id="Q"/><path fill="#3a414a" d="M205 0l-28-72H64L36 0H1l101-248h38L239 0h-34zm-38-99l-47-123c-12 45-31 82-46 123h93" id="R"/><g id="e"><use transform="matrix(0.06172839506172839,0,0,0.06172839506172839,0,0)" xlink:href="#P"/><use transform="matrix(0.06172839506172839,0,0,0.06172839506172839,14.814814814814813,0)" xlink:href="#Q"/><use transform="matrix(0.06172839506172839,0,0,0.06172839506172839,27.962962962962962,0)" xlink:href="#R"/><use transform="matrix(0.06172839506172839,0,0,0.06172839506172839,42.77777777777777,0)" xlink:href="#w"/><use transform="matrix(0.06172839506172839,0,0,0.06172839506172839,55.12345679012345,0)" xlink:href="#u"/><use transform="matrix(0.06172839506172839,0,0,0.06172839506172839,67.46913580246913,0)" xlink:href="#x"/><use transform="matrix(0.06172839506172839,0,0,0.06172839506172839,78.58024691358024,0)" xlink:href="#N"/></g><path fill="#3a414a" d="M240 0l2-218c-23 76-54 145-80 218h-23L58-218 59 0H30v-248h44l77 211c21-75 51-140 76-211h43V0h-30" id="S"/><path fill="#3a414a" d="M30 0v-248h187v28H63v79h144v27H63v87h162V0H30" id="T"/><path fill="#3a414a" d="M143 4C61 4 22-44 18-125c-5-107 100-154 193-111 17 8 29 25 37 43l-32 9c-13-25-37-40-76-40-61 0-88 39-88 99 0 61 29 100 91 101 35 0 62-11 79-27v-45h-74v-28h105v86C228-13 192 4 143 4" id="U"/><path fill="#3a414a" d="M197 0v-115H63V0H30v-248h33v105h134v-105h34V0h-34" id="V"/><path fill="#3a414a" d="M33 0v-248h34V0H33" id="W"/><path fill="#3a414a" d="M127-220V0H93v-220H8v-28h204v28h-85" id="X"/><g id="f"><use transform="matrix(0.06172839506172839,0,0,0.06172839506172839,0,0)" xlink:href="#S"/><use transform="matrix(0.06172839506172839,0,0,0.06172839506172839,18.456790123456788,0)" xlink:href="#T"/><use transform="matrix(0.06172839506172839,0,0,0.06172839506172839,33.2716049382716,0)" xlink:href="#U"/><use transform="matrix(0.06172839506172839,0,0,0.06172839506172839,50.55555555555555,0)" xlink:href="#R"/><use transform="matrix(0.06172839506172839,0,0,0.06172839506172839,65.37037037037037,0)" xlink:href="#V"/><use transform="matrix(0.06172839506172839,0,0,0.06172839506172839,81.35802469135803,0)" xlink:href="#W"/><use transform="matrix(0.06172839506172839,0,0,0.06172839506172839,87.53086419753086,0)" xlink:href="#X"/></g><path fill="#3a414a" d="M232-93c-1 65-40 97-104 97C67 4 28-28 28-90v-158h33c8 89-33 224 67 224 102 0 64-133 71-224h33v155" id="Y"/><g id="g"><use transform="matrix(0.06172839506172839,0,0,0.06172839506172839,0,0)" xlink:href="#q"/><use transform="matrix(0.06172839506172839,0,0,0.06172839506172839,17.28395061728395,0)" xlink:href="#Y"/><use transform="matrix(0.06172839506172839,0,0,0.06172839506172839,33.2716049382716,0)" xlink:href="#R"/><use transform="matrix(0.06172839506172839,0,0,0.06172839506172839,48.08641975308642,0)" xlink:href="#P"/><use transform="matrix(0.06172839506172839,0,0,0.06172839506172839,62.90123456790123,0)" xlink:href="#X"/><use transform="matrix(0.06172839506172839,0,0,0.06172839506172839,76.41975308641975,0)" xlink:href="#N"/></g><g id="h"><use transform="matrix(0.06172839506172839,0,0,0.06172839506172839,0,0)" xlink:href="#D"/><use transform="matrix(0.06172839506172839,0,0,0.06172839506172839,18.456790123456788,0)" xlink:href="#u"/><use transform="matrix(0.06172839506172839,0,0,0.06172839506172839,30.80246913580247,0)" xlink:href="#H"/><use transform="matrix(0.06172839506172839,0,0,0.06172839506172839,36.97530864197531,0)" xlink:href="#v"/><use transform="matrix(0.06172839506172839,0,0,0.06172839506172839,49.32098765432099,0)" xlink:href="#q"/><use transform="matrix(0.06172839506172839,0,0,0.06172839506172839,66.60493827160494,0)" xlink:href="#Y"/><use transform="matrix(0.06172839506172839,0,0,0.06172839506172839,82.5925925925926,0)" xlink:href="#R"/><use transform="matrix(0.06172839506172839,0,0,0.06172839506172839,97.4074074074074,0)" xlink:href="#P"/><use transform="matrix(0.06172839506172839,0,0,0.06172839506172839,112.22222222222221,0)" xlink:href="#X"/></g><path fill="#3a414a" d="M182-182c0 78-84 86-111 141h115V0H12c-6-101 99-100 120-180 1-22-12-31-33-32-23 0-32 14-35 34l-49-3c5-45 32-70 84-70 51 0 83 22 83 69" id="Z"/><path fill="#3a414a" d="M24 0v-54h51V0H24" id="aa"/><g id="i"><use transform="matrix(0.09259259259259256,0,0,0.09259259259259256,0,0)" xlink:href="#Z"/><use transform="matrix(0.09259259259259256,0,0,0.09259259259259256,18.518518518518512,0)" xlink:href="#aa"/></g><path fill="#3a414a" d="M199 0l-22-63H83L61 0H9l90-248h61L250 0h-51zm-33-102l-36-108c-10 38-24 72-36 108h72" id="ab"/><path fill="#3a414a" d="M137-138c1-29-70-34-71-4 15 46 118 7 119 86 1 83-164 76-172 9l43-7c4 19 20 25 44 25 33 8 57-30 24-41C81-84 22-81 20-136c-2-80 154-74 161-7" id="ac"/><path fill="#3a414a" d="M185-48c-13 30-37 53-82 52C43 2 14-33 14-96s30-98 90-98c62 0 83 45 84 108H66c0 31 8 55 39 56 18 0 30-7 34-22zm-45-69c5-46-57-63-70-21-2 6-4 13-4 21h74" id="ad"/><path fill="#3a414a" d="M220-157c-53 9-28 100-34 157h-49v-107c1-27-5-49-29-50C55-147 81-57 75 0H25l-1-190h47c2 12-1 28 3 38 10-53 101-56 108 0 13-22 24-43 59-42 82 1 51 116 57 194h-49v-107c-1-25-5-48-29-50" id="ae"/><path fill="#3a414a" d="M135-194c52 0 70 43 70 98 0 56-19 99-73 100-30 1-46-15-58-35L72 0H24l1-261h50v104c11-23 29-37 60-37zM114-30c31 0 40-27 40-66 0-37-7-63-39-63s-41 28-41 65c0 36 8 64 40 64" id="af"/><path fill="#3a414a" d="M25 0v-261h50V0H25" id="ag"/><path fill="#3a414a" d="M123 10C108 53 80 86 19 72V37c35 8 53-11 59-39L3-190h52l48 148c12-52 28-100 44-148h51" id="ah"/><g id="j"><use transform="matrix(0.09259259259259256,0,0,0.09259259259259256,0,0)" xlink:href="#ab"/><use transform="matrix(0.09259259259259256,0,0,0.09259259259259256,23.981481481481474,0)" xlink:href="#ac"/><use transform="matrix(0.09259259259259256,0,0,0.09259259259259256,42.499999999999986,0)" xlink:href="#ac"/><use transform="matrix(0.09259259259259256,0,0,0.09259259259259256,61.0185185185185,0)" xlink:href="#ad"/><use transform="matrix(0.09259259259259256,0,0,0.09259259259259256,79.53703703703701,0)" xlink:href="#ae"/><use transform="matrix(0.09259259259259256,0,0,0.09259259259259256,109.16666666666663,0)" xlink:href="#af"/><use transform="matrix(0.09259259259259256,0,0,0.09259259259259256,129.4444444444444,0)" xlink:href="#ag"/><use transform="matrix(0.09259259259259256,0,0,0.09259259259259256,138.70370370370367,0)" xlink:href="#ah"/></g><path d="M169-182c-1-43-94-46-97-3 18 66 151 10 154 114 3 95-165 93-204 36-6-8-10-19-12-30l50-8c3 46 112 56 116 5-17-69-150-10-154-114-4-87 153-88 188-35 5 8 8 18 10 28" id="ai"/><path d="M110-194c64 0 96 36 96 99 0 64-35 99-97 99-61 0-95-36-95-99 0-62 34-99 96-99zm-1 164c35 0 45-28 45-65 0-40-10-65-43-65-34 0-45 26-45 65 0 36 10 65 43 65" id="aj"/><path d="M121-226c-27-7-43 5-38 36h38v33H83V0H34v-157H6v-33h28c-9-59 32-81 87-68v32" id="ak"/><path d="M115-3C79 11 28 4 28-45v-112H4v-33h27l15-45h31v45h36v33H77v99c-1 23 16 31 38 25v30" id="al"/><path d="M231 0h-52l-39-155L100 0H48L-1-190h46L77-45c9-52 24-97 36-145h53l37 145 32-145h46" id="am"/><path d="M133-34C117-15 103 5 69 4 32 3 11-16 11-54c-1-60 55-63 116-61 1-26-3-47-28-47-18 1-26 9-28 27l-52-2c7-38 36-58 82-57s74 22 75 68l1 82c-1 14 12 18 25 15v27c-30 8-71 5-69-32zm-48 3c29 0 43-24 42-57-32 0-66-3-65 30 0 17 8 27 23 27" id="an"/><path d="M135-150c-39-12-60 13-60 57V0H25l-1-190h47c2 13-1 29 3 40 6-28 27-53 61-41v41" id="ao"/><path d="M185-48c-13 30-37 53-82 52C43 2 14-33 14-96s30-98 90-98c62 0 83 45 84 108H66c0 31 8 55 39 56 18 0 30-7 34-22zm-45-69c5-46-57-63-70-21-2 6-4 13-4 21h74" id="ap"/><g id="k"><use transform="matrix(0.08086419753086417,0,0,0.08086419753086417,0,0)" xlink:href="#ai"/><use transform="matrix(0.08086419753086417,0,0,0.08086419753086417,19.4074074074074,0)" xlink:href="#aj"/><use transform="matrix(0.08086419753086417,0,0,0.08086419753086417,37.11666666666665,0)" xlink:href="#ak"/><use transform="matrix(0.08086419753086417,0,0,0.08086419753086417,46.73950617283949,0)" xlink:href="#al"/><use transform="matrix(0.08086419753086417,0,0,0.08086419753086417,56.36234567901233,0)" xlink:href="#am"/><use transform="matrix(0.08086419753086417,0,0,0.08086419753086417,79.0043209876543,0)" xlink:href="#an"/><use transform="matrix(0.08086419753086417,0,0,0.08086419753086417,95.17716049382713,0)" xlink:href="#ao"/><use transform="matrix(0.08086419753086417,0,0,0.08086419753086417,106.49814814814812,0)" xlink:href="#ap"/></g><path d="M33 0v-248h34V0H33" id="aq"/><path d="M24 0v-261h32V0H24" id="ar"/><path d="M84 4C-5 8 30-112 23-190h32v120c0 31 7 50 39 49 72-2 45-101 50-169h31l1 190h-30c-1-10 1-25-2-33-11 22-28 36-60 37" id="as"/><path d="M210-169c-67 3-38 105-44 169h-31v-121c0-29-5-50-35-48C34-165 62-65 56 0H25l-1-190h30c1 10-1 24 2 32 10-44 99-50 107 0 11-21 27-35 58-36 85-2 47 119 55 194h-31v-121c0-29-5-49-35-48" id="at"/><path d="M24-231v-30h32v30H24zM24 0v-190h32V0H24" id="au"/><path d="M117-194c89-4 53 116 60 194h-32v-121c0-31-8-49-39-48C34-167 62-67 57 0H25l-1-190h30c1 10-1 24 2 32 11-22 29-35 61-36" id="av"/><path d="M141-36C126-15 110 5 73 4 37 3 15-17 15-53c-1-64 63-63 125-63 3-35-9-54-41-54-24 1-41 7-42 31l-33-3c5-37 33-52 76-52 45 0 72 20 72 64v82c-1 20 7 32 28 27v20c-31 9-61-2-59-35zM48-53c0 20 12 33 32 33 41-3 63-29 60-74-43 2-92-5-92 41" id="aw"/><path d="M16-82v-28h88v28H16" id="ax"/><path d="M100-194c62-1 85 37 85 99 1 63-27 99-86 99S16-35 15-95c0-66 28-99 85-99zM99-20c44 1 53-31 53-75 0-43-8-75-51-75s-53 32-53 75 10 74 51 75" id="ay"/><path d="M179-190L93 31C79 59 56 82 12 73V49c39 6 53-20 64-50L1-190h34L92-34l54-156h33" id="az"/><g id="l"><use transform="matrix(0.06975308641975307,0,0,0.06975308641975307,0,0)" xlink:href="#aq"/><use transform="matrix(0.06975308641975307,0,0,0.06975308641975307,6.975308641975307,0)" xlink:href="#ar"/><use transform="matrix(0.06975308641975307,0,0,0.06975308641975307,12.485802469135798,0)" xlink:href="#ar"/><use transform="matrix(0.06975308641975307,0,0,0.06975308641975307,17.99629629629629,0)" xlink:href="#as"/><use transform="matrix(0.06975308641975307,0,0,0.06975308641975307,31.946913580246903,0)" xlink:href="#at"/><use transform="matrix(0.06975308641975307,0,0,0.06975308641975307,52.80308641975307,0)" xlink:href="#au"/><use transform="matrix(0.06975308641975307,0,0,0.06975308641975307,58.31358024691357,0)" xlink:href="#av"/><use transform="matrix(0.06975308641975307,0,0,0.06975308641975307,72.26419753086418,0)" xlink:href="#aw"/><use transform="matrix(0.06975308641975307,0,0,0.06975308641975307,86.21481481481479,0)" xlink:href="#ax"/><use transform="matrix(0.06975308641975307,0,0,0.06975308641975307,94.5154320987654,0)" xlink:href="#ay"/><use transform="matrix(0.06975308641975307,0,0,0.06975308641975307,108.46604938271602,0)" xlink:href="#av"/><use transform="matrix(0.06975308641975307,0,0,0.06975308641975307,122.41666666666663,0)" xlink:href="#ar"/><use transform="matrix(0.06975308641975307,0,0,0.06975308641975307,127.92716049382712,0)" xlink:href="#az"/></g><path d="M190 0L58-211 59 0H30v-248h39L202-35l-2-213h31V0h-41" id="aA"/><path d="M115-194c55 1 70 41 70 98S169 2 115 4C84 4 66-9 55-30l1 105H24l-1-265h31l2 30c10-21 28-34 59-34zm-8 174c40 0 45-34 45-75s-6-73-45-74c-42 0-51 32-51 76 0 43 10 73 51 73" id="aB"/><path d="M114-163C36-179 61-72 57 0H25l-1-190h30c1 12-1 29 2 39 6-27 23-49 58-41v29" id="aC"/><path d="M100-194c63 0 86 42 84 106H49c0 40 14 67 53 68 26 1 43-12 49-29l28 8c-11 28-37 45-77 45C44 4 14-33 15-96c1-61 26-98 85-98zm52 81c6-60-76-77-97-28-3 7-6 17-6 28h103" id="aD"/><path d="M0 4l72-265h28L28 4H0" id="aE"/><path d="M177-190C167-65 218 103 67 71c-23-6-38-20-44-43l32-5c15 47 100 32 89-28v-30C133-14 115 1 83 1 29 1 15-40 15-95c0-56 16-97 71-98 29-1 48 16 59 35 1-10 0-23 2-32h30zM94-22c36 0 50-32 50-73 0-42-14-75-50-75-39 0-46 34-46 75s6 73 46 73" id="aF"/><path d="M85-194c31 0 48 13 60 33l-1-100h32l1 261h-30c-2-10 0-23-3-31C134-8 116 4 85 4 32 4 16-35 15-94c0-66 23-100 70-100zm9 24c-40 0-46 34-46 75 0 40 6 74 45 74 42 0 51-32 51-76 0-42-9-74-50-73" id="aG"/><g id="m"><use transform="matrix(0.06975308641975307,0,0,0.06975308641975307,0,0)" xlink:href="#aA"/><use transform="matrix(0.06975308641975307,0,0,0.06975308641975307,18.066049382716045,0)" xlink:href="#aw"/><use transform="matrix(0.06975308641975307,0,0,0.06975308641975307,32.01666666666666,0)" xlink:href="#av"/><use transform="matrix(0.06975308641975307,0,0,0.06975308641975307,45.96728395061727,0)" xlink:href="#ay"/><use transform="matrix(0.06975308641975307,0,0,0.06975308641975307,59.917901234567886,0)" xlink:href="#aB"/><use transform="matrix(0.06975308641975307,0,0,0.06975308641975307,73.8685185185185,0)" xlink:href="#ay"/><use transform="matrix(0.06975308641975307,0,0,0.06975308641975307,87.8191358024691,0)" xlink:href="#aC"/><use transform="matrix(0.06975308641975307,0,0,0.06975308641975307,96.11975308641972,0)" xlink:href="#aD"/><use transform="matrix(0.06975308641975307,0,0,0.06975308641975307,110.07037037037034,0)" xlink:href="#aE"/><use transform="matrix(0.06975308641975307,0,0,0.06975308641975307,117.04567901234564,0)" xlink:href="#ar"/><use transform="matrix(0.06975308641975307,0,0,0.06975308641975307,122.55617283950613,0)" xlink:href="#ay"/><use transform="matrix(0.06975308641975307,0,0,0.06975308641975307,136.50679012345674,0)" xlink:href="#av"/><use transform="matrix(0.06975308641975307,0,0,0.06975308641975307,150.45740740740735,0)" xlink:href="#aF"/><use transform="matrix(0.06975308641975307,0,0,0.06975308641975307,164.40802469135795,0)" xlink:href="#ax"/><use transform="matrix(0.06975308641975307,0,0,0.06975308641975307,172.70864197530858,0)" xlink:href="#aC"/><use transform="matrix(0.06975308641975307,0,0,0.06975308641975307,181.00925925925918,0)" xlink:href="#aD"/><use transform="matrix(0.06975308641975307,0,0,0.06975308641975307,194.95987654320982,0)" xlink:href="#aw"/><use transform="matrix(0.06975308641975307,0,0,0.06975308641975307,208.9104938271604,0)" xlink:href="#aG"/><use transform="matrix(0.06975308641975307,0,0,0.06975308641975307,222.861111111111,0)" xlink:href="#ax"/><use transform="matrix(0.06975308641975307,0,0,0.06975308641975307,231.1617283950616,0)" xlink:href="#ay"/><use transform="matrix(0.06975308641975307,0,0,0.06975308641975307,245.11234567901224,0)" xlink:href="#av"/><use transform="matrix(0.06975308641975307,0,0,0.06975308641975307,259.06296296296284,0)" xlink:href="#ar"/><use transform="matrix(0.06975308641975307,0,0,0.06975308641975307,264.5734567901233,0)" xlink:href="#az"/></g><path d="M212-179c-10-28-35-45-73-45-59 0-87 40-87 99 0 60 29 101 89 101 43 0 62-24 78-52l27 14C228-24 195 4 139 4 59 4 22-46 18-125c-6-104 99-153 187-111 19 9 31 26 39 46" id="aH"/><path d="M135-143c-3-34-86-38-87 0 15 53 115 12 119 90S17 21 10-45l28-5c4 36 97 45 98 0-10-56-113-15-118-90-4-57 82-63 122-42 12 7 21 19 24 35" id="aI"/><path d="M59-47c-2 24 18 29 38 22v24C64 9 27 4 27-40v-127H5v-23h24l9-43h21v43h35v23H59v120" id="aJ"/><path d="M101-234c-31-9-42 10-38 44h38v23H63V0H32v-167H5v-23h27c-7-52 17-82 69-68v24" id="aK"/><g id="n"><use transform="matrix(0.06975308641975307,0,0,0.06975308641975307,0,0)" xlink:href="#aH"/><use transform="matrix(0.06975308641975307,0,0,0.06975308641975307,18.066049382716045,0)" xlink:href="#aC"/><use transform="matrix(0.06975308641975307,0,0,0.06975308641975307,26.36666666666666,0)" xlink:href="#ay"/><use transform="matrix(0.06975308641975307,0,0,0.06975308641975307,40.31728395061727,0)" xlink:href="#aI"/><use transform="matrix(0.06975308641975307,0,0,0.06975308641975307,52.872839506172824,0)" xlink:href="#aI"/><use transform="matrix(0.06975308641975307,0,0,0.06975308641975307,65.42839506172838,0)" xlink:href="#ax"/><use transform="matrix(0.06975308641975307,0,0,0.06975308641975307,73.729012345679,0)" xlink:href="#aB"/><use transform="matrix(0.06975308641975307,0,0,0.06975308641975307,87.6796296296296,0)" xlink:href="#ar"/><use transform="matrix(0.06975308641975307,0,0,0.06975308641975307,93.19012345679009,0)" xlink:href="#aw"/><use transform="matrix(0.06975308641975307,0,0,0.06975308641975307,107.14074074074071,0)" xlink:href="#aJ"/><use transform="matrix(0.06975308641975307,0,0,0.06975308641975307,114.11604938271601,0)" xlink:href="#aK"/><use transform="matrix(0.06975308641975307,0,0,0.06975308641975307,121.09135802469132,0)" xlink:href="#ay"/><use transform="matrix(0.06975308641975307,0,0,0.06975308641975307,135.04197530864192,0)" xlink:href="#aC"/><use transform="matrix(0.06975308641975307,0,0,0.06975308641975307,143.34259259259255,0)" xlink:href="#at"/></g><path fill="#3a414a" d="M143 0L79-87 56-68V0H24v-261h32v163l83-92h37l-77 82L181 0h-38" id="aL"/><g id="o"><use transform="matrix(0.06172839506172839,0,0,0.06172839506172839,0,0)" xlink:href="#x"/><use transform="matrix(0.06172839506172839,0,0,0.06172839506172839,11.11111111111111,0)" xlink:href="#u"/><use transform="matrix(0.06172839506172839,0,0,0.06172839506172839,23.45679012345679,0)" xlink:href="#A"/><use transform="matrix(0.06172839506172839,0,0,0.06172839506172839,35.80246913580247,0)" xlink:href="#aL"/><use transform="matrix(0.06172839506172839,0,0,0.06172839506172839,46.91358024691358,0)" xlink:href="#I"/><use transform="matrix(0.06172839506172839,0,0,0.06172839506172839,51.79012345679013,0)" xlink:href="#H"/><use transform="matrix(0.06172839506172839,0,0,0.06172839506172839,57.96296296296297,0)" xlink:href="#N"/></g><path fill="#3a414a" d="M30-248c118-7 216 8 213 122C240-48 200 0 122 0H30v-248zM63-27c89 8 146-16 146-99s-60-101-146-95v194" id="aM"/><path fill="#3a414a" d="M16-82v-28h88v28H16" id="aN"/><path fill="#3a414a" d="M233-177c-1 41-23 64-60 70L243 0h-38l-65-103H63V0H30v-248c88 3 205-21 203 71zM63-129c60-2 137 13 137-47 0-61-80-42-137-45v92" id="aO"/><path fill="#3a414a" d="M115-194c55 1 70 41 70 98S169 2 115 4C84 4 66-9 55-30l1 105H24l-1-265h31l2 30c10-21 28-34 59-34zm-8 174c40 0 45-34 45-75s-6-73-45-74c-42 0-51 32-51 76 0 43 10 73 51 73" id="aP"/><g id="p"><use transform="matrix(0.06172839506172839,0,0,0.06172839506172839,0,0)" xlink:href="#r"/><use transform="matrix(0.06172839506172839,0,0,0.06172839506172839,15.987654320987653,0)" xlink:href="#aM"/><use transform="matrix(0.06172839506172839,0,0,0.06172839506172839,31.975308641975307,0)" xlink:href="#aN"/><use transform="matrix(0.06172839506172839,0,0,0.06172839506172839,39.32098765432099,0)" xlink:href="#V"/><use transform="matrix(0.06172839506172839,0,0,0.06172839506172839,55.30864197530864,0)" xlink:href="#W"/><use transform="matrix(0.06172839506172839,0,0,0.06172839506172839,61.48148148148148,0)" xlink:href="#X"/><use transform="matrix(0.06172839506172839,0,0,0.06172839506172839,75,0)" xlink:href="#N"/><use transform="matrix(0.06172839506172839,0,0,0.06172839506172839,81.17283950617283,0)" xlink:href="#w"/><use transform="matrix(0.06172839506172839,0,0,0.06172839506172839,93.51851851851852,0)" xlink:href="#aO"/><use transform="matrix(0.06172839506172839,0,0,0.06172839506172839,109.50617283950618,0)" xlink:href="#u"/><use transform="matrix(0.06172839506172839,0,0,0.06172839506172839,121.85185185185186,0)" xlink:href="#aP"/></g></defs></g></svg>