<svg xmlns="http://www.w3.org/2000/svg" xmlns:xlink="http://www.w3.org/1999/xlink" xmlns:lucid="lucid" width="1420" height="468.67"><g transform="translate(-40 -178.33333318360573)" lucid:page-tab-id="0_0"><path d="M120 226a6 6 0 0 1 6-6h186a6 6 0 0 1 6 6v45c-33.07-8.52-53.66-8.52-66.13-8.52-19.8 0-46.14 8.52-65.94 8.52-12.27 0-33.06 0-65.93-8.52z" stroke="#3a414a" fill="#f2f3f5"/><path d="M131 230.5a6 6 0 0 1 6-6h186a6 6 0 0 1 6 6v45c-33.07-8.52-53.66-8.52-66.13-8.52-19.8 0-46.14 8.52-65.94 8.52-12.27 0-33.06 0-65.93-8.52z" stroke="#3a414a" fill="#f2f3f5"/><path d="M142 235a6 6 0 0 1 6-6h186a6 6 0 0 1 6 6v45c-33.07-8.52-53.66-8.52-66.13-8.52-19.8 0-46.14 8.52-65.94 8.52-12.27 0-33.06 0-65.93-8.52z" stroke="#3a414a" fill="#f2f3f5"/><use xlink:href="#a" transform="matrix(1,0,0,1,147,234) translate(8.290123456790127 20.944444444444443)"/><path d="M1260 276.6a6 6 0 0 1 6-6h150a6 6 0 0 1 6 6v70c-27.05-12.7-43.9-12.7-54.1-12.7-16.2 0-37.75 12.7-53.95 12.7-10.05 0-27.06 0-53.95-12.7z" stroke="#3a414a" fill="#f2f3f5"/><path d="M1269 283.3a6 6 0 0 1 6-6h150a6 6 0 0 1 6 6v70c-27.05-12.7-43.9-12.7-54.1-12.7-16.2 0-37.75 12.7-53.95 12.7-10.05 0-27.06 0-53.95-12.7z" stroke="#3a414a" fill="#f2f3f5"/><path d="M1278 290a6 6 0 0 1 6-6h150a6 6 0 0 1 6 6v70c-27.05-12.7-43.9-12.7-54.1-12.7-16.2 0-37.75 12.7-53.95 12.7-10.05 0-27.06 0-53.95-12.7z" stroke="#3a414a" fill="#f2f3f5"/><use xlink:href="#b" transform="matrix(1,0,0,1,1283,289.00000000000006) translate(6.012345679012341 31.27777777777778)"/><path d="M1020 284.33a6 6 0 0 1 6-6h188a6 6 0 0 1 6 6v51.34a6 6 0 0 1-6 6h-188a6 6 0 0 1-6-6z" stroke="#3a414a" fill="#6db1ff"/><path d="M1040 278.33v63.34m160-63.34v63.34" stroke="#3a414a" fill="none"/><use xlink:href="#c" transform="matrix(1,0,0,1,1050,283.33333333333337) translate(12.283950617283956 18.111111111111114)"/><use xlink:href="#d" transform="matrix(1,0,0,1,1050,283.33333333333337) translate(-3.3333333333333286 44.777777777777786)"/><path d="M140 433.67a12 12 0 0 1 12-12h349.14a12 12 0 0 1 12 12V615a12 12 0 0 1-12 12H152a12 12 0 0 1-12-12z" stroke="#dfe3e8" stroke-width="2" fill="#fff"/><path d="M196 508.6c0 6.63-5.37 12-12 12s-12-5.37-12-12 5.37-12 12-12 12 5.37 12 12z" stroke="#000" stroke-opacity=".25" fill="#54c45e"/><path d="M196 546.73c0 6.63-5.37 12-12 12s-12-5.37-12-12c0-6.62 5.37-12 12-12s12 5.38 12 12z" stroke="#000" stroke-opacity=".25" fill="#fc9432"/><path d="M196 584.87c0 6.62-5.37 12-12 12s-12-5.38-12-12c0-6.63 5.37-12 12-12s12 5.37 12 12z" stroke="#000" stroke-opacity=".25" fill="#6db1ff"/><use xlink:href="#e" transform="matrix(1,0,0,1,172,445.66666666666674) translate(0 23.322222222222223)"/><use xlink:href="#f" transform="matrix(1,0,0,1,204,496.6000000000001) translate(0 20.522222222222222)"/><use xlink:href="#g" transform="matrix(1,0,0,1,204,534.7333333333333) translate(0 20.522222222222222)"/><use xlink:href="#h" transform="matrix(1,0,0,1,204,572.8666666666668) translate(0 20.522222222222222)"/><path d="M60 326a6 6 0 0 1 6-6h240a6 6 0 0 1 6 6v70c-42.08-12.7-68.3-12.7-84.17-12.7-25.2 0-58.7 12.7-83.9 12.7-15.64 0-42.1 0-83.93-12.7z" stroke="#3a414a" fill="#f2f3f5"/><path d="M74 332.7a6 6 0 0 1 6-6h240a6 6 0 0 1 6 6v70C283.92 390 257.7 390 241.83 390c-25.2 0-58.7 12.7-83.9 12.7-15.64 0-42.1 0-83.93-12.7z" stroke="#3a414a" fill="#f2f3f5"/><path d="M88 339.4a6 6 0 0 1 6-6h240a6 6 0 0 1 6 6v70c-42.08-12.68-68.3-12.68-84.17-12.68-25.2 0-58.7 12.7-83.9 12.7-15.64 0-42.1 0-83.93-12.7z" stroke="#3a414a" fill="#f2f3f5"/><use xlink:href="#i" transform="matrix(1,0,0,1,93,338.4117647058824) translate(14.364197530864217 18.111111111111114)"/><use xlink:href="#j" transform="matrix(1,0,0,1,93,338.4117647058824) translate(9.425925925925952 44.777777777777786)"/><a xlink:href="http://alignment.sorted.index" target="_blank" transform="matrix(1,0,0,1,93,338.4117647058824)"><path class="lucid-link lucid-hotspot lucid-overlay-hotspot" fill-opacity="0" d="M9.43 27h223.15v26.67H9.43z"/></a><path d="M614 204.33a6 6 0 0 1 6-6h170a6 6 0 0 1 6 6v51.34a6 6 0 0 1-6 6H620a6 6 0 0 1-6-6z" stroke="#3a414a" fill="#6db1ff"/><path d="M632.2 198.33v63.34m145.6-63.34v63.34" stroke="#3a414a" fill="none"/><use xlink:href="#k" transform="matrix(1,0,0,1,641.7539711801625,203.3333333333333) translate(15.47530864197531 31.444444444444443)"/><path d="M415.12 265.8a7.8 7.8 0 0 1 7.55-5.8H544a4.6 4.6 0 0 1 4.45 5.8l-23.57 88.4a7.8 7.8 0 0 1-7.55 5.8H396a4.6 4.6 0 0 1-4.45-5.8z" stroke="#3a414a" fill="#fff"/><use xlink:href="#l" transform="matrix(1,0,0,1,395,265) translate(27.066728395061727 23.40277777777778)"/><use xlink:href="#m" transform="matrix(1,0,0,1,395,265) translate(25.62228395061728 50.06944444444445)"/><use xlink:href="#n" transform="matrix(1,0,0,1,395,265) translate(68.83216049382716 50.06944444444445)"/><use xlink:href="#o" transform="matrix(1,0,0,1,395,265) translate(32.295123456790115 76.73611111111111)"/><path d="M341.95 250.02h23.56a6 6 0 0 1 6 6v49.1a6 6 0 0 0 6 6h4.44" stroke="#3a414a" stroke-width="3" fill="none"/><path d="M342 251.52h-1.55v-3H342z" stroke="#3a414a" stroke-width=".05" fill="#3a414a"/><path d="M397.7 311.1l-14.26 4.64v-9.27z" stroke="#3a414a" stroke-width="3" fill="#3a414a"/><path d="M341.95 364.73h23.7a6 6 0 0 0 6-6V316a6 6 0 0 1 6-6h4.6" stroke="#3a414a" stroke-width="3" fill="none"/><path d="M342 366.23h-1.55v-3H342z" stroke="#3a414a" stroke-width=".05" fill="#3a414a"/><path d="M398 310l-14.26 4.64v-9.28z" stroke="#3a414a" stroke-width="3" fill="#3a414a"/><path d="M614 284.33a6 6 0 0 1 6-6h170a6 6 0 0 1 6 6v51.34a6 6 0 0 1-6 6H620a6 6 0 0 1-6-6z" stroke="#3a414a" fill="#6db1ff"/><path d="M632.2 278.33v63.34m145.6-63.34v63.34" stroke="#3a414a" fill="none"/><use xlink:href="#p" transform="matrix(1,0,0,1,641.7539711801625,283.33333333333337) translate(11.925925925925924 31.444444444444443)"/><path d="M614 364.33a6 6 0 0 1 6-6h170a6 6 0 0 1 6 6v51.34a6 6 0 0 1-6 6H620a6 6 0 0 1-6-6z" stroke="#3a414a" fill="#6db1ff"/><path d="M632.2 358.33v63.34m145.6-63.34v63.34" stroke="#3a414a" fill="none"/><use xlink:href="#q" transform="matrix(1,0,0,1,641.7539711801625,363.3333333333334) translate(20.351851851851848 31.444444444444443)"/><path d="M538.64 310h30.7a6 6 0 0 0 6-6v-68a6 6 0 0 1 6-6h11.58" stroke="#3a414a" stroke-width="3" fill="none"/><path d="M538.68 311.5h-1.93l.8-3h1.13z" stroke="#3a414a" stroke-width=".05" fill="#3a414a"/><path d="M608.7 230l-14.28 4.64v-9.28z" stroke="#3a414a" stroke-width="3" fill="#3a414a"/><path d="M538.64 310h54.28" stroke="#3a414a" stroke-width="3" fill="none"/><path d="M538.68 311.5h-1.93l.8-3h1.13z" stroke="#3a414a" stroke-width=".05" fill="#3a414a"/><path d="M608.7 310l-14.28 4.64v-9.28z" stroke="#3a414a" stroke-width="3" fill="#3a414a"/><path d="M538.64 310h30.7a6 6 0 0 1 6 6v68a6 6 0 0 0 6 6h11.58" stroke="#3a414a" stroke-width="3" fill="none"/><path d="M538.68 311.5h-1.93l.8-3h1.13z" stroke="#3a414a" stroke-width=".05" fill="#3a414a"/><path d="M608.7 390l-14.28 4.64v-9.28z" stroke="#3a414a" stroke-width="3" fill="#3a414a"/><path d="M797.96 390h34.02" stroke="#3a414a" stroke-width="3" fill="none"/><path d="M798 391.5h-1.54v-3H798z" stroke="#3a414a" stroke-width=".05" fill="#3a414a"/><path d="M847.75 390l-14.27 4.64v-9.28z" stroke="#3a414a" stroke-width="3" fill="#3a414a"/><path d="M797.96 310h34.02" stroke="#3a414a" stroke-width="3" fill="none"/><path d="M798 311.5h-1.54v-3H798z" stroke="#3a414a" stroke-width=".05" fill="#3a414a"/><path d="M847.75 310l-14.27 4.64v-9.28z" stroke="#3a414a" stroke-width="3" fill="#3a414a"/><path d="M797.96 230h34.02" stroke="#3a414a" stroke-width="3" fill="none"/><path d="M798 231.5h-1.54v-3H798z" stroke="#3a414a" stroke-width=".05" fill="#3a414a"/><path d="M847.75 230l-14.27 4.64v-9.28z" stroke="#3a414a" stroke-width="3" fill="#3a414a"/><path d="M948.85 230h28.6a6 6 0 0 1 6 6v68a6 6 0 0 0 6 6h9.47" stroke="#3a414a" stroke-width="3" fill="none"/><path d="M948.9 231.5h-1.55v-3h1.54z" stroke="#3a414a" stroke-width=".05" fill="#3a414a"/><path d="M1014.68 310l-14.26 4.64v-9.28z" stroke="#3a414a" stroke-width="3" fill="#3a414a"/><path d="M948.85 310h50.07" stroke="#3a414a" stroke-width="3" fill="none"/><path d="M948.9 311.5h-1.55v-3h1.54z" stroke="#3a414a" stroke-width=".05" fill="#3a414a"/><path d="M1014.68 310l-14.26 4.64v-9.28z" stroke="#3a414a" stroke-width="3" fill="#3a414a"/><path d="M948.85 390h28.6a6 6 0 0 0 6-6v-68a6 6 0 0 1 6-6h9.47" stroke="#3a414a" stroke-width="3" fill="none"/><path d="M948.9 391.5h-1.55v-3h1.54z" stroke="#3a414a" stroke-width=".05" fill="#3a414a"/><path d="M1014.68 310l-14.26 4.64v-9.28z" stroke="#3a414a" stroke-width="3" fill="#3a414a"/><path d="M1221.96 310h16.92" stroke="#3a414a" stroke-width="3" fill="none"/><path d="M1222 311.5h-1.53v-3h1.53z" stroke="#3a414a" stroke-width=".05" fill="#3a414a"/><path d="M1254.65 310l-14.27 4.64v-9.28z" stroke="#3a414a" stroke-width="3" fill="#3a414a"/><path d="M1081.97 375.8a7.8 7.8 0 0 1 7.54-5.8h87.66a4.6 4.6 0 0 1 4.45 5.8l-23.57 88.4a7.8 7.8 0 0 1-7.54 5.8h-87.66a4.6 4.6 0 0 1-4.45-5.8z" stroke="#3a414a" fill="#fff"/><use xlink:href="#r" transform="matrix(1,0,0,1,1061.8444974243996,375.0000000000001) translate(22.764259259259255 37.46527777777778)"/><use xlink:href="#s" transform="matrix(1,0,0,1,1061.8444974243996,375.0000000000001) translate(25.054382716049382 64.13194444444446)"/><path d="M1120 343.63v5.3" stroke="#3a414a" stroke-width="3" fill="none"/><path d="M1121.5 343.67h-3v-1.54h3z" stroke="#3a414a" stroke-width=".05" fill="#3a414a"/><path d="M1120 364.7l-4.64-14.28h9.28z" stroke="#3a414a" stroke-width="3" fill="#3a414a"/><path d="M853.1 364.33a6 6 0 0 1 6-6h72.42a6 6 0 0 1 6 6v47.84c-14.1-9-22.88-9-28.2-9-8.44 0-19.67 9-28.1 9-5.24 0-14.1 0-28.12-9z" stroke="#3a414a" fill="#f2f3f5"/><path d="M857.8 369.08a6 6 0 0 1 6-6h72.4a6 6 0 0 1 6 6v47.84c-14.1-9-22.87-9-28.2-9-8.43 0-19.66 9-28.1 9-5.23 0-14.1 0-28.1-9z" stroke="#3a414a" fill="#f2f3f5"/><path d="M862.48 373.83a6 6 0 0 1 6-6h72.42a6 6 0 0 1 6 6v47.84c-14.1-9-22.88-9-28.2-9-8.44 0-19.67 9-28.1 9-5.24 0-14.1 0-28.12-9z" stroke="#3a414a" fill="#f2f3f5"/><use xlink:href="#t" transform="matrix(1,0,0,1,867.4802753834567,372.8333333333334) translate(11.574074074074073 17.77777777777778)"/><path d="M853.1 284.33a6 6 0 0 1 6-6h72.42a6 6 0 0 1 6 6v47.84c-14.1-9-22.88-9-28.2-9-8.44 0-19.67 9-28.1 9-5.24 0-14.1 0-28.12-9z" stroke="#3a414a" fill="#f2f3f5"/><path d="M857.8 289.08a6 6 0 0 1 6-6h72.4a6 6 0 0 1 6 6v47.84c-14.1-9-22.87-9-28.2-9-8.43 0-19.66 9-28.1 9-5.23 0-14.1 0-28.1-9z" stroke="#3a414a" fill="#f2f3f5"/><path d="M862.48 293.83a6 6 0 0 1 6-6h72.42a6 6 0 0 1 6 6v47.84c-14.1-9-22.88-9-28.2-9-8.44 0-19.67 9-28.1 9-5.24 0-14.1 0-28.12-9z" stroke="#3a414a" fill="#f2f3f5"/><use xlink:href="#t" transform="matrix(1,0,0,1,867.4802753834567,292.83333325846957) translate(11.574074074074073 17.77777777777778)"/><path d="M853.1 204.33a6 6 0 0 1 6-6h72.42a6 6 0 0 1 6 6v47.84c-14.1-9-22.88-9-28.2-9-8.44 0-19.67 9-28.1 9-5.24 0-14.1 0-28.12-9z" stroke="#3a414a" fill="#f2f3f5"/><path d="M857.8 209.08a6 6 0 0 1 6-6h72.4a6 6 0 0 1 6 6v47.84c-14.1-9-22.87-9-28.2-9-8.43 0-19.66 9-28.1 9-5.23 0-14.1 0-28.1-9z" stroke="#3a414a" fill="#f2f3f5"/><path d="M862.48 213.83a6 6 0 0 1 6-6h72.42a6 6 0 0 1 6 6v47.84c-14.1-9-22.88-9-28.2-9-8.44 0-19.67 9-28.1 9-5.24 0-14.1 0-28.12-9z" stroke="#3a414a" fill="#f2f3f5"/><g><use xlink:href="#t" transform="matrix(1,0,0,1,867.4802753834567,212.83333318360573) translate(11.574074074074073 17.77777777777778)"/></g><path d="M1120 470.46" stroke="#3a414a" stroke-width="3" fill="none"/><path stroke="#3a414a" stroke-width=".05" fill="#3a414a"/><path d="M1115.15 470.46l-14.27 4.63v-9.28z" stroke="#3a414a" stroke-width="3" fill="#3a414a"/><defs><path fill="#3a414a" d="M101-234c-31-9-42 10-38 44h38v23H63V0H32v-167H5v-23h27c-7-52 17-82 69-68v24" id="u"/><path fill="#3a414a" d="M24-231v-30h32v30H24zM24 0v-190h32V0H24" id="v"/><path fill="#3a414a" d="M117-194c89-4 53 116 60 194h-32v-121c0-31-8-49-39-48C34-167 62-67 57 0H25l-1-190h30c1 10-1 24 2 32 11-22 29-35 61-36" id="w"/><path fill="#3a414a" d="M141-36C126-15 110 5 73 4 37 3 15-17 15-53c-1-64 63-63 125-63 3-35-9-54-41-54-24 1-41 7-42 31l-33-3c5-37 33-52 76-52 45 0 72 20 72 64v82c-1 20 7 32 28 27v20c-31 9-61-2-59-35zM48-53c0 20 12 33 32 33 41-3 63-29 60-74-43 2-92-5-92 41" id="x"/><path fill="#3a414a" d="M24 0v-261h32V0H24" id="y"/><path fill="#3a414a" d="M33 0v-38h34V0H33" id="z"/><path fill="#3a414a" d="M96-169c-40 0-48 33-48 73s9 75 48 75c24 0 41-14 43-38l32 2c-6 37-31 61-74 61-59 0-76-41-82-99-10-93 101-131 147-64 4 7 5 14 7 22l-32 3c-4-21-16-35-41-35" id="A"/><path fill="#3a414a" d="M100-194c62-1 85 37 85 99 1 63-27 99-86 99S16-35 15-95c0-66 28-99 85-99zM99-20c44 1 53-31 53-75 0-43-8-75-51-75s-53 32-53 75 10 74 51 75" id="B"/><path fill="#3a414a" d="M59-47c-2 24 18 29 38 22v24C64 9 27 4 27-40v-127H5v-23h24l9-43h21v43h35v23H59v120" id="C"/><path fill="#3a414a" d="M177-190C167-65 218 103 67 71c-23-6-38-20-44-43l32-5c15 47 100 32 89-28v-30C133-14 115 1 83 1 29 1 15-40 15-95c0-56 16-97 71-98 29-1 48 16 59 35 1-10 0-23 2-32h30zM94-22c36 0 50-32 50-73 0-42-14-75-50-75-39 0-46 34-46 75s6 73 46 73" id="D"/><path fill="#3a414a" d="M135-143c-3-34-86-38-87 0 15 53 115 12 119 90S17 21 10-45l28-5c4 36 97 45 98 0-10-56-113-15-118-90-4-57 82-63 122-42 12 7 21 19 24 35" id="E"/><g id="a"><use transform="matrix(0.06172839506172839,0,0,0.06172839506172839,0,0)" xlink:href="#u"/><use transform="matrix(0.06172839506172839,0,0,0.06172839506172839,6.172839506172839,0)" xlink:href="#v"/><use transform="matrix(0.06172839506172839,0,0,0.06172839506172839,11.049382716049383,0)" xlink:href="#w"/><use transform="matrix(0.06172839506172839,0,0,0.06172839506172839,23.395061728395063,0)" xlink:href="#x"/><use transform="matrix(0.06172839506172839,0,0,0.06172839506172839,35.74074074074074,0)" xlink:href="#y"/><use transform="matrix(0.06172839506172839,0,0,0.06172839506172839,40.617283950617285,0)" xlink:href="#z"/><use transform="matrix(0.06172839506172839,0,0,0.06172839506172839,46.79012345679013,0)" xlink:href="#A"/><use transform="matrix(0.06172839506172839,0,0,0.06172839506172839,57.90123456790124,0)" xlink:href="#B"/><use transform="matrix(0.06172839506172839,0,0,0.06172839506172839,70.24691358024693,0)" xlink:href="#w"/><use transform="matrix(0.06172839506172839,0,0,0.06172839506172839,82.59259259259261,0)" xlink:href="#C"/><use transform="matrix(0.06172839506172839,0,0,0.06172839506172839,88.76543209876544,0)" xlink:href="#v"/><use transform="matrix(0.06172839506172839,0,0,0.06172839506172839,93.64197530864199,0)" xlink:href="#D"/><use transform="matrix(0.06172839506172839,0,0,0.06172839506172839,105.98765432098767,0)" xlink:href="#E"/><use transform="matrix(0.06172839506172839,0,0,0.06172839506172839,117.09876543209879,0)" xlink:href="#z"/><use transform="matrix(0.06172839506172839,0,0,0.06172839506172839,123.27160493827162,0)" xlink:href="#u"/><use transform="matrix(0.06172839506172839,0,0,0.06172839506172839,129.44444444444446,0)" xlink:href="#x"/><use transform="matrix(0.06172839506172839,0,0,0.06172839506172839,141.79012345679013,0)" xlink:href="#E"/><use transform="matrix(0.06172839506172839,0,0,0.06172839506172839,152.90123456790124,0)" xlink:href="#C"/><use transform="matrix(0.06172839506172839,0,0,0.06172839506172839,159.07407407407408,0)" xlink:href="#x"/></g><path fill="#3a414a" d="M114-163C36-179 61-72 57 0H25l-1-190h30c1 12-1 29 2 39 6-27 23-49 58-41v29" id="F"/><path fill="#3a414a" d="M100-194c63 0 86 42 84 106H49c0 40 14 67 53 68 26 1 43-12 49-29l28 8c-11 28-37 45-77 45C44 4 14-33 15-96c1-61 26-98 85-98zm52 81c6-60-76-77-97-28-3 7-6 17-6 28h103" id="G"/><path fill="#3a414a" d="M85-194c31 0 48 13 60 33l-1-100h32l1 261h-30c-2-10 0-23-3-31C134-8 116 4 85 4 32 4 16-35 15-94c0-66 23-100 70-100zm9 24c-40 0-46 34-46 75 0 40 6 74 45 74 42 0 51-32 51-76 0-42-9-74-50-73" id="H"/><path fill="#3a414a" d="M-5 72V49h209v23H-5" id="I"/><path fill="#3a414a" d="M115-194c53 0 69 39 70 98 0 66-23 100-70 100C84 3 66-7 56-30L54 0H23l1-261h32v101c10-23 28-34 59-34zm-8 174c40 0 45-34 45-75 0-40-5-75-45-74-42 0-51 32-51 76 0 43 10 73 51 73" id="J"/><path fill="#3a414a" d="M0 4l72-265h28L28 4H0" id="K"/><g id="b"><use transform="matrix(0.06172839506172839,0,0,0.06172839506172839,0,0)" xlink:href="#F"/><use transform="matrix(0.06172839506172839,0,0,0.06172839506172839,7.345679012345679,0)" xlink:href="#G"/><use transform="matrix(0.06172839506172839,0,0,0.06172839506172839,19.691358024691358,0)" xlink:href="#u"/><use transform="matrix(0.06172839506172839,0,0,0.06172839506172839,25.864197530864196,0)" xlink:href="#v"/><use transform="matrix(0.06172839506172839,0,0,0.06172839506172839,30.74074074074074,0)" xlink:href="#w"/><use transform="matrix(0.06172839506172839,0,0,0.06172839506172839,43.08641975308642,0)" xlink:href="#G"/><use transform="matrix(0.06172839506172839,0,0,0.06172839506172839,55.432098765432094,0)" xlink:href="#H"/><use transform="matrix(0.06172839506172839,0,0,0.06172839506172839,67.77777777777777,0)" xlink:href="#I"/><use transform="matrix(0.06172839506172839,0,0,0.06172839506172839,80.12345679012346,0)" xlink:href="#J"/><use transform="matrix(0.06172839506172839,0,0,0.06172839506172839,92.46913580246914,0)" xlink:href="#v"/><use transform="matrix(0.06172839506172839,0,0,0.06172839506172839,97.34567901234568,0)" xlink:href="#w"/><use transform="matrix(0.06172839506172839,0,0,0.06172839506172839,109.69135802469137,0)" xlink:href="#E"/><use transform="matrix(0.06172839506172839,0,0,0.06172839506172839,120.80246913580248,0)" xlink:href="#K"/></g><path fill="#3a414a" d="M240 0l2-218c-23 76-54 145-80 218h-23L58-218 59 0H30v-248h44l77 211c21-75 51-140 76-211h43V0h-30" id="L"/><path fill="#3a414a" d="M266 0h-40l-56-210L115 0H75L2-248h35L96-30l15-64 43-154h32l59 218 59-218h35" id="M"/><path fill="#3a414a" d="M233-177c-1 41-23 64-60 70L243 0h-38l-65-103H63V0H30v-248c88 3 205-21 203 71zM63-129c60-2 137 13 137-47 0-61-80-42-137-45v92" id="N"/><path fill="#3a414a" d="M205 0l-28-72H64L36 0H1l101-248h38L239 0h-34zm-38-99l-47-123c-12 45-31 82-46 123h93" id="O"/><path fill="#3a414a" d="M30-248c87 1 191-15 191 75 0 78-77 80-158 76V0H30v-248zm33 125c57 0 124 11 124-50 0-59-68-47-124-48v98" id="P"/><g id="c"><use transform="matrix(0.06172839506172839,0,0,0.06172839506172839,0,0)" xlink:href="#L"/><use transform="matrix(0.06172839506172839,0,0,0.06172839506172839,18.456790123456788,0)" xlink:href="#G"/><use transform="matrix(0.06172839506172839,0,0,0.06172839506172839,30.80246913580247,0)" xlink:href="#C"/><use transform="matrix(0.06172839506172839,0,0,0.06172839506172839,36.97530864197531,0)" xlink:href="#x"/><use transform="matrix(0.06172839506172839,0,0,0.06172839506172839,49.32098765432099,0)" xlink:href="#M"/><use transform="matrix(0.06172839506172839,0,0,0.06172839506172839,70.24691358024691,0)" xlink:href="#N"/><use transform="matrix(0.06172839506172839,0,0,0.06172839506172839,86.23456790123457,0)" xlink:href="#O"/><use transform="matrix(0.06172839506172839,0,0,0.06172839506172839,101.04938271604938,0)" xlink:href="#P"/></g><path fill="#3a414a" d="M68-162c25-46 127-43 121 31C183-60 169 1 98 4 69 5 53-11 43-31L36 0H5l52-261h31zm88 36c2-27-9-43-34-43-55 0-70 51-70 103 0 29 15 45 43 46 52 0 58-58 61-106" id="Q"/><path fill="#3a414a" d="M50-231l6-30h32l-6 30H50zM6 0l37-190h31L37 0H6" id="R"/><path fill="#3a414a" d="M67-158c22-48 132-52 116 29L158 0h-32l25-140c3-38-53-32-70-12C52-117 51-52 38 0H6l36-190h30" id="S"/><path fill="#3a414a" d="M-28 44V31h207v13H-28" id="T"/><path fill="#3a414a" d="M66-151c12-25 30-51 66-40l-6 26C45-176 58-65 38 0H6l36-190h30" id="U"/><path fill="#3a414a" d="M111-194c62-3 86 47 72 106H45c-7 38 6 69 45 68 27-1 43-14 53-32l24 11C152-15 129 4 87 4 38 3 12-23 12-71c0-70 32-119 99-123zm44 81c14-66-71-72-95-28-4 8-8 17-11 28h106" id="V"/><path fill="#3a414a" d="M76-167L44 0H12l33-167H18l4-23h27c3-47 25-81 82-69l-4 24c-35-8-44 15-46 45h37l-5 23H76" id="W"/><path fill="#3a414a" d="M248-111c6-24 9-61-24-58-72 9-57 108-77 169h-31l26-142c3-37-50-30-64-10C52-115 50-51 37 0H6l36-190h30c-1 10-6 24-4 32 13-43 101-52 105 5 13-22 29-41 61-41 90 0 28 129 23 194h-31" id="X"/><path fill="#3a414a" d="M51-54c-9 22 5 41 31 30L79-1C43 14 10-4 19-52l22-115H19l5-23h22l19-43h21l-9 43h35l-4 23H73" id="Y"/><g id="d"><use transform="matrix(0.06172839506172839,0,0,0.06172839506172839,0,0)" xlink:href="#Q"/><use transform="matrix(0.06172839506172839,0,0,0.06172839506172839,12.345679012345679,0)" xlink:href="#R"/><use transform="matrix(0.06172839506172839,0,0,0.06172839506172839,17.22222222222222,0)" xlink:href="#S"/><use transform="matrix(0.06172839506172839,0,0,0.06172839506172839,29.5679012345679,0)" xlink:href="#T"/><use transform="matrix(0.06172839506172839,0,0,0.06172839506172839,41.913580246913575,0)" xlink:href="#U"/><use transform="matrix(0.06172839506172839,0,0,0.06172839506172839,49.25925925925925,0)" xlink:href="#V"/><use transform="matrix(0.06172839506172839,0,0,0.06172839506172839,61.60493827160493,0)" xlink:href="#W"/><use transform="matrix(0.06172839506172839,0,0,0.06172839506172839,67.77777777777777,0)" xlink:href="#R"/><use transform="matrix(0.06172839506172839,0,0,0.06172839506172839,72.65432098765432,0)" xlink:href="#S"/><use transform="matrix(0.06172839506172839,0,0,0.06172839506172839,85,0)" xlink:href="#V"/><use transform="matrix(0.06172839506172839,0,0,0.06172839506172839,97.34567901234568,0)" xlink:href="#X"/><use transform="matrix(0.06172839506172839,0,0,0.06172839506172839,115.80246913580247,0)" xlink:href="#V"/><use transform="matrix(0.06172839506172839,0,0,0.06172839506172839,128.14814814814815,0)" xlink:href="#S"/><use transform="matrix(0.06172839506172839,0,0,0.06172839506172839,140.49382716049382,0)" xlink:href="#Y"/></g><path d="M169-182c-1-43-94-46-97-3 18 66 151 10 154 114 3 95-165 93-204 36-6-8-10-19-12-30l50-8c3 46 112 56 116 5-17-69-150-10-154-114-4-87 153-88 188-35 5 8 8 18 10 28" id="Z"/><path d="M110-194c64 0 96 36 96 99 0 64-35 99-97 99-61 0-95-36-95-99 0-62 34-99 96-99zm-1 164c35 0 45-28 45-65 0-40-10-65-43-65-34 0-45 26-45 65 0 36 10 65 43 65" id="aa"/><path d="M121-226c-27-7-43 5-38 36h38v33H83V0H34v-157H6v-33h28c-9-59 32-81 87-68v32" id="ab"/><path d="M115-3C79 11 28 4 28-45v-112H4v-33h27l15-45h31v45h36v33H77v99c-1 23 16 31 38 25v30" id="ac"/><path d="M231 0h-52l-39-155L100 0H48L-1-190h46L77-45c9-52 24-97 36-145h53l37 145 32-145h46" id="ad"/><path d="M133-34C117-15 103 5 69 4 32 3 11-16 11-54c-1-60 55-63 116-61 1-26-3-47-28-47-18 1-26 9-28 27l-52-2c7-38 36-58 82-57s74 22 75 68l1 82c-1 14 12 18 25 15v27c-30 8-71 5-69-32zm-48 3c29 0 43-24 42-57-32 0-66-3-65 30 0 17 8 27 23 27" id="ae"/><path d="M135-150c-39-12-60 13-60 57V0H25l-1-190h47c2 13-1 29 3 40 6-28 27-53 61-41v41" id="af"/><path d="M185-48c-13 30-37 53-82 52C43 2 14-33 14-96s30-98 90-98c62 0 83 45 84 108H66c0 31 8 55 39 56 18 0 30-7 34-22zm-45-69c5-46-57-63-70-21-2 6-4 13-4 21h74" id="ag"/><g id="e"><use transform="matrix(0.08086419753086417,0,0,0.08086419753086417,0,0)" xlink:href="#Z"/><use transform="matrix(0.08086419753086417,0,0,0.08086419753086417,19.4074074074074,0)" xlink:href="#aa"/><use transform="matrix(0.08086419753086417,0,0,0.08086419753086417,37.11666666666665,0)" xlink:href="#ab"/><use transform="matrix(0.08086419753086417,0,0,0.08086419753086417,46.73950617283949,0)" xlink:href="#ac"/><use transform="matrix(0.08086419753086417,0,0,0.08086419753086417,56.36234567901233,0)" xlink:href="#ad"/><use transform="matrix(0.08086419753086417,0,0,0.08086419753086417,79.0043209876543,0)" xlink:href="#ae"/><use transform="matrix(0.08086419753086417,0,0,0.08086419753086417,95.17716049382713,0)" xlink:href="#af"/><use transform="matrix(0.08086419753086417,0,0,0.08086419753086417,106.49814814814812,0)" xlink:href="#ag"/></g><path d="M33 0v-248h34V0H33" id="ah"/><path d="M24 0v-261h32V0H24" id="ai"/><path d="M84 4C-5 8 30-112 23-190h32v120c0 31 7 50 39 49 72-2 45-101 50-169h31l1 190h-30c-1-10 1-25-2-33-11 22-28 36-60 37" id="aj"/><path d="M210-169c-67 3-38 105-44 169h-31v-121c0-29-5-50-35-48C34-165 62-65 56 0H25l-1-190h30c1 10-1 24 2 32 10-44 99-50 107 0 11-21 27-35 58-36 85-2 47 119 55 194h-31v-121c0-29-5-49-35-48" id="ak"/><path d="M24-231v-30h32v30H24zM24 0v-190h32V0H24" id="al"/><path d="M117-194c89-4 53 116 60 194h-32v-121c0-31-8-49-39-48C34-167 62-67 57 0H25l-1-190h30c1 10-1 24 2 32 11-22 29-35 61-36" id="am"/><path d="M141-36C126-15 110 5 73 4 37 3 15-17 15-53c-1-64 63-63 125-63 3-35-9-54-41-54-24 1-41 7-42 31l-33-3c5-37 33-52 76-52 45 0 72 20 72 64v82c-1 20 7 32 28 27v20c-31 9-61-2-59-35zM48-53c0 20 12 33 32 33 41-3 63-29 60-74-43 2-92-5-92 41" id="an"/><path d="M16-82v-28h88v28H16" id="ao"/><path d="M100-194c62-1 85 37 85 99 1 63-27 99-86 99S16-35 15-95c0-66 28-99 85-99zM99-20c44 1 53-31 53-75 0-43-8-75-51-75s-53 32-53 75 10 74 51 75" id="ap"/><path d="M179-190L93 31C79 59 56 82 12 73V49c39 6 53-20 64-50L1-190h34L92-34l54-156h33" id="aq"/><g id="f"><use transform="matrix(0.06975308641975307,0,0,0.06975308641975307,0,0)" xlink:href="#ah"/><use transform="matrix(0.06975308641975307,0,0,0.06975308641975307,6.975308641975307,0)" xlink:href="#ai"/><use transform="matrix(0.06975308641975307,0,0,0.06975308641975307,12.485802469135798,0)" xlink:href="#ai"/><use transform="matrix(0.06975308641975307,0,0,0.06975308641975307,17.99629629629629,0)" xlink:href="#aj"/><use transform="matrix(0.06975308641975307,0,0,0.06975308641975307,31.946913580246903,0)" xlink:href="#ak"/><use transform="matrix(0.06975308641975307,0,0,0.06975308641975307,52.80308641975307,0)" xlink:href="#al"/><use transform="matrix(0.06975308641975307,0,0,0.06975308641975307,58.31358024691357,0)" xlink:href="#am"/><use transform="matrix(0.06975308641975307,0,0,0.06975308641975307,72.26419753086418,0)" xlink:href="#an"/><use transform="matrix(0.06975308641975307,0,0,0.06975308641975307,86.21481481481479,0)" xlink:href="#ao"/><use transform="matrix(0.06975308641975307,0,0,0.06975308641975307,94.5154320987654,0)" xlink:href="#ap"/><use transform="matrix(0.06975308641975307,0,0,0.06975308641975307,108.46604938271602,0)" xlink:href="#am"/><use transform="matrix(0.06975308641975307,0,0,0.06975308641975307,122.41666666666663,0)" xlink:href="#ai"/><use transform="matrix(0.06975308641975307,0,0,0.06975308641975307,127.92716049382712,0)" xlink:href="#aq"/></g><path d="M190 0L58-211 59 0H30v-248h39L202-35l-2-213h31V0h-41" id="ar"/><path d="M115-194c55 1 70 41 70 98S169 2 115 4C84 4 66-9 55-30l1 105H24l-1-265h31l2 30c10-21 28-34 59-34zm-8 174c40 0 45-34 45-75s-6-73-45-74c-42 0-51 32-51 76 0 43 10 73 51 73" id="as"/><path d="M114-163C36-179 61-72 57 0H25l-1-190h30c1 12-1 29 2 39 6-27 23-49 58-41v29" id="at"/><path d="M100-194c63 0 86 42 84 106H49c0 40 14 67 53 68 26 1 43-12 49-29l28 8c-11 28-37 45-77 45C44 4 14-33 15-96c1-61 26-98 85-98zm52 81c6-60-76-77-97-28-3 7-6 17-6 28h103" id="au"/><path d="M0 4l72-265h28L28 4H0" id="av"/><path d="M177-190C167-65 218 103 67 71c-23-6-38-20-44-43l32-5c15 47 100 32 89-28v-30C133-14 115 1 83 1 29 1 15-40 15-95c0-56 16-97 71-98 29-1 48 16 59 35 1-10 0-23 2-32h30zM94-22c36 0 50-32 50-73 0-42-14-75-50-75-39 0-46 34-46 75s6 73 46 73" id="aw"/><path d="M85-194c31 0 48 13 60 33l-1-100h32l1 261h-30c-2-10 0-23-3-31C134-8 116 4 85 4 32 4 16-35 15-94c0-66 23-100 70-100zm9 24c-40 0-46 34-46 75 0 40 6 74 45 74 42 0 51-32 51-76 0-42-9-74-50-73" id="ax"/><g id="g"><use transform="matrix(0.06975308641975307,0,0,0.06975308641975307,0,0)" xlink:href="#ar"/><use transform="matrix(0.06975308641975307,0,0,0.06975308641975307,18.066049382716045,0)" xlink:href="#an"/><use transform="matrix(0.06975308641975307,0,0,0.06975308641975307,32.01666666666666,0)" xlink:href="#am"/><use transform="matrix(0.06975308641975307,0,0,0.06975308641975307,45.96728395061727,0)" xlink:href="#ap"/><use transform="matrix(0.06975308641975307,0,0,0.06975308641975307,59.917901234567886,0)" xlink:href="#as"/><use transform="matrix(0.06975308641975307,0,0,0.06975308641975307,73.8685185185185,0)" xlink:href="#ap"/><use transform="matrix(0.06975308641975307,0,0,0.06975308641975307,87.8191358024691,0)" xlink:href="#at"/><use transform="matrix(0.06975308641975307,0,0,0.06975308641975307,96.11975308641972,0)" xlink:href="#au"/><use transform="matrix(0.06975308641975307,0,0,0.06975308641975307,110.07037037037034,0)" xlink:href="#av"/><use transform="matrix(0.06975308641975307,0,0,0.06975308641975307,117.04567901234564,0)" xlink:href="#ai"/><use transform="matrix(0.06975308641975307,0,0,0.06975308641975307,122.55617283950613,0)" xlink:href="#ap"/><use transform="matrix(0.06975308641975307,0,0,0.06975308641975307,136.50679012345674,0)" xlink:href="#am"/><use transform="matrix(0.06975308641975307,0,0,0.06975308641975307,150.45740740740735,0)" xlink:href="#aw"/><use transform="matrix(0.06975308641975307,0,0,0.06975308641975307,164.40802469135795,0)" xlink:href="#ao"/><use transform="matrix(0.06975308641975307,0,0,0.06975308641975307,172.70864197530858,0)" xlink:href="#at"/><use transform="matrix(0.06975308641975307,0,0,0.06975308641975307,181.00925925925918,0)" xlink:href="#au"/><use transform="matrix(0.06975308641975307,0,0,0.06975308641975307,194.95987654320982,0)" xlink:href="#an"/><use transform="matrix(0.06975308641975307,0,0,0.06975308641975307,208.9104938271604,0)" xlink:href="#ax"/><use transform="matrix(0.06975308641975307,0,0,0.06975308641975307,222.861111111111,0)" xlink:href="#ao"/><use transform="matrix(0.06975308641975307,0,0,0.06975308641975307,231.1617283950616,0)" xlink:href="#ap"/><use transform="matrix(0.06975308641975307,0,0,0.06975308641975307,245.11234567901224,0)" xlink:href="#am"/><use transform="matrix(0.06975308641975307,0,0,0.06975308641975307,259.06296296296284,0)" xlink:href="#ai"/><use transform="matrix(0.06975308641975307,0,0,0.06975308641975307,264.5734567901233,0)" xlink:href="#aq"/></g><path d="M212-179c-10-28-35-45-73-45-59 0-87 40-87 99 0 60 29 101 89 101 43 0 62-24 78-52l27 14C228-24 195 4 139 4 59 4 22-46 18-125c-6-104 99-153 187-111 19 9 31 26 39 46" id="ay"/><path d="M135-143c-3-34-86-38-87 0 15 53 115 12 119 90S17 21 10-45l28-5c4 36 97 45 98 0-10-56-113-15-118-90-4-57 82-63 122-42 12 7 21 19 24 35" id="az"/><path d="M59-47c-2 24 18 29 38 22v24C64 9 27 4 27-40v-127H5v-23h24l9-43h21v43h35v23H59v120" id="aA"/><path d="M101-234c-31-9-42 10-38 44h38v23H63V0H32v-167H5v-23h27c-7-52 17-82 69-68v24" id="aB"/><g id="h"><use transform="matrix(0.06975308641975307,0,0,0.06975308641975307,0,0)" xlink:href="#ay"/><use transform="matrix(0.06975308641975307,0,0,0.06975308641975307,18.066049382716045,0)" xlink:href="#at"/><use transform="matrix(0.06975308641975307,0,0,0.06975308641975307,26.36666666666666,0)" xlink:href="#ap"/><use transform="matrix(0.06975308641975307,0,0,0.06975308641975307,40.31728395061727,0)" xlink:href="#az"/><use transform="matrix(0.06975308641975307,0,0,0.06975308641975307,52.872839506172824,0)" xlink:href="#az"/><use transform="matrix(0.06975308641975307,0,0,0.06975308641975307,65.42839506172838,0)" xlink:href="#ao"/><use transform="matrix(0.06975308641975307,0,0,0.06975308641975307,73.729012345679,0)" xlink:href="#as"/><use transform="matrix(0.06975308641975307,0,0,0.06975308641975307,87.6796296296296,0)" xlink:href="#ai"/><use transform="matrix(0.06975308641975307,0,0,0.06975308641975307,93.19012345679009,0)" xlink:href="#an"/><use transform="matrix(0.06975308641975307,0,0,0.06975308641975307,107.14074074074071,0)" xlink:href="#aA"/><use transform="matrix(0.06975308641975307,0,0,0.06975308641975307,114.11604938271601,0)" xlink:href="#aB"/><use transform="matrix(0.06975308641975307,0,0,0.06975308641975307,121.09135802469132,0)" xlink:href="#ap"/><use transform="matrix(0.06975308641975307,0,0,0.06975308641975307,135.04197530864192,0)" xlink:href="#at"/><use transform="matrix(0.06975308641975307,0,0,0.06975308641975307,143.34259259259255,0)" xlink:href="#ak"/></g><path fill="#3a414a" d="M210-169c-67 3-38 105-44 169h-31v-121c0-29-5-50-35-48C34-165 62-65 56 0H25l-1-190h30c1 10-1 24 2 32 10-44 99-50 107 0 11-21 27-35 58-36 85-2 47 119 55 194h-31v-121c0-29-5-49-35-48" id="aC"/><g id="i"><use transform="matrix(0.06172839506172839,0,0,0.06172839506172839,0,0)" xlink:href="#x"/><use transform="matrix(0.06172839506172839,0,0,0.06172839506172839,12.345679012345679,0)" xlink:href="#y"/><use transform="matrix(0.06172839506172839,0,0,0.06172839506172839,17.22222222222222,0)" xlink:href="#v"/><use transform="matrix(0.06172839506172839,0,0,0.06172839506172839,22.098765432098766,0)" xlink:href="#D"/><use transform="matrix(0.06172839506172839,0,0,0.06172839506172839,34.44444444444444,0)" xlink:href="#w"/><use transform="matrix(0.06172839506172839,0,0,0.06172839506172839,46.79012345679012,0)" xlink:href="#aC"/><use transform="matrix(0.06172839506172839,0,0,0.06172839506172839,65.24691358024691,0)" xlink:href="#G"/><use transform="matrix(0.06172839506172839,0,0,0.06172839506172839,77.5925925925926,0)" xlink:href="#w"/><use transform="matrix(0.06172839506172839,0,0,0.06172839506172839,89.93827160493828,0)" xlink:href="#C"/><use transform="matrix(0.06172839506172839,0,0,0.06172839506172839,96.11111111111111,0)" xlink:href="#z"/><use transform="matrix(0.06172839506172839,0,0,0.06172839506172839,102.28395061728395,0)" xlink:href="#E"/><use transform="matrix(0.06172839506172839,0,0,0.06172839506172839,113.39506172839506,0)" xlink:href="#B"/><use transform="matrix(0.06172839506172839,0,0,0.06172839506172839,125.74074074074075,0)" xlink:href="#F"/><use transform="matrix(0.06172839506172839,0,0,0.06172839506172839,133.08641975308643,0)" xlink:href="#C"/><use transform="matrix(0.06172839506172839,0,0,0.06172839506172839,139.25925925925927,0)" xlink:href="#G"/><use transform="matrix(0.06172839506172839,0,0,0.06172839506172839,151.60493827160494,0)" xlink:href="#H"/><use transform="matrix(0.06172839506172839,0,0,0.06172839506172839,163.9506172839506,0)" xlink:href="#z"/><use transform="matrix(0.06172839506172839,0,0,0.06172839506172839,170.12345679012344,0)" xlink:href="#J"/><use transform="matrix(0.06172839506172839,0,0,0.06172839506172839,182.4691358024691,0)" xlink:href="#x"/><use transform="matrix(0.06172839506172839,0,0,0.06172839506172839,194.81481481481478,0)" xlink:href="#aC"/></g><path fill="#3a414a" d="M141 0L90-78 38 0H4l68-98-65-92h35l48 74 47-74h35l-64 92 68 98h-35" id="aD"/><g id="j"><use transform="matrix(0.06172839506172839,0,0,0.06172839506172839,0,0)" xlink:href="#x"/><use transform="matrix(0.06172839506172839,0,0,0.06172839506172839,12.345679012345679,0)" xlink:href="#y"/><use transform="matrix(0.06172839506172839,0,0,0.06172839506172839,17.22222222222222,0)" xlink:href="#v"/><use transform="matrix(0.06172839506172839,0,0,0.06172839506172839,22.098765432098766,0)" xlink:href="#D"/><use transform="matrix(0.06172839506172839,0,0,0.06172839506172839,34.44444444444444,0)" xlink:href="#w"/><use transform="matrix(0.06172839506172839,0,0,0.06172839506172839,46.79012345679012,0)" xlink:href="#aC"/><use transform="matrix(0.06172839506172839,0,0,0.06172839506172839,65.24691358024691,0)" xlink:href="#G"/><use transform="matrix(0.06172839506172839,0,0,0.06172839506172839,77.5925925925926,0)" xlink:href="#w"/><use transform="matrix(0.06172839506172839,0,0,0.06172839506172839,89.93827160493828,0)" xlink:href="#C"/><use transform="matrix(0.06172839506172839,0,0,0.06172839506172839,96.11111111111111,0)" xlink:href="#z"/><use transform="matrix(0.06172839506172839,0,0,0.06172839506172839,102.28395061728395,0)" xlink:href="#E"/><use transform="matrix(0.06172839506172839,0,0,0.06172839506172839,113.39506172839506,0)" xlink:href="#B"/><use transform="matrix(0.06172839506172839,0,0,0.06172839506172839,125.74074074074075,0)" xlink:href="#F"/><use transform="matrix(0.06172839506172839,0,0,0.06172839506172839,133.08641975308643,0)" xlink:href="#C"/><use transform="matrix(0.06172839506172839,0,0,0.06172839506172839,139.25925925925927,0)" xlink:href="#G"/><use transform="matrix(0.06172839506172839,0,0,0.06172839506172839,151.60493827160494,0)" xlink:href="#H"/><use transform="matrix(0.06172839506172839,0,0,0.06172839506172839,163.9506172839506,0)" xlink:href="#z"/><use transform="matrix(0.06172839506172839,0,0,0.06172839506172839,170.12345679012344,0)" xlink:href="#v"/><use transform="matrix(0.06172839506172839,0,0,0.06172839506172839,174.99999999999997,0)" xlink:href="#w"/><use transform="matrix(0.06172839506172839,0,0,0.06172839506172839,187.34567901234564,0)" xlink:href="#H"/><use transform="matrix(0.06172839506172839,0,0,0.06172839506172839,199.6913580246913,0)" xlink:href="#G"/><use transform="matrix(0.06172839506172839,0,0,0.06172839506172839,212.03703703703698,0)" xlink:href="#aD"/><path fill="#8080ff" d="M-1.1 1.54h225.36v1.63H-1.1z"/></g><path fill="#3a414a" d="M212-179c-10-28-35-45-73-45-59 0-87 40-87 99 0 60 29 101 89 101 43 0 62-24 78-52l27 14C228-24 195 4 139 4 59 4 22-46 18-125c-6-104 99-153 187-111 19 9 31 26 39 46" id="aE"/><path fill="#3a414a" d="M140-251c81 0 123 46 123 126C263-46 219 4 140 4 59 4 17-45 17-125s42-126 123-126zm0 227c63 0 89-41 89-101s-29-99-89-99c-61 0-89 39-89 99S79-25 140-24" id="aF"/><path fill="#3a414a" d="M190 0L58-211 59 0H30v-248h39L202-35l-2-213h31V0h-41" id="aG"/><path fill="#3a414a" d="M127-220V0H93v-220H8v-28h204v28h-85" id="aH"/><g id="k"><use transform="matrix(0.06172839506172839,0,0,0.06172839506172839,0,0)" xlink:href="#aE"/><use transform="matrix(0.06172839506172839,0,0,0.06172839506172839,15.987654320987653,0)" xlink:href="#aF"/><use transform="matrix(0.06172839506172839,0,0,0.06172839506172839,33.2716049382716,0)" xlink:href="#aG"/><use transform="matrix(0.06172839506172839,0,0,0.06172839506172839,49.25925925925925,0)" xlink:href="#aE"/><use transform="matrix(0.06172839506172839,0,0,0.06172839506172839,65.24691358024691,0)" xlink:href="#aF"/><use transform="matrix(0.06172839506172839,0,0,0.06172839506172839,82.53086419753086,0)" xlink:href="#aH"/></g><path fill="#3a414a" d="M84 4C-5 8 30-112 23-190h32v120c0 31 7 50 39 49 72-2 45-101 50-169h31l1 190h-30c-1-10 1-25-2-33-11 22-28 36-60 37" id="aI"/><g id="l"><use transform="matrix(0.06172839506172839,0,0,0.06172839506172839,0,0)" xlink:href="#x"/><use transform="matrix(0.06172839506172839,0,0,0.06172839506172839,12.345679012345679,0)" xlink:href="#J"/><use transform="matrix(0.06172839506172839,0,0,0.06172839506172839,24.691358024691358,0)" xlink:href="#aI"/><use transform="matrix(0.06172839506172839,0,0,0.06172839506172839,37.03703703703704,0)" xlink:href="#w"/><use transform="matrix(0.06172839506172839,0,0,0.06172839506172839,49.382716049382715,0)" xlink:href="#H"/><use transform="matrix(0.06172839506172839,0,0,0.06172839506172839,61.72839506172839,0)" xlink:href="#x"/><use transform="matrix(0.06172839506172839,0,0,0.06172839506172839,74.07407407407408,0)" xlink:href="#w"/><use transform="matrix(0.06172839506172839,0,0,0.06172839506172839,86.41975308641976,0)" xlink:href="#A"/><use transform="matrix(0.06172839506172839,0,0,0.06172839506172839,97.53086419753087,0)" xlink:href="#G"/></g><g id="m"><use transform="matrix(0.06172839506172839,0,0,0.06172839506172839,0,0)" xlink:href="#x"/><use transform="matrix(0.06172839506172839,0,0,0.06172839506172839,12.345679012345679,0)" xlink:href="#w"/><use transform="matrix(0.06172839506172839,0,0,0.06172839506172839,24.691358024691358,0)" xlink:href="#H"/></g><path fill="#3a414a" d="M115-194c55 1 70 41 70 98S169 2 115 4C84 4 66-9 55-30l1 105H24l-1-265h31l2 30c10-21 28-34 59-34zm-8 174c40 0 45-34 45-75s-6-73-45-74c-42 0-51 32-51 76 0 43 10 73 51 73" id="aJ"/><path fill="#3a414a" d="M106-169C34-169 62-67 57 0H25v-261h32l-1 103c12-21 28-36 61-36 89 0 53 116 60 194h-32v-121c2-32-8-49-39-48" id="aK"/><g id="n"><use transform="matrix(0.06172839506172839,0,0,0.06172839506172839,0,0)" xlink:href="#H"/><use transform="matrix(0.06172839506172839,0,0,0.06172839506172839,12.345679012345679,0)" xlink:href="#G"/><use transform="matrix(0.06172839506172839,0,0,0.06172839506172839,24.691358024691358,0)" xlink:href="#aJ"/><use transform="matrix(0.06172839506172839,0,0,0.06172839506172839,37.03703703703704,0)" xlink:href="#C"/><use transform="matrix(0.06172839506172839,0,0,0.06172839506172839,43.20987654320988,0)" xlink:href="#aK"/></g><g id="o"><use transform="matrix(0.06172839506172839,0,0,0.06172839506172839,0,0)" xlink:href="#aJ"/><use transform="matrix(0.06172839506172839,0,0,0.06172839506172839,12.345679012345679,0)" xlink:href="#F"/><use transform="matrix(0.06172839506172839,0,0,0.06172839506172839,19.691358024691358,0)" xlink:href="#B"/><use transform="matrix(0.06172839506172839,0,0,0.06172839506172839,32.03703703703704,0)" xlink:href="#u"/><use transform="matrix(0.06172839506172839,0,0,0.06172839506172839,38.20987654320988,0)" xlink:href="#v"/><use transform="matrix(0.06172839506172839,0,0,0.06172839506172839,43.086419753086425,0)" xlink:href="#y"/><use transform="matrix(0.06172839506172839,0,0,0.06172839506172839,47.96296296296297,0)" xlink:href="#G"/><use transform="matrix(0.06172839506172839,0,0,0.06172839506172839,60.308641975308646,0)" xlink:href="#E"/></g><path fill="#3a414a" d="M160-131c35 5 61 23 61 61C221 17 115-2 30 0v-248c76 3 177-17 177 60 0 33-19 50-47 57zm-97-11c50-1 110 9 110-42 0-47-63-36-110-37v79zm0 115c55-2 124 14 124-45 0-56-70-42-124-44v89" id="aL"/><path fill="#3a414a" d="M101-251c82-7 93 87 43 132L82-64C71-53 59-42 53-27h129V0H18c2-99 128-94 128-182 0-28-16-43-45-43s-46 15-49 41l-32-3c6-41 34-60 81-64" id="aM"/><g id="p"><use transform="matrix(0.06172839506172839,0,0,0.06172839506172839,0,0)" xlink:href="#L"/><use transform="matrix(0.06172839506172839,0,0,0.06172839506172839,18.456790123456788,0)" xlink:href="#G"/><use transform="matrix(0.06172839506172839,0,0,0.06172839506172839,30.80246913580247,0)" xlink:href="#C"/><use transform="matrix(0.06172839506172839,0,0,0.06172839506172839,36.97530864197531,0)" xlink:href="#x"/><use transform="matrix(0.06172839506172839,0,0,0.06172839506172839,49.32098765432099,0)" xlink:href="#aL"/><use transform="matrix(0.06172839506172839,0,0,0.06172839506172839,64.1358024691358,0)" xlink:href="#O"/><use transform="matrix(0.06172839506172839,0,0,0.06172839506172839,77.28395061728395,0)" xlink:href="#aH"/><use transform="matrix(0.06172839506172839,0,0,0.06172839506172839,90.80246913580247,0)" xlink:href="#aM"/></g><g id="q"><use transform="matrix(0.06172839506172839,0,0,0.06172839506172839,0,0)" xlink:href="#L"/><use transform="matrix(0.06172839506172839,0,0,0.06172839506172839,18.456790123456788,0)" xlink:href="#x"/><use transform="matrix(0.06172839506172839,0,0,0.06172839506172839,30.80246913580247,0)" xlink:href="#aD"/><use transform="matrix(0.06172839506172839,0,0,0.06172839506172839,41.91358024691358,0)" xlink:href="#aL"/><use transform="matrix(0.06172839506172839,0,0,0.06172839506172839,56.72839506172839,0)" xlink:href="#v"/><use transform="matrix(0.06172839506172839,0,0,0.06172839506172839,61.60493827160494,0)" xlink:href="#w"/><use transform="matrix(0.06172839506172839,0,0,0.06172839506172839,73.95061728395062,0)" xlink:href="#aM"/></g><path fill="#3a414a" d="M143 0L79-87 56-68V0H24v-261h32v163l83-92h37l-77 82L181 0h-38" id="aN"/><g id="r"><use transform="matrix(0.06172839506172839,0,0,0.06172839506172839,0,0)" xlink:href="#A"/><use transform="matrix(0.06172839506172839,0,0,0.06172839506172839,11.11111111111111,0)" xlink:href="#aK"/><use transform="matrix(0.06172839506172839,0,0,0.06172839506172839,23.45679012345679,0)" xlink:href="#G"/><use transform="matrix(0.06172839506172839,0,0,0.06172839506172839,35.80246913580247,0)" xlink:href="#A"/><use transform="matrix(0.06172839506172839,0,0,0.06172839506172839,46.91358024691358,0)" xlink:href="#aN"/><use transform="matrix(0.06172839506172839,0,0,0.06172839506172839,58.0246913580247,0)" xlink:href="#L"/></g><g id="s"><use transform="matrix(0.06172839506172839,0,0,0.06172839506172839,0,0)" xlink:href="#F"/><use transform="matrix(0.06172839506172839,0,0,0.06172839506172839,7.345679012345679,0)" xlink:href="#G"/><use transform="matrix(0.06172839506172839,0,0,0.06172839506172839,19.691358024691358,0)" xlink:href="#aJ"/><use transform="matrix(0.06172839506172839,0,0,0.06172839506172839,32.03703703703704,0)" xlink:href="#B"/><use transform="matrix(0.06172839506172839,0,0,0.06172839506172839,44.382716049382715,0)" xlink:href="#F"/><use transform="matrix(0.06172839506172839,0,0,0.06172839506172839,51.72839506172839,0)" xlink:href="#C"/></g><g id="t"><use transform="matrix(0.06172839506172839,0,0,0.06172839506172839,0,0)" xlink:href="#J"/><use transform="matrix(0.06172839506172839,0,0,0.06172839506172839,12.345679012345679,0)" xlink:href="#v"/><use transform="matrix(0.06172839506172839,0,0,0.06172839506172839,17.22222222222222,0)" xlink:href="#w"/><use transform="matrix(0.06172839506172839,0,0,0.06172839506172839,29.5679012345679,0)" xlink:href="#E"/><use transform="matrix(0.06172839506172839,0,0,0.06172839506172839,40.67901234567901,0)" xlink:href="#K"/></g></defs></g></svg>
