<svg xmlns="http://www.w3.org/2000/svg" xmlns:xlink="http://www.w3.org/1999/xlink" xmlns:lucid="lucid" width="1360" height="468.67"><g transform="translate(-100 8.666666666666629)" lucid:page-tab-id="0_0"><path d="M120 246a6 6 0 0 1 6-6h186a6 6 0 0 1 6 6v45c-33.07-8.52-53.66-8.52-66.13-8.52-19.8 0-46.14 8.52-65.94 8.52-12.27 0-33.06 0-65.93-8.52z" stroke="#3a414a" fill="#f2f3f5"/><path d="M131 250.5a6 6 0 0 1 6-6h186a6 6 0 0 1 6 6v45c-33.07-8.52-53.66-8.52-66.13-8.52-19.8 0-46.14 8.52-65.94 8.52-12.27 0-33.06 0-65.93-8.52z" stroke="#3a414a" fill="#f2f3f5"/><path d="M142 255a6 6 0 0 1 6-6h186a6 6 0 0 1 6 6v45c-33.07-8.52-53.66-8.52-66.13-8.52-19.8 0-46.14 8.52-65.94 8.52-12.27 0-33.06 0-65.93-8.52z" stroke="#3a414a" fill="#f2f3f5"/><use xlink:href="#a" transform="matrix(1,0,0,1,147,254) translate(8.290123456790127 20.944444444444443)"/><path d="M640 246a6 6 0 0 1 6-6h222a6 6 0 0 1 6 6v45c-39.08-8.52-63.4-8.52-78.16-8.52-23.4 0-54.52 8.52-77.92 8.52-14.5 0-39.08 0-77.92-8.52z" stroke="#3a414a" fill="#f2f3f5"/><path d="M653 250.5a6 6 0 0 1 6-6h222a6 6 0 0 1 6 6v45c-39.08-8.52-63.4-8.52-78.16-8.52-23.4 0-54.52 8.52-77.92 8.52-14.5 0-39.08 0-77.92-8.52z" stroke="#3a414a" fill="#f2f3f5"/><path d="M666 255a6 6 0 0 1 6-6h222a6 6 0 0 1 6 6v45c-39.08-8.52-63.4-8.52-78.16-8.52-23.4 0-54.52 8.52-77.92 8.52-14.5 0-39.08 0-77.92-8.52z" stroke="#3a414a" fill="#f2f3f5"/><use xlink:href="#b" transform="matrix(1,0,0,1,671,254) translate(29.401234567901227 17.77777777777778)"/><path d="M1160 232.96a6 6 0 0 1 6-6h240a6 6 0 0 1 6 6v70c-42.08-12.7-68.3-12.7-84.17-12.7-25.2 0-58.7 12.7-83.9 12.7-15.64 0-42.1 0-83.93-12.7z" stroke="#3a414a" fill="#f2f3f5"/><path d="M1174 239.67a6 6 0 0 1 6-6h240a6 6 0 0 1 6 6v70c-42.08-12.7-68.3-12.7-84.17-12.7-25.2 0-58.7 12.7-83.9 12.7-15.64 0-42.1 0-83.93-12.7z" stroke="#3a414a" fill="#f2f3f5"/><path d="M1188 246.37a6 6 0 0 1 6-6h240a6 6 0 0 1 6 6v70c-42.08-12.7-68.3-12.7-84.17-12.7-25.2 0-58.7 12.7-83.9 12.7-15.64 0-42.1 0-83.93-12.7z" stroke="#3a414a" fill="#f2f3f5"/><use xlink:href="#c" transform="matrix(1,0,0,1,1193,245.37254901960782) translate(14.364197530864217 18.111111111111114)"/><use xlink:href="#d" transform="matrix(1,0,0,1,1193,245.37254901960782) translate(9.425925925925952 44.777777777777786)"/><a xlink:href="http://alignment.sorted.index" target="_blank" transform="matrix(1,0,0,1,1193,245.37254901960782)"><path class="lucid-link lucid-hotspot lucid-overlay-hotspot" fill-opacity="0" d="M9.43 27h223.15v26.67H9.43z"/></a><path d="M400 276a6 6 0 0 1 6-6h168a6 6 0 0 1 6 6v51.33a6 6 0 0 1-6 6H406a6 6 0 0 1-6-6z" stroke="#3a414a" fill="#fc9432"/><path d="M418 270v63.33M562 270v63.33" stroke="#3a414a" fill="none"/><use xlink:href="#e" transform="matrix(1,0,0,1,427.5,275.00000000000006) translate(14.475308641975303 31.444444444444443)"/><path d="M341.95 270.02H364a6 6 0 0 1 6 6v19.65a6 6 0 0 0 6 6h2.92" stroke="#3a414a" stroke-width="3" fill="none"/><path d="M342 271.52h-1.55v-3H342z" stroke="#3a414a" stroke-width=".05" fill="#3a414a"/><path d="M394.68 301.67l-14.26 4.63v-9.27z" stroke="#3a414a" stroke-width="3" fill="#3a414a"/><path d="M400 194.33a6 6 0 0 1 6-6h168a6 6 0 0 1 6 6v51.34a6 6 0 0 1-6 6H406a6 6 0 0 1-6-6z" stroke="#3a414a" fill="#54c45e"/><path d="M418 188.33v63.34m144-63.34v63.34" stroke="#3a414a" fill="none"/><use xlink:href="#f" transform="matrix(1,0,0,1,427.5,193.33333333333334) translate(24.29012345679012 31.444444444444443)"/><path d="M341.95 270.02H364a6 6 0 0 0 6-6v-27.1a6 6 0 0 1 6-6h2.93" stroke="#3a414a" stroke-width="3" fill="none"/><path d="M342 271.52h-1.55v-3H342z" stroke="#3a414a" stroke-width=".05" fill="#3a414a"/><path d="M394.7 230.92l-14.27 4.64v-9.27z" stroke="#3a414a" stroke-width="3" fill="#3a414a"/><path d="M581.96 220h22.02a6 6 0 0 1 6 6v21.2a6 6 0 0 0 6 6h2.9" stroke="#3a414a" stroke-width="3" fill="none"/><path d="M582 221.5h-1.53v-3H582z" stroke="#3a414a" stroke-width=".05" fill="#3a414a"/><path d="M634.65 253.2l-14.27 4.63v-9.27z" stroke="#3a414a" stroke-width="3" fill="#3a414a"/><path d="M581.96 301.67h22.02a6 6 0 0 0 6-6V276a6 6 0 0 1 6-6h2.9" stroke="#3a414a" stroke-width="3" fill="none"/><path d="M582 303.17h-1.53v-3H582z" stroke="#3a414a" stroke-width=".05" fill="#3a414a"/><path d="M634.65 270l-14.27 4.64v-9.28z" stroke="#3a414a" stroke-width="3" fill="#3a414a"/><path d="M940 246a6 6 0 0 1 6-6h170a6 6 0 0 1 6 6v51.33a6 6 0 0 1-6 6H946a6 6 0 0 1-6-6z" stroke="#3a414a" fill="#6db1ff"/><path d="M958.2 240v63.33M1103.8 240v63.33" stroke="#3a414a" fill="none"/><use xlink:href="#g" transform="matrix(1,0,0,1,967.7486762732792,245) translate(19.117283950617278 31.444444444444443)"/><path d="M901.95 270h17.75a.3.3 0 0 1 .3.3v.3" stroke="#3a414a" stroke-width="3" fill="none"/><path d="M902 271.5h-1.55v-3H902z" stroke="#3a414a" stroke-width=".05" fill="#3a414a"/><path d="M934.7 271.4l-14.5 3.84.5-9.25z" stroke="#3a414a" stroke-width="3" fill="#3a414a"/><path d="M1123.95 271.67h14.93" stroke="#3a414a" stroke-width="3" fill="none"/><path d="M1124 273.17h-1.54v-3h1.53z" stroke="#3a414a" stroke-width=".05" fill="#3a414a"/><path d="M1154.64 271.67l-14.26 4.63v-9.27z" stroke="#3a414a" stroke-width="3" fill="#3a414a"/><path d="M140 132.67a6 6 0 0 1 6-6h311.33a6 6 0 0 1 6 6v78a6 6 0 0 1-6 6H146a6 6 0 0 1-6-6z" stroke="#000" stroke-opacity="0" fill="#fff" fill-opacity="0"/><use xlink:href="#h" transform="matrix(1,0,0,1,145,131.66666666666669) translate(0 46.66666666666666)"/><use xlink:href="#i" transform="matrix(1,0,0,1,145,131.66666666666669) translate(37.037037037037024 46.66666666666666)"/><path d="M680 23.33a12 12 0 0 1 12-12h349.14a12 12 0 0 1 12 12v181.34a12 12 0 0 1-12 12H692a12 12 0 0 1-12-12z" stroke="#dfe3e8" stroke-width="2" fill="#fff"/><path d="M736 98.27c0 6.62-5.37 12-12 12s-12-5.38-12-12c0-6.63 5.37-12 12-12s12 5.37 12 12z" stroke="#000" stroke-opacity=".25" fill="#54c45e"/><path d="M736 136.4c0 6.63-5.37 12-12 12s-12-5.37-12-12 5.37-12 12-12 12 5.37 12 12z" stroke="#000" stroke-opacity=".25" fill="#fc9432"/><path d="M736 174.53c0 6.63-5.37 12-12 12s-12-5.37-12-12c0-6.62 5.37-12 12-12s12 5.38 12 12z" stroke="#000" stroke-opacity=".25" fill="#6db1ff"/><use xlink:href="#j" transform="matrix(1,0,0,1,712,35.33333333333337) translate(0 23.322222222222223)"/><use xlink:href="#k" transform="matrix(1,0,0,1,744,86.2666666666667) translate(0 20.522222222222222)"/><use xlink:href="#l" transform="matrix(1,0,0,1,744,124.40000000000002) translate(0 20.522222222222222)"/><use xlink:href="#m" transform="matrix(1,0,0,1,744,162.53333333333336) translate(0 20.522222222222222)"/><path d="M340 386a6 6 0 0 1 6-6h258a6 6 0 0 1 6 6v45c-45.1-8.52-73.17-8.52-90.18-8.52-27 0-62.9 8.52-89.9 8.52-16.75 0-45.1 0-89.92-8.52z" stroke="#3a414a" fill="#f2f3f5"/><path d="M355 390.5a6 6 0 0 1 6-6h258a6 6 0 0 1 6 6v45c-45.1-8.52-73.17-8.52-90.18-8.52-27 0-62.9 8.52-89.9 8.52-16.75 0-45.1 0-89.92-8.52z" stroke="#3a414a" fill="#f2f3f5"/><path d="M370 395a6 6 0 0 1 6-6h258a6 6 0 0 1 6 6v45c-45.1-8.52-73.17-8.52-90.18-8.52-27 0-62.9 8.52-89.9 8.52-16.75 0-45.1 0-89.92-8.52z" stroke="#3a414a" fill="#f2f3f5"/><use xlink:href="#n" transform="matrix(1,0,0,1,375,394) translate(9.135802469135825 20.944444444444443)"/><path d="M490 378.03v-23.6" stroke="#3a414a" stroke-width="3" fill="none"/><path d="M491.5 379.53h-3V378h3z" stroke="#3a414a" stroke-width=".05" fill="#3a414a"/><path d="M490 338.65l4.64 14.27h-9.27z" stroke="#3a414a" stroke-width="3" fill="#3a414a"/><path d="M340 66a6 6 0 0 1 6-6h258a6 6 0 0 1 6 6v70c-45.1-12.7-73.17-12.7-90.18-12.7-27 0-62.9 12.7-89.9 12.7-16.75 0-45.1 0-89.92-12.7z" stroke="#3a414a" fill="#f2f3f5"/><path d="M355 72.7a6 6 0 0 1 6-6h258a6 6 0 0 1 6 6v70C579.9 130 551.83 130 534.82 130c-27 0-62.9 12.7-89.9 12.7-16.75 0-45.1 0-89.92-12.7z" stroke="#3a414a" fill="#f2f3f5"/><path d="M370 79.4a6 6 0 0 1 6-6h258a6 6 0 0 1 6 6v70c-45.1-12.68-73.17-12.68-90.18-12.68-27 0-62.9 12.7-89.9 12.7-16.75 0-45.1 0-89.92-12.7z" stroke="#3a414a" fill="#f2f3f5"/><use xlink:href="#o" transform="matrix(1,0,0,1,375,78.41176470588235) translate(17.129629629629648 18.111111111111114)"/><use xlink:href="#p" transform="matrix(1,0,0,1,375,78.41176470588235) translate(17.129629629629648 44.777777777777786)"/><path d="M490 147.53v19.72" stroke="#3a414a" stroke-width="3" fill="none"/><path d="M491.5 147.57h-3v-1.27l3-.54z" stroke="#3a414a" stroke-width=".05" fill="#3a414a"/><path d="M490 183.02l-4.64-14.27h9.28z" stroke="#3a414a" stroke-width="3" fill="#3a414a"/><defs><path fill="#3a414a" d="M101-234c-31-9-42 10-38 44h38v23H63V0H32v-167H5v-23h27c-7-52 17-82 69-68v24" id="q"/><path fill="#3a414a" d="M24-231v-30h32v30H24zM24 0v-190h32V0H24" id="r"/><path fill="#3a414a" d="M117-194c89-4 53 116 60 194h-32v-121c0-31-8-49-39-48C34-167 62-67 57 0H25l-1-190h30c1 10-1 24 2 32 11-22 29-35 61-36" id="s"/><path fill="#3a414a" d="M141-36C126-15 110 5 73 4 37 3 15-17 15-53c-1-64 63-63 125-63 3-35-9-54-41-54-24 1-41 7-42 31l-33-3c5-37 33-52 76-52 45 0 72 20 72 64v82c-1 20 7 32 28 27v20c-31 9-61-2-59-35zM48-53c0 20 12 33 32 33 41-3 63-29 60-74-43 2-92-5-92 41" id="t"/><path fill="#3a414a" d="M24 0v-261h32V0H24" id="u"/><path fill="#3a414a" d="M33 0v-38h34V0H33" id="v"/><path fill="#3a414a" d="M96-169c-40 0-48 33-48 73s9 75 48 75c24 0 41-14 43-38l32 2c-6 37-31 61-74 61-59 0-76-41-82-99-10-93 101-131 147-64 4 7 5 14 7 22l-32 3c-4-21-16-35-41-35" id="w"/><path fill="#3a414a" d="M100-194c62-1 85 37 85 99 1 63-27 99-86 99S16-35 15-95c0-66 28-99 85-99zM99-20c44 1 53-31 53-75 0-43-8-75-51-75s-53 32-53 75 10 74 51 75" id="x"/><path fill="#3a414a" d="M59-47c-2 24 18 29 38 22v24C64 9 27 4 27-40v-127H5v-23h24l9-43h21v43h35v23H59v120" id="y"/><path fill="#3a414a" d="M177-190C167-65 218 103 67 71c-23-6-38-20-44-43l32-5c15 47 100 32 89-28v-30C133-14 115 1 83 1 29 1 15-40 15-95c0-56 16-97 71-98 29-1 48 16 59 35 1-10 0-23 2-32h30zM94-22c36 0 50-32 50-73 0-42-14-75-50-75-39 0-46 34-46 75s6 73 46 73" id="z"/><path fill="#3a414a" d="M135-143c-3-34-86-38-87 0 15 53 115 12 119 90S17 21 10-45l28-5c4 36 97 45 98 0-10-56-113-15-118-90-4-57 82-63 122-42 12 7 21 19 24 35" id="A"/><g id="a"><use transform="matrix(0.06172839506172839,0,0,0.06172839506172839,0,0)" xlink:href="#q"/><use transform="matrix(0.06172839506172839,0,0,0.06172839506172839,6.172839506172839,0)" xlink:href="#r"/><use transform="matrix(0.06172839506172839,0,0,0.06172839506172839,11.049382716049383,0)" xlink:href="#s"/><use transform="matrix(0.06172839506172839,0,0,0.06172839506172839,23.395061728395063,0)" xlink:href="#t"/><use transform="matrix(0.06172839506172839,0,0,0.06172839506172839,35.74074074074074,0)" xlink:href="#u"/><use transform="matrix(0.06172839506172839,0,0,0.06172839506172839,40.617283950617285,0)" xlink:href="#v"/><use transform="matrix(0.06172839506172839,0,0,0.06172839506172839,46.79012345679013,0)" xlink:href="#w"/><use transform="matrix(0.06172839506172839,0,0,0.06172839506172839,57.90123456790124,0)" xlink:href="#x"/><use transform="matrix(0.06172839506172839,0,0,0.06172839506172839,70.24691358024693,0)" xlink:href="#s"/><use transform="matrix(0.06172839506172839,0,0,0.06172839506172839,82.59259259259261,0)" xlink:href="#y"/><use transform="matrix(0.06172839506172839,0,0,0.06172839506172839,88.76543209876544,0)" xlink:href="#r"/><use transform="matrix(0.06172839506172839,0,0,0.06172839506172839,93.64197530864199,0)" xlink:href="#z"/><use transform="matrix(0.06172839506172839,0,0,0.06172839506172839,105.98765432098767,0)" xlink:href="#A"/><use transform="matrix(0.06172839506172839,0,0,0.06172839506172839,117.09876543209879,0)" xlink:href="#v"/><use transform="matrix(0.06172839506172839,0,0,0.06172839506172839,123.27160493827162,0)" xlink:href="#q"/><use transform="matrix(0.06172839506172839,0,0,0.06172839506172839,129.44444444444446,0)" xlink:href="#t"/><use transform="matrix(0.06172839506172839,0,0,0.06172839506172839,141.79012345679013,0)" xlink:href="#A"/><use transform="matrix(0.06172839506172839,0,0,0.06172839506172839,152.90123456790124,0)" xlink:href="#y"/><use transform="matrix(0.06172839506172839,0,0,0.06172839506172839,159.07407407407408,0)" xlink:href="#t"/></g><path fill="#3a414a" d="M210-169c-67 3-38 105-44 169h-31v-121c0-29-5-50-35-48C34-165 62-65 56 0H25l-1-190h30c1 10-1 24 2 32 10-44 99-50 107 0 11-21 27-35 58-36 85-2 47 119 55 194h-31v-121c0-29-5-49-35-48" id="B"/><path fill="#3a414a" d="M100-194c63 0 86 42 84 106H49c0 40 14 67 53 68 26 1 43-12 49-29l28 8c-11 28-37 45-77 45C44 4 14-33 15-96c1-61 26-98 85-98zm52 81c6-60-76-77-97-28-3 7-6 17-6 28h103" id="C"/><g id="b"><use transform="matrix(0.06172839506172839,0,0,0.06172839506172839,0,0)" xlink:href="#t"/><use transform="matrix(0.06172839506172839,0,0,0.06172839506172839,12.345679012345679,0)" xlink:href="#u"/><use transform="matrix(0.06172839506172839,0,0,0.06172839506172839,17.22222222222222,0)" xlink:href="#r"/><use transform="matrix(0.06172839506172839,0,0,0.06172839506172839,22.098765432098766,0)" xlink:href="#z"/><use transform="matrix(0.06172839506172839,0,0,0.06172839506172839,34.44444444444444,0)" xlink:href="#s"/><use transform="matrix(0.06172839506172839,0,0,0.06172839506172839,46.79012345679012,0)" xlink:href="#B"/><use transform="matrix(0.06172839506172839,0,0,0.06172839506172839,65.24691358024691,0)" xlink:href="#C"/><use transform="matrix(0.06172839506172839,0,0,0.06172839506172839,77.5925925925926,0)" xlink:href="#s"/><use transform="matrix(0.06172839506172839,0,0,0.06172839506172839,89.93827160493828,0)" xlink:href="#y"/><use transform="matrix(0.06172839506172839,0,0,0.06172839506172839,96.11111111111111,0)" xlink:href="#v"/><use transform="matrix(0.06172839506172839,0,0,0.06172839506172839,102.28395061728395,0)" xlink:href="#A"/><use transform="matrix(0.06172839506172839,0,0,0.06172839506172839,113.39506172839506,0)" xlink:href="#t"/><use transform="matrix(0.06172839506172839,0,0,0.06172839506172839,125.74074074074075,0)" xlink:href="#B"/></g><path fill="#3a414a" d="M114-163C36-179 61-72 57 0H25l-1-190h30c1 12-1 29 2 39 6-27 23-49 58-41v29" id="D"/><path fill="#3a414a" d="M85-194c31 0 48 13 60 33l-1-100h32l1 261h-30c-2-10 0-23-3-31C134-8 116 4 85 4 32 4 16-35 15-94c0-66 23-100 70-100zm9 24c-40 0-46 34-46 75 0 40 6 74 45 74 42 0 51-32 51-76 0-42-9-74-50-73" id="E"/><path fill="#3a414a" d="M115-194c53 0 69 39 70 98 0 66-23 100-70 100C84 3 66-7 56-30L54 0H23l1-261h32v101c10-23 28-34 59-34zm-8 174c40 0 45-34 45-75 0-40-5-75-45-74-42 0-51 32-51 76 0 43 10 73 51 73" id="F"/><g id="c"><use transform="matrix(0.06172839506172839,0,0,0.06172839506172839,0,0)" xlink:href="#t"/><use transform="matrix(0.06172839506172839,0,0,0.06172839506172839,12.345679012345679,0)" xlink:href="#u"/><use transform="matrix(0.06172839506172839,0,0,0.06172839506172839,17.22222222222222,0)" xlink:href="#r"/><use transform="matrix(0.06172839506172839,0,0,0.06172839506172839,22.098765432098766,0)" xlink:href="#z"/><use transform="matrix(0.06172839506172839,0,0,0.06172839506172839,34.44444444444444,0)" xlink:href="#s"/><use transform="matrix(0.06172839506172839,0,0,0.06172839506172839,46.79012345679012,0)" xlink:href="#B"/><use transform="matrix(0.06172839506172839,0,0,0.06172839506172839,65.24691358024691,0)" xlink:href="#C"/><use transform="matrix(0.06172839506172839,0,0,0.06172839506172839,77.5925925925926,0)" xlink:href="#s"/><use transform="matrix(0.06172839506172839,0,0,0.06172839506172839,89.93827160493828,0)" xlink:href="#y"/><use transform="matrix(0.06172839506172839,0,0,0.06172839506172839,96.11111111111111,0)" xlink:href="#v"/><use transform="matrix(0.06172839506172839,0,0,0.06172839506172839,102.28395061728395,0)" xlink:href="#A"/><use transform="matrix(0.06172839506172839,0,0,0.06172839506172839,113.39506172839506,0)" xlink:href="#x"/><use transform="matrix(0.06172839506172839,0,0,0.06172839506172839,125.74074074074075,0)" xlink:href="#D"/><use transform="matrix(0.06172839506172839,0,0,0.06172839506172839,133.08641975308643,0)" xlink:href="#y"/><use transform="matrix(0.06172839506172839,0,0,0.06172839506172839,139.25925925925927,0)" xlink:href="#C"/><use transform="matrix(0.06172839506172839,0,0,0.06172839506172839,151.60493827160494,0)" xlink:href="#E"/><use transform="matrix(0.06172839506172839,0,0,0.06172839506172839,163.9506172839506,0)" xlink:href="#v"/><use transform="matrix(0.06172839506172839,0,0,0.06172839506172839,170.12345679012344,0)" xlink:href="#F"/><use transform="matrix(0.06172839506172839,0,0,0.06172839506172839,182.4691358024691,0)" xlink:href="#t"/><use transform="matrix(0.06172839506172839,0,0,0.06172839506172839,194.81481481481478,0)" xlink:href="#B"/></g><path fill="#3a414a" d="M141 0L90-78 38 0H4l68-98-65-92h35l48 74 47-74h35l-64 92 68 98h-35" id="G"/><g id="d"><use transform="matrix(0.06172839506172839,0,0,0.06172839506172839,0,0)" xlink:href="#t"/><use transform="matrix(0.06172839506172839,0,0,0.06172839506172839,12.345679012345679,0)" xlink:href="#u"/><use transform="matrix(0.06172839506172839,0,0,0.06172839506172839,17.22222222222222,0)" xlink:href="#r"/><use transform="matrix(0.06172839506172839,0,0,0.06172839506172839,22.098765432098766,0)" xlink:href="#z"/><use transform="matrix(0.06172839506172839,0,0,0.06172839506172839,34.44444444444444,0)" xlink:href="#s"/><use transform="matrix(0.06172839506172839,0,0,0.06172839506172839,46.79012345679012,0)" xlink:href="#B"/><use transform="matrix(0.06172839506172839,0,0,0.06172839506172839,65.24691358024691,0)" xlink:href="#C"/><use transform="matrix(0.06172839506172839,0,0,0.06172839506172839,77.5925925925926,0)" xlink:href="#s"/><use transform="matrix(0.06172839506172839,0,0,0.06172839506172839,89.93827160493828,0)" xlink:href="#y"/><use transform="matrix(0.06172839506172839,0,0,0.06172839506172839,96.11111111111111,0)" xlink:href="#v"/><use transform="matrix(0.06172839506172839,0,0,0.06172839506172839,102.28395061728395,0)" xlink:href="#A"/><use transform="matrix(0.06172839506172839,0,0,0.06172839506172839,113.39506172839506,0)" xlink:href="#x"/><use transform="matrix(0.06172839506172839,0,0,0.06172839506172839,125.74074074074075,0)" xlink:href="#D"/><use transform="matrix(0.06172839506172839,0,0,0.06172839506172839,133.08641975308643,0)" xlink:href="#y"/><use transform="matrix(0.06172839506172839,0,0,0.06172839506172839,139.25925925925927,0)" xlink:href="#C"/><use transform="matrix(0.06172839506172839,0,0,0.06172839506172839,151.60493827160494,0)" xlink:href="#E"/><use transform="matrix(0.06172839506172839,0,0,0.06172839506172839,163.9506172839506,0)" xlink:href="#v"/><use transform="matrix(0.06172839506172839,0,0,0.06172839506172839,170.12345679012344,0)" xlink:href="#r"/><use transform="matrix(0.06172839506172839,0,0,0.06172839506172839,174.99999999999997,0)" xlink:href="#s"/><use transform="matrix(0.06172839506172839,0,0,0.06172839506172839,187.34567901234564,0)" xlink:href="#E"/><use transform="matrix(0.06172839506172839,0,0,0.06172839506172839,199.6913580246913,0)" xlink:href="#C"/><use transform="matrix(0.06172839506172839,0,0,0.06172839506172839,212.03703703703698,0)" xlink:href="#G"/><path fill="#8080ff" d="M-1.1 1.54h225.36v1.63H-1.1z"/></g><path fill="#3a414a" d="M115-194c55 1 70 41 70 98S169 2 115 4C84 4 66-9 55-30l1 105H24l-1-265h31l2 30c10-21 28-34 59-34zm-8 174c40 0 45-34 45-75s-6-73-45-74c-42 0-51 32-51 76 0 43 10 73 51 73" id="H"/><path fill="#3a414a" d="M101-251c82-7 93 87 43 132L82-64C71-53 59-42 53-27h129V0H18c2-99 128-94 128-182 0-28-16-43-45-43s-46 15-49 41l-32-3c6-41 34-60 81-64" id="I"/><g id="e"><use transform="matrix(0.06172839506172839,0,0,0.06172839506172839,0,0)" xlink:href="#B"/><use transform="matrix(0.06172839506172839,0,0,0.06172839506172839,18.456790123456788,0)" xlink:href="#r"/><use transform="matrix(0.06172839506172839,0,0,0.06172839506172839,23.33333333333333,0)" xlink:href="#s"/><use transform="matrix(0.06172839506172839,0,0,0.06172839506172839,35.679012345679006,0)" xlink:href="#r"/><use transform="matrix(0.06172839506172839,0,0,0.06172839506172839,40.55555555555555,0)" xlink:href="#B"/><use transform="matrix(0.06172839506172839,0,0,0.06172839506172839,59.01234567901234,0)" xlink:href="#t"/><use transform="matrix(0.06172839506172839,0,0,0.06172839506172839,71.35802469135803,0)" xlink:href="#H"/><use transform="matrix(0.06172839506172839,0,0,0.06172839506172839,83.70370370370371,0)" xlink:href="#I"/></g><path fill="#3a414a" d="M206 0h-36l-40-164L89 0H53L-1-190h32L70-26l43-164h34l41 164 42-164h31" id="J"/><g id="f"><use transform="matrix(0.06172839506172839,0,0,0.06172839506172839,0,0)" xlink:href="#F"/><use transform="matrix(0.06172839506172839,0,0,0.06172839506172839,12.345679012345679,0)" xlink:href="#x"/><use transform="matrix(0.06172839506172839,0,0,0.06172839506172839,24.691358024691358,0)" xlink:href="#J"/><use transform="matrix(0.06172839506172839,0,0,0.06172839506172839,40.67901234567901,0)" xlink:href="#y"/><use transform="matrix(0.06172839506172839,0,0,0.06172839506172839,46.851851851851855,0)" xlink:href="#r"/><use transform="matrix(0.06172839506172839,0,0,0.06172839506172839,51.7283950617284,0)" xlink:href="#C"/><use transform="matrix(0.06172839506172839,0,0,0.06172839506172839,64.07407407407408,0)" xlink:href="#I"/></g><g id="g"><use transform="matrix(0.06172839506172839,0,0,0.06172839506172839,0,0)" xlink:href="#A"/><use transform="matrix(0.06172839506172839,0,0,0.06172839506172839,11.11111111111111,0)" xlink:href="#t"/><use transform="matrix(0.06172839506172839,0,0,0.06172839506172839,23.45679012345679,0)" xlink:href="#B"/><use transform="matrix(0.06172839506172839,0,0,0.06172839506172839,41.91358024691358,0)" xlink:href="#y"/><use transform="matrix(0.06172839506172839,0,0,0.06172839506172839,48.086419753086425,0)" xlink:href="#x"/><use transform="matrix(0.06172839506172839,0,0,0.06172839506172839,60.4320987654321,0)" xlink:href="#x"/><use transform="matrix(0.06172839506172839,0,0,0.06172839506172839,72.77777777777779,0)" xlink:href="#u"/><use transform="matrix(0.06172839506172839,0,0,0.06172839506172839,77.65432098765433,0)" xlink:href="#A"/></g><path fill="#3a414a" d="M128-127c34 4 56 21 59 58 7 91-148 94-172 28-4-9-6-17-7-26l51-5c1 24 16 35 40 36 23 0 39-12 38-36-1-31-31-36-65-34v-40c32 2 59-3 59-33 0-20-13-33-34-33s-33 13-35 32l-50-3c6-44 37-68 86-68 50 0 83 20 83 66 0 35-22 52-53 58" id="K"/><path fill="#3a414a" d="M24 0v-54h51V0H24" id="L"/><g id="h"><use transform="matrix(0.09259259259259256,0,0,0.09259259259259256,0,0)" xlink:href="#K"/><use transform="matrix(0.09259259259259256,0,0,0.09259259259259256,18.518518518518512,0)" xlink:href="#L"/></g><path fill="#3a414a" d="M230 0l2-204L168 0h-37L68-204 70 0H24v-248h70l56 185 57-185h69V0h-46" id="M"/><path fill="#3a414a" d="M133-34C117-15 103 5 69 4 32 3 11-16 11-54c-1-60 55-63 116-61 1-26-3-47-28-47-18 1-26 9-28 27l-52-2c7-38 36-58 82-57s74 22 75 68l1 82c-1 14 12 18 25 15v27c-30 8-71 5-69-32zm-48 3c29 0 43-24 42-57-32 0-66-3-65 30 0 17 8 27 23 27" id="N"/><path fill="#3a414a" d="M135-194c53 0 70 44 70 98 0 56-19 98-73 100-31 1-45-17-59-34 3 33 2 69 2 105H25l-1-265h48c2 10 0 23 3 31 11-24 29-35 60-35zM114-30c33 0 39-31 40-66 0-38-9-64-40-64-56 0-55 130 0 130" id="O"/><path fill="#3a414a" d="M25-224v-37h50v37H25zM25 0v-190h50V0H25" id="P"/><path fill="#3a414a" d="M135-194c87-1 58 113 63 194h-50c-7-57 23-157-34-157-59 0-34 97-39 157H25l-1-190h47c2 12-1 28 3 38 12-26 28-41 61-42" id="Q"/><path fill="#3a414a" d="M195-6C206 82 75 100 31 46c-4-6-6-13-8-21l49-6c3 16 16 24 34 25 40 0 42-37 40-79-11 22-30 35-61 35-53 0-70-43-70-97 0-56 18-96 73-97 30 0 46 14 59 34l2-30h47zm-90-29c32 0 41-27 41-63 0-35-9-62-40-62-32 0-39 29-40 63 0 36 9 62 39 62" id="R"/><g id="i"><use transform="matrix(0.09259259259259256,0,0,0.09259259259259256,0,0)" xlink:href="#M"/><use transform="matrix(0.09259259259259256,0,0,0.09259259259259256,27.685185185185176,0)" xlink:href="#N"/><use transform="matrix(0.09259259259259256,0,0,0.09259259259259256,46.20370370370369,0)" xlink:href="#O"/><use transform="matrix(0.09259259259259256,0,0,0.09259259259259256,66.48148148148147,0)" xlink:href="#O"/><use transform="matrix(0.09259259259259256,0,0,0.09259259259259256,86.75925925925924,0)" xlink:href="#P"/><use transform="matrix(0.09259259259259256,0,0,0.09259259259259256,96.01851851851849,0)" xlink:href="#Q"/><use transform="matrix(0.09259259259259256,0,0,0.09259259259259256,116.29629629629625,0)" xlink:href="#R"/></g><path d="M169-182c-1-43-94-46-97-3 18 66 151 10 154 114 3 95-165 93-204 36-6-8-10-19-12-30l50-8c3 46 112 56 116 5-17-69-150-10-154-114-4-87 153-88 188-35 5 8 8 18 10 28" id="S"/><path d="M110-194c64 0 96 36 96 99 0 64-35 99-97 99-61 0-95-36-95-99 0-62 34-99 96-99zm-1 164c35 0 45-28 45-65 0-40-10-65-43-65-34 0-45 26-45 65 0 36 10 65 43 65" id="T"/><path d="M121-226c-27-7-43 5-38 36h38v33H83V0H34v-157H6v-33h28c-9-59 32-81 87-68v32" id="U"/><path d="M115-3C79 11 28 4 28-45v-112H4v-33h27l15-45h31v45h36v33H77v99c-1 23 16 31 38 25v30" id="V"/><path d="M231 0h-52l-39-155L100 0H48L-1-190h46L77-45c9-52 24-97 36-145h53l37 145 32-145h46" id="W"/><path d="M133-34C117-15 103 5 69 4 32 3 11-16 11-54c-1-60 55-63 116-61 1-26-3-47-28-47-18 1-26 9-28 27l-52-2c7-38 36-58 82-57s74 22 75 68l1 82c-1 14 12 18 25 15v27c-30 8-71 5-69-32zm-48 3c29 0 43-24 42-57-32 0-66-3-65 30 0 17 8 27 23 27" id="X"/><path d="M135-150c-39-12-60 13-60 57V0H25l-1-190h47c2 13-1 29 3 40 6-28 27-53 61-41v41" id="Y"/><path d="M185-48c-13 30-37 53-82 52C43 2 14-33 14-96s30-98 90-98c62 0 83 45 84 108H66c0 31 8 55 39 56 18 0 30-7 34-22zm-45-69c5-46-57-63-70-21-2 6-4 13-4 21h74" id="Z"/><g id="j"><use transform="matrix(0.08086419753086417,0,0,0.08086419753086417,0,0)" xlink:href="#S"/><use transform="matrix(0.08086419753086417,0,0,0.08086419753086417,19.4074074074074,0)" xlink:href="#T"/><use transform="matrix(0.08086419753086417,0,0,0.08086419753086417,37.11666666666665,0)" xlink:href="#U"/><use transform="matrix(0.08086419753086417,0,0,0.08086419753086417,46.73950617283949,0)" xlink:href="#V"/><use transform="matrix(0.08086419753086417,0,0,0.08086419753086417,56.36234567901233,0)" xlink:href="#W"/><use transform="matrix(0.08086419753086417,0,0,0.08086419753086417,79.0043209876543,0)" xlink:href="#X"/><use transform="matrix(0.08086419753086417,0,0,0.08086419753086417,95.17716049382713,0)" xlink:href="#Y"/><use transform="matrix(0.08086419753086417,0,0,0.08086419753086417,106.49814814814812,0)" xlink:href="#Z"/></g><path d="M33 0v-248h34V0H33" id="aa"/><path d="M24 0v-261h32V0H24" id="ab"/><path d="M84 4C-5 8 30-112 23-190h32v120c0 31 7 50 39 49 72-2 45-101 50-169h31l1 190h-30c-1-10 1-25-2-33-11 22-28 36-60 37" id="ac"/><path d="M210-169c-67 3-38 105-44 169h-31v-121c0-29-5-50-35-48C34-165 62-65 56 0H25l-1-190h30c1 10-1 24 2 32 10-44 99-50 107 0 11-21 27-35 58-36 85-2 47 119 55 194h-31v-121c0-29-5-49-35-48" id="ad"/><path d="M24-231v-30h32v30H24zM24 0v-190h32V0H24" id="ae"/><path d="M117-194c89-4 53 116 60 194h-32v-121c0-31-8-49-39-48C34-167 62-67 57 0H25l-1-190h30c1 10-1 24 2 32 11-22 29-35 61-36" id="af"/><path d="M141-36C126-15 110 5 73 4 37 3 15-17 15-53c-1-64 63-63 125-63 3-35-9-54-41-54-24 1-41 7-42 31l-33-3c5-37 33-52 76-52 45 0 72 20 72 64v82c-1 20 7 32 28 27v20c-31 9-61-2-59-35zM48-53c0 20 12 33 32 33 41-3 63-29 60-74-43 2-92-5-92 41" id="ag"/><path d="M16-82v-28h88v28H16" id="ah"/><path d="M100-194c62-1 85 37 85 99 1 63-27 99-86 99S16-35 15-95c0-66 28-99 85-99zM99-20c44 1 53-31 53-75 0-43-8-75-51-75s-53 32-53 75 10 74 51 75" id="ai"/><path d="M179-190L93 31C79 59 56 82 12 73V49c39 6 53-20 64-50L1-190h34L92-34l54-156h33" id="aj"/><g id="k"><use transform="matrix(0.06975308641975307,0,0,0.06975308641975307,0,0)" xlink:href="#aa"/><use transform="matrix(0.06975308641975307,0,0,0.06975308641975307,6.975308641975307,0)" xlink:href="#ab"/><use transform="matrix(0.06975308641975307,0,0,0.06975308641975307,12.485802469135798,0)" xlink:href="#ab"/><use transform="matrix(0.06975308641975307,0,0,0.06975308641975307,17.99629629629629,0)" xlink:href="#ac"/><use transform="matrix(0.06975308641975307,0,0,0.06975308641975307,31.946913580246903,0)" xlink:href="#ad"/><use transform="matrix(0.06975308641975307,0,0,0.06975308641975307,52.80308641975307,0)" xlink:href="#ae"/><use transform="matrix(0.06975308641975307,0,0,0.06975308641975307,58.31358024691357,0)" xlink:href="#af"/><use transform="matrix(0.06975308641975307,0,0,0.06975308641975307,72.26419753086418,0)" xlink:href="#ag"/><use transform="matrix(0.06975308641975307,0,0,0.06975308641975307,86.21481481481479,0)" xlink:href="#ah"/><use transform="matrix(0.06975308641975307,0,0,0.06975308641975307,94.5154320987654,0)" xlink:href="#ai"/><use transform="matrix(0.06975308641975307,0,0,0.06975308641975307,108.46604938271602,0)" xlink:href="#af"/><use transform="matrix(0.06975308641975307,0,0,0.06975308641975307,122.41666666666663,0)" xlink:href="#ab"/><use transform="matrix(0.06975308641975307,0,0,0.06975308641975307,127.92716049382712,0)" xlink:href="#aj"/></g><path d="M190 0L58-211 59 0H30v-248h39L202-35l-2-213h31V0h-41" id="ak"/><path d="M115-194c55 1 70 41 70 98S169 2 115 4C84 4 66-9 55-30l1 105H24l-1-265h31l2 30c10-21 28-34 59-34zm-8 174c40 0 45-34 45-75s-6-73-45-74c-42 0-51 32-51 76 0 43 10 73 51 73" id="al"/><path d="M114-163C36-179 61-72 57 0H25l-1-190h30c1 12-1 29 2 39 6-27 23-49 58-41v29" id="am"/><path d="M100-194c63 0 86 42 84 106H49c0 40 14 67 53 68 26 1 43-12 49-29l28 8c-11 28-37 45-77 45C44 4 14-33 15-96c1-61 26-98 85-98zm52 81c6-60-76-77-97-28-3 7-6 17-6 28h103" id="an"/><path d="M0 4l72-265h28L28 4H0" id="ao"/><path d="M177-190C167-65 218 103 67 71c-23-6-38-20-44-43l32-5c15 47 100 32 89-28v-30C133-14 115 1 83 1 29 1 15-40 15-95c0-56 16-97 71-98 29-1 48 16 59 35 1-10 0-23 2-32h30zM94-22c36 0 50-32 50-73 0-42-14-75-50-75-39 0-46 34-46 75s6 73 46 73" id="ap"/><path d="M85-194c31 0 48 13 60 33l-1-100h32l1 261h-30c-2-10 0-23-3-31C134-8 116 4 85 4 32 4 16-35 15-94c0-66 23-100 70-100zm9 24c-40 0-46 34-46 75 0 40 6 74 45 74 42 0 51-32 51-76 0-42-9-74-50-73" id="aq"/><g id="l"><use transform="matrix(0.06975308641975307,0,0,0.06975308641975307,0,0)" xlink:href="#ak"/><use transform="matrix(0.06975308641975307,0,0,0.06975308641975307,18.066049382716045,0)" xlink:href="#ag"/><use transform="matrix(0.06975308641975307,0,0,0.06975308641975307,32.01666666666666,0)" xlink:href="#af"/><use transform="matrix(0.06975308641975307,0,0,0.06975308641975307,45.96728395061727,0)" xlink:href="#ai"/><use transform="matrix(0.06975308641975307,0,0,0.06975308641975307,59.917901234567886,0)" xlink:href="#al"/><use transform="matrix(0.06975308641975307,0,0,0.06975308641975307,73.8685185185185,0)" xlink:href="#ai"/><use transform="matrix(0.06975308641975307,0,0,0.06975308641975307,87.8191358024691,0)" xlink:href="#am"/><use transform="matrix(0.06975308641975307,0,0,0.06975308641975307,96.11975308641972,0)" xlink:href="#an"/><use transform="matrix(0.06975308641975307,0,0,0.06975308641975307,110.07037037037034,0)" xlink:href="#ao"/><use transform="matrix(0.06975308641975307,0,0,0.06975308641975307,117.04567901234564,0)" xlink:href="#ab"/><use transform="matrix(0.06975308641975307,0,0,0.06975308641975307,122.55617283950613,0)" xlink:href="#ai"/><use transform="matrix(0.06975308641975307,0,0,0.06975308641975307,136.50679012345674,0)" xlink:href="#af"/><use transform="matrix(0.06975308641975307,0,0,0.06975308641975307,150.45740740740735,0)" xlink:href="#ap"/><use transform="matrix(0.06975308641975307,0,0,0.06975308641975307,164.40802469135795,0)" xlink:href="#ah"/><use transform="matrix(0.06975308641975307,0,0,0.06975308641975307,172.70864197530858,0)" xlink:href="#am"/><use transform="matrix(0.06975308641975307,0,0,0.06975308641975307,181.00925925925918,0)" xlink:href="#an"/><use transform="matrix(0.06975308641975307,0,0,0.06975308641975307,194.95987654320982,0)" xlink:href="#ag"/><use transform="matrix(0.06975308641975307,0,0,0.06975308641975307,208.9104938271604,0)" xlink:href="#aq"/><use transform="matrix(0.06975308641975307,0,0,0.06975308641975307,222.861111111111,0)" xlink:href="#ah"/><use transform="matrix(0.06975308641975307,0,0,0.06975308641975307,231.1617283950616,0)" xlink:href="#ai"/><use transform="matrix(0.06975308641975307,0,0,0.06975308641975307,245.11234567901224,0)" xlink:href="#af"/><use transform="matrix(0.06975308641975307,0,0,0.06975308641975307,259.06296296296284,0)" xlink:href="#ab"/><use transform="matrix(0.06975308641975307,0,0,0.06975308641975307,264.5734567901233,0)" xlink:href="#aj"/></g><path d="M212-179c-10-28-35-45-73-45-59 0-87 40-87 99 0 60 29 101 89 101 43 0 62-24 78-52l27 14C228-24 195 4 139 4 59 4 22-46 18-125c-6-104 99-153 187-111 19 9 31 26 39 46" id="ar"/><path d="M135-143c-3-34-86-38-87 0 15 53 115 12 119 90S17 21 10-45l28-5c4 36 97 45 98 0-10-56-113-15-118-90-4-57 82-63 122-42 12 7 21 19 24 35" id="as"/><path d="M59-47c-2 24 18 29 38 22v24C64 9 27 4 27-40v-127H5v-23h24l9-43h21v43h35v23H59v120" id="at"/><path d="M101-234c-31-9-42 10-38 44h38v23H63V0H32v-167H5v-23h27c-7-52 17-82 69-68v24" id="au"/><g id="m"><use transform="matrix(0.06975308641975307,0,0,0.06975308641975307,0,0)" xlink:href="#ar"/><use transform="matrix(0.06975308641975307,0,0,0.06975308641975307,18.066049382716045,0)" xlink:href="#am"/><use transform="matrix(0.06975308641975307,0,0,0.06975308641975307,26.36666666666666,0)" xlink:href="#ai"/><use transform="matrix(0.06975308641975307,0,0,0.06975308641975307,40.31728395061727,0)" xlink:href="#as"/><use transform="matrix(0.06975308641975307,0,0,0.06975308641975307,52.872839506172824,0)" xlink:href="#as"/><use transform="matrix(0.06975308641975307,0,0,0.06975308641975307,65.42839506172838,0)" xlink:href="#ah"/><use transform="matrix(0.06975308641975307,0,0,0.06975308641975307,73.729012345679,0)" xlink:href="#al"/><use transform="matrix(0.06975308641975307,0,0,0.06975308641975307,87.6796296296296,0)" xlink:href="#ab"/><use transform="matrix(0.06975308641975307,0,0,0.06975308641975307,93.19012345679009,0)" xlink:href="#ag"/><use transform="matrix(0.06975308641975307,0,0,0.06975308641975307,107.14074074074071,0)" xlink:href="#at"/><use transform="matrix(0.06975308641975307,0,0,0.06975308641975307,114.11604938271601,0)" xlink:href="#au"/><use transform="matrix(0.06975308641975307,0,0,0.06975308641975307,121.09135802469132,0)" xlink:href="#ai"/><use transform="matrix(0.06975308641975307,0,0,0.06975308641975307,135.04197530864192,0)" xlink:href="#am"/><use transform="matrix(0.06975308641975307,0,0,0.06975308641975307,143.34259259259255,0)" xlink:href="#ad"/></g><path fill="#3a414a" d="M140-251c81 0 123 46 123 126C263-53 228-8 163 1c7 30 30 48 69 40v23c-55 16-95-15-103-61C56-3 17-48 17-125c0-80 42-126 123-126zm0 227c63 0 89-41 89-101s-29-99-89-99c-61 0-89 39-89 99S79-25 140-24" id="av"/><path fill="#3a414a" d="M212-179c-10-28-35-45-73-45-59 0-87 40-87 99 0 60 29 101 89 101 43 0 62-24 78-52l27 14C228-24 195 4 139 4 59 4 22-46 18-125c-6-104 99-153 187-111 19 9 31 26 39 46" id="aw"/><path fill="#3a414a" d="M-5 72V49h209v23H-5" id="ax"/><path fill="#3a414a" d="M140-251c81 0 123 46 123 126C263-46 219 4 140 4 59 4 17-45 17-125s42-126 123-126zm0 227c63 0 89-41 89-101s-29-99-89-99c-61 0-89 39-89 99S79-25 140-24" id="ay"/><path fill="#3a414a" d="M190 0L58-211 59 0H30v-248h39L202-35l-2-213h31V0h-41" id="az"/><path fill="#3a414a" d="M127-220V0H93v-220H8v-28h204v28h-85" id="aA"/><path fill="#3a414a" d="M145-31C134-9 116 4 85 4 32 4 16-35 15-94c0-59 17-99 70-100 32-1 48 14 60 33 0-11-1-24 2-32h30l-1 268h-32zM93-21c41 0 51-33 51-76s-8-73-50-73c-40 0-46 35-46 75s5 74 45 74" id="aB"/><path fill="#3a414a" d="M9 0v-24l116-142H16v-24h144v24L44-24h123V0H9" id="aC"/><g id="n"><use transform="matrix(0.06172839506172839,0,0,0.06172839506172839,0,0)" xlink:href="#av"/><use transform="matrix(0.06172839506172839,0,0,0.06172839506172839,17.28395061728395,0)" xlink:href="#aw"/><use transform="matrix(0.06172839506172839,0,0,0.06172839506172839,33.2716049382716,0)" xlink:href="#ax"/><use transform="matrix(0.06172839506172839,0,0,0.06172839506172839,45.61728395061728,0)" xlink:href="#D"/><use transform="matrix(0.06172839506172839,0,0,0.06172839506172839,52.962962962962955,0)" xlink:href="#C"/><use transform="matrix(0.06172839506172839,0,0,0.06172839506172839,65.30864197530863,0)" xlink:href="#t"/><use transform="matrix(0.06172839506172839,0,0,0.06172839506172839,77.65432098765432,0)" xlink:href="#E"/><use transform="matrix(0.06172839506172839,0,0,0.06172839506172839,90,0)" xlink:href="#A"/><use transform="matrix(0.06172839506172839,0,0,0.06172839506172839,101.11111111111111,0)" xlink:href="#ax"/><use transform="matrix(0.06172839506172839,0,0,0.06172839506172839,113.4567901234568,0)" xlink:href="#ay"/><use transform="matrix(0.06172839506172839,0,0,0.06172839506172839,130.74074074074076,0)" xlink:href="#az"/><use transform="matrix(0.06172839506172839,0,0,0.06172839506172839,146.7283950617284,0)" xlink:href="#aA"/><use transform="matrix(0.06172839506172839,0,0,0.06172839506172839,157.77777777777777,0)" xlink:href="#v"/><use transform="matrix(0.06172839506172839,0,0,0.06172839506172839,163.9506172839506,0)" xlink:href="#q"/><use transform="matrix(0.06172839506172839,0,0,0.06172839506172839,170.12345679012344,0)" xlink:href="#t"/><use transform="matrix(0.06172839506172839,0,0,0.06172839506172839,182.4691358024691,0)" xlink:href="#A"/><use transform="matrix(0.06172839506172839,0,0,0.06172839506172839,193.58024691358023,0)" xlink:href="#y"/><use transform="matrix(0.06172839506172839,0,0,0.06172839506172839,199.75308641975306,0)" xlink:href="#aB"/><use transform="matrix(0.06172839506172839,0,0,0.06172839506172839,212.09876543209873,0)" xlink:href="#v"/><use transform="matrix(0.06172839506172839,0,0,0.06172839506172839,218.27160493827157,0)" xlink:href="#z"/><use transform="matrix(0.06172839506172839,0,0,0.06172839506172839,230.61728395061724,0)" xlink:href="#aC"/></g><path fill="#3a414a" d="M233-177c-1 41-23 64-60 70L243 0h-38l-65-103H63V0H30v-248c88 3 205-21 203 71zM63-129c60-2 137 13 137-47 0-61-80-42-137-45v92" id="aD"/><path fill="#3a414a" d="M27 0v-27h64v-190l-56 39v-29l58-41h29v221h61V0H27" id="aE"/><g id="o"><use transform="matrix(0.06172839506172839,0,0,0.06172839506172839,0,0)" xlink:href="#av"/><use transform="matrix(0.06172839506172839,0,0,0.06172839506172839,17.28395061728395,0)" xlink:href="#aw"/><use transform="matrix(0.06172839506172839,0,0,0.06172839506172839,33.2716049382716,0)" xlink:href="#ax"/><use transform="matrix(0.06172839506172839,0,0,0.06172839506172839,45.61728395061728,0)" xlink:href="#D"/><use transform="matrix(0.06172839506172839,0,0,0.06172839506172839,52.962962962962955,0)" xlink:href="#C"/><use transform="matrix(0.06172839506172839,0,0,0.06172839506172839,65.30864197530863,0)" xlink:href="#t"/><use transform="matrix(0.06172839506172839,0,0,0.06172839506172839,77.65432098765432,0)" xlink:href="#E"/><use transform="matrix(0.06172839506172839,0,0,0.06172839506172839,90,0)" xlink:href="#A"/><use transform="matrix(0.06172839506172839,0,0,0.06172839506172839,101.11111111111111,0)" xlink:href="#ax"/><use transform="matrix(0.06172839506172839,0,0,0.06172839506172839,113.4567901234568,0)" xlink:href="#aD"/><use transform="matrix(0.06172839506172839,0,0,0.06172839506172839,129.44444444444446,0)" xlink:href="#aE"/><use transform="matrix(0.06172839506172839,0,0,0.06172839506172839,141.79012345679013,0)" xlink:href="#v"/><use transform="matrix(0.06172839506172839,0,0,0.06172839506172839,147.96296296296296,0)" xlink:href="#q"/><use transform="matrix(0.06172839506172839,0,0,0.06172839506172839,154.1358024691358,0)" xlink:href="#t"/><use transform="matrix(0.06172839506172839,0,0,0.06172839506172839,166.48148148148147,0)" xlink:href="#A"/><use transform="matrix(0.06172839506172839,0,0,0.06172839506172839,177.59259259259258,0)" xlink:href="#y"/><use transform="matrix(0.06172839506172839,0,0,0.06172839506172839,183.76543209876542,0)" xlink:href="#aB"/><use transform="matrix(0.06172839506172839,0,0,0.06172839506172839,196.1111111111111,0)" xlink:href="#v"/><use transform="matrix(0.06172839506172839,0,0,0.06172839506172839,202.28395061728392,0)" xlink:href="#z"/><use transform="matrix(0.06172839506172839,0,0,0.06172839506172839,214.6296296296296,0)" xlink:href="#aC"/></g><g id="p"><use transform="matrix(0.06172839506172839,0,0,0.06172839506172839,0,0)" xlink:href="#av"/><use transform="matrix(0.06172839506172839,0,0,0.06172839506172839,17.28395061728395,0)" xlink:href="#aw"/><use transform="matrix(0.06172839506172839,0,0,0.06172839506172839,33.2716049382716,0)" xlink:href="#ax"/><use transform="matrix(0.06172839506172839,0,0,0.06172839506172839,45.61728395061728,0)" xlink:href="#D"/><use transform="matrix(0.06172839506172839,0,0,0.06172839506172839,52.962962962962955,0)" xlink:href="#C"/><use transform="matrix(0.06172839506172839,0,0,0.06172839506172839,65.30864197530863,0)" xlink:href="#t"/><use transform="matrix(0.06172839506172839,0,0,0.06172839506172839,77.65432098765432,0)" xlink:href="#E"/><use transform="matrix(0.06172839506172839,0,0,0.06172839506172839,90,0)" xlink:href="#A"/><use transform="matrix(0.06172839506172839,0,0,0.06172839506172839,101.11111111111111,0)" xlink:href="#ax"/><use transform="matrix(0.06172839506172839,0,0,0.06172839506172839,113.4567901234568,0)" xlink:href="#aD"/><use transform="matrix(0.06172839506172839,0,0,0.06172839506172839,129.44444444444446,0)" xlink:href="#I"/><use transform="matrix(0.06172839506172839,0,0,0.06172839506172839,141.79012345679013,0)" xlink:href="#v"/><use transform="matrix(0.06172839506172839,0,0,0.06172839506172839,147.96296296296296,0)" xlink:href="#q"/><use transform="matrix(0.06172839506172839,0,0,0.06172839506172839,154.1358024691358,0)" xlink:href="#t"/><use transform="matrix(0.06172839506172839,0,0,0.06172839506172839,166.48148148148147,0)" xlink:href="#A"/><use transform="matrix(0.06172839506172839,0,0,0.06172839506172839,177.59259259259258,0)" xlink:href="#y"/><use transform="matrix(0.06172839506172839,0,0,0.06172839506172839,183.76543209876542,0)" xlink:href="#aB"/><use transform="matrix(0.06172839506172839,0,0,0.06172839506172839,196.1111111111111,0)" xlink:href="#v"/><use transform="matrix(0.06172839506172839,0,0,0.06172839506172839,202.28395061728392,0)" xlink:href="#z"/><use transform="matrix(0.06172839506172839,0,0,0.06172839506172839,214.6296296296296,0)" xlink:href="#aC"/></g></defs></g></svg>
